<svg width="374" height="374" viewBox="0 0 374 374" fill="none" xmlns="http://www.w3.org/2000/svg">
<g clip-path="url(#clip0_897_3160)">
<path d="M187 78.4074V191.996C187 191.996 74.455 192.005 74.454 191.996C68.3307 141.972 125.106 72.0285 187 78.4074Z" fill="#0D2B39"/>
<path d="M288.503 -14.0011H187.003C187.003 -14.0011 186.996 86.9979 187.003 86.9988C231.703 92.4939 294.203 41.543 288.503 -14.0011Z" fill="#F0F4BB"/>
<g clip-path="url(#clip1_897_3160)">
<circle cx="186.615" cy="191.615" r="142.115" stroke="#C5E0B4" stroke-width="81"/>
<g clip-path="url(#clip2_897_3160)">
<circle cx="186.615" cy="373.615" r="142.115" transform="rotate(90 186.615 373.615)" stroke="#E9BFD6" stroke-width="81"/>
<path d="M141.507 282.5C108.707 275.3 92.3409 238 88.5075 220C67.5075 231 32.1088 269.88 28.507 282.5C27.5081 286 63 337 89.0075 346C90.7525 346.604 110.955 334.365 128.004 320.959C147.853 305.35 163.563 287.342 141.507 282.5Z" fill="#0D2B39" stroke="#0D2B39"/>
<path d="M141.999 282.999C156.999 290.998 177.998 293.5 186.999 293.5C188.333 318.166 193.092 373.593 186.999 374C164.5 375.5 127.195 370.965 88.9988 345.499C84.5 342.5 138 280.867 141.999 282.999Z" fill="#F0F4BB" stroke="#F0F4BB" stroke-width="0.55"/>
</g>
</g>
<g clip-path="url(#clip3_897_3160)">
<g clip-path="url(#clip4_897_3160)">
<circle cx="101.615" cy="101.615" r="142.115" transform="matrix(0 1 1 0 85.7695 272)" stroke="#0D2B39" stroke-width="81"/>
</g>
<circle cx="101.615" cy="101.615" r="142.115" transform="matrix(-1 0 0 1 289 90)" stroke="#0D2B39" stroke-width="81"/>
<path d="M45.5 373.5C45.5 452.112 109.487 515.5 188 515.5C266.513 515.5 330.5 452.112 330.5 373.5C330.5 294.888 266.513 231.5 188 231.5C109.487 231.5 45.5 294.888 45.5 373.5Z" stroke="#C5E0B4" stroke-width="81"/>
<g clip-path="url(#clip5_897_3160)">
<path d="M125.345 369.076C121.429 399.746 126.839 430.3 140.755 455.124C154.667 479.941 178.852 501.418 211.776 505.621C244.7 509.824 273.507 495.113 293.208 474.587C312.913 454.056 325.825 425.84 329.74 395.17C333.656 364.501 328.247 333.946 314.332 309.123C300.419 284.306 276.233 262.829 243.309 258.626C210.385 254.423 181.579 269.134 161.878 289.66C142.173 310.191 129.26 338.407 125.345 369.076Z" stroke="#0D2B39" stroke-width="83"/>
</g>
<circle cx="101.615" cy="101.615" r="142.115" transform="matrix(-1 0 0 1 289.23 90)" stroke="#F0F4BB" stroke-width="81"/>
</g>
<path d="M277.464 33C278.121 33.387 242.52 82.5 186.964 90C186.964 90 186.876 9.02867 186.964 8.99999C188.498 8.5 235 8 277.464 33Z" fill="#E9BFD6"/>
</g>
<defs>
<clipPath id="clip0_897_3160">
<rect width="374" height="374" fill="white"/>
</clipPath>
<clipPath id="clip1_897_3160">
<rect width="187" height="365" fill="white" transform="translate(0 9)"/>
</clipPath>
<clipPath id="clip2_897_3160">
<rect width="187" height="197" fill="white" transform="matrix(0 1 -1 0 187 187)"/>
</clipPath>
<clipPath id="clip3_897_3160">
<rect width="187" height="365" fill="white" transform="matrix(-1 0 0 1 374 9)"/>
</clipPath>
<clipPath id="clip4_897_3160">
<rect width="187" height="104" fill="white" transform="matrix(0 1 1 0 280 187)"/>
</clipPath>
<clipPath id="clip5_897_3160">
<rect width="141" height="104" fill="white" transform="matrix(0 1 1 0 280 233)"/>
</clipPath>
</defs>
</svg>
