<svg width="173" height="173" viewBox="0 0 173 173" fill="none" xmlns="http://www.w3.org/2000/svg">
<path d="M86.4998 39.6458C73.3014 28.0188 56.1744 21.6034 38.4419 21.625C37.1107 21.625 35.7892 21.661 34.4773 21.7331C26.3751 22.1584 22.324 22.3747 18.3739 26.5483C14.4165 30.7219 14.4165 35.8615 14.4165 46.155V112.904C14.4165 121.785 14.4165 126.218 16.0095 128.705C16.7418 129.976 17.7959 131.033 19.0659 131.768C21.5528 133.354 27.1825 133.354 38.4419 133.354C56.1212 133.308 73.2096 139.716 86.4998 151.375V39.6458ZM86.4998 39.6458C100.818 27.0796 119.503 20.6461 138.522 21.7331C146.625 22.1656 150.676 22.3819 154.626 26.5483C158.583 30.7219 158.583 35.8615 158.583 46.155V82.8958M156.341 107.649L151.851 103.158C150.414 101.722 148.465 100.915 146.434 100.915C144.402 100.915 142.453 101.722 141.016 103.158L116.876 127.306C113.673 130.515 111.486 134.597 110.59 139.042L108.125 151.375L120.451 148.91C124.901 148.016 128.988 145.83 132.201 142.624L156.341 118.483C157.778 117.046 158.585 115.098 158.585 113.066C158.585 111.035 157.778 109.086 156.341 107.649Z" stroke="#0D2B39" stroke-width="14.2252" stroke-linecap="round" stroke-linejoin="round"/>
</svg>
