<svg width="204" height="204" viewBox="0 0 204 204" fill="none" xmlns="http://www.w3.org/2000/svg">
<path d="M104.971 24.08L107.784 5.00534L110.202 5.36195L108.661 15.8127L123.662 7.34708L127.101 7.85426L116.2 14.0149L124.825 27.0081L121.628 26.5366L114.106 15.1883L108.257 18.553L107.389 24.4366L104.971 24.08Z" fill="#0D2B39"/>
<path d="M132.917 31.2065C129.293 29.5316 127.912 26.4999 129.382 23.32L132.949 15.6045L135.118 16.6072L131.722 23.9529C130.606 26.3687 131.488 28.2127 134.249 29.4889C137.183 30.8448 139.666 30.1976 140.839 27.6586L144.041 20.7319L146.21 21.7346L140.399 34.3062L138.304 33.3377L139.204 31.3903L139.056 31.322C137.483 32.3301 135.185 32.2548 132.917 31.2065Z" fill="#0D2B39"/>
<path d="M146.462 37.9354L155.483 27.4263L157.234 28.9297L155.837 30.5576L155.961 30.6637C157.808 30.1378 159.981 30.858 162.042 32.6267C165.112 35.2622 165.693 38.588 163.394 41.2668L157.857 47.7166L156.044 46.1601L161.297 40.0401C162.978 38.0825 162.826 36.0912 160.312 33.9333C157.736 31.7224 155.138 31.4967 153.228 33.7222L148.276 39.4919L146.462 37.9354Z" fill="#0D2B39"/>
<path d="M165.53 57.9851C162.855 54.0571 162.841 51.1423 164.914 48.9752L166.381 51.1299C165.301 52.3909 165.349 54.1982 167.199 56.914C169.11 59.7197 170.569 60.2702 171.601 59.567L171.759 59.46C172.612 58.8791 172.57 57.7572 171.421 55.7801L169.697 52.8144C167.873 49.6539 167.995 47.5663 169.903 46.2669C171.968 44.8606 174.826 45.9697 177.15 49.3813C179.626 53.0175 179.676 55.7436 177.793 58.0445L176.325 55.8898C177.26 54.4645 177.193 52.9662 175.511 50.4972C174.013 48.2976 172.476 47.4391 171.421 48.1576L171.264 48.2646C170.388 48.8607 170.49 49.9745 171.624 51.9292L173.348 54.8948C175.172 58.0554 175.004 60.1736 173.097 61.4729C170.987 62.9098 168.266 62.0028 165.53 57.9851Z" fill="#0D2B39"/>
<path d="M174.434 74.0013C173.415 71.4549 174 69.8462 176.269 68.9381L183.833 65.9111L182.672 63.0117L184.639 62.2247L185.799 65.1241L189.077 63.8125L189.965 66.0311L186.687 67.3428L188.402 71.6289L186.436 72.4159L184.72 68.1298L176.93 71.2476C176.123 71.5704 175.937 72.0546 176.29 72.937L177.581 76.1642L175.615 76.9512L174.434 74.0013Z" fill="#0D2B39"/>
<path d="M179.354 102.277C179.421 97.1992 182.099 93.9212 186.715 93.9821C191.331 94.043 193.921 97.3905 193.854 102.468C193.787 107.546 191.11 110.824 186.494 110.763C181.877 110.702 179.287 107.355 179.354 102.277ZM181.472 102.305C181.422 106.106 182.997 108.191 186.011 108.231L187.07 108.245C190.057 108.284 191.686 106.242 191.736 102.44C191.787 98.6388 190.212 96.554 187.225 96.5146L186.166 96.5006C183.152 96.4608 181.522 98.5034 181.472 102.305Z" fill="#0D2B39"/>
<path d="M171.835 122.223C173.157 117.885 175.519 115.908 178.497 116.105L177.737 118.599C175.83 118.614 174.712 119.863 173.802 122.85C172.496 127.137 173.691 128.807 176.055 129.527L177.354 129.922L177.401 129.766C176.253 128.224 176.016 125.739 176.823 123.09C178.16 118.699 181.746 116.527 185.851 117.777C189.955 119.027 191.721 122.83 190.376 127.246C189.553 129.948 187.911 131.889 185.95 132.456L185.902 132.612L188.188 133.308L187.516 135.516L175.254 131.781C171.617 130.673 170.34 127.133 171.835 122.223ZM178.689 124.14C177.549 127.881 178.585 130.354 181.546 131.256C184.793 132.245 187.117 130.767 188.249 127.053C189.349 123.442 188.336 121.174 185.608 120.343L184.621 120.043C181.894 119.212 179.789 120.53 178.689 124.14Z" fill="#0D2B39"/>
<path d="M165.062 149.043L178.544 162.827L175.787 165.523L158.656 158.766L158.539 158.88L164.955 176.119L162.178 178.834L148.696 165.051L150.385 163.399L161.931 175.202L162.047 175.088L155.802 158.101L157.957 155.993L174.783 162.632L174.899 162.518L163.354 150.714L165.062 149.043Z" fill="#0D2B39"/>
<path d="M135.76 171.671C140.275 169.529 144.423 170.417 146.425 174.637C148.427 178.857 146.466 182.642 142.05 184.738C137.609 186.845 133.535 185.861 131.557 181.691C131.382 181.322 131.324 181.2 131.29 181.065L143.901 175.082C142.523 172.43 139.908 171.987 136.694 173.512C134.069 174.758 133.018 176.218 133.05 178.187L130.695 179.304C130.257 176.416 132.031 173.44 135.76 171.671ZM134.433 181.799C135.834 183.99 138.172 184.293 141.165 182.873C144.134 181.465 145.489 179.379 144.714 176.921L134.433 181.799Z" fill="#0D2B39"/>
<path d="M122.982 177.292L125.275 190.95L122.999 191.332L122.643 189.217L122.483 189.244C121.703 190.999 119.758 192.207 117.08 192.657C113.09 193.327 110.164 191.643 109.579 188.161L108.172 179.778L110.528 179.383L111.864 187.337C112.291 189.881 113.917 191.04 117.185 190.491C120.532 189.929 122.37 188.079 121.884 185.186L120.625 177.687L122.982 177.292Z" fill="#0D2B39"/>
<path d="M96.4785 179.508C99.216 179.679 100.419 180.896 100.267 183.336L99.7607 191.467L102.878 191.661L102.746 193.775L99.6291 193.581L99.4097 197.104L97.0246 196.956L97.244 193.432L92.6363 193.145L92.768 191.031L97.3756 191.318L97.8971 182.943C97.9511 182.076 97.5936 181.7 96.645 181.641L93.1757 181.425L93.3074 179.311L96.4785 179.508Z" fill="#0D2B39"/>
<path d="M82.5789 176.936C86.252 178.018 88.0721 179.912 87.3051 182.518C86.6379 184.784 84.7113 185.462 81.2955 184.853L76.5388 183.99C74.8439 183.69 73.929 183.817 73.6068 184.911C73.1927 186.317 74.6375 187.564 77.2426 188.331C80.0039 189.144 81.9427 188.809 83.0143 187.284L85.5152 188.02C83.723 190.55 80.7236 191.507 76.5555 190.28C72.231 189.007 70.5857 186.711 71.6518 183.089L74.0985 174.779L76.3128 175.431L75.6379 177.724L75.7942 177.77C77.4573 176.448 79.8696 176.139 82.5789 176.936ZM81.7431 178.813C78.6431 177.901 75.4859 178.528 74.6653 181.316L74.3508 182.384C74.9624 181.941 75.7685 181.895 77.1431 182.13L81.6056 182.934C83.4047 183.266 84.5096 183.167 84.8548 181.994L84.9315 181.734C85.3457 180.327 84.0616 179.496 81.7431 178.813Z" fill="#0D2B39"/>
<path d="M68.2191 172.029L59.063 188.997L56.9599 187.862L66.116 170.894L68.2191 172.029Z" fill="#0D2B39"/>
<path d="M42.8699 151.766C46.3365 155.948 46.8628 159.603 44.3964 162.883L42.6978 160.834C44.2612 158.55 43.8876 156.355 41.2184 153.136C38.4451 149.791 36.0555 148.738 34.4667 150.056L34.195 150.281C32.857 151.39 32.9471 152.903 34.9806 155.909L37.267 159.305C39.6711 162.885 39.6709 165.778 37.2877 167.754C34.7372 169.868 30.94 168.607 27.6641 164.656C24.5788 160.935 24.0733 157.262 26.2787 154.093L27.9773 156.142C26.6607 158.468 27.0276 160.527 29.3502 163.329C31.7942 166.276 34.0415 167.2 35.5258 165.969L35.7976 165.744C37.1355 164.634 37.0454 163.122 35.0119 160.116L32.7255 156.72C30.3214 153.14 30.3216 150.247 32.7049 148.271C35.4016 146.035 39.074 147.188 42.8699 151.766Z" fill="#0D2B39"/>
<path d="M31.7319 134.181C33.3095 137.848 32.3118 141.026 29.0938 142.411L21.2858 145.77L20.3414 143.574L27.7753 140.376C30.2199 139.325 30.7949 137.363 29.5929 134.569C28.3159 131.6 26.0357 130.423 23.4663 131.528L16.4565 134.544L15.5121 132.349L28.2345 126.876L29.1467 128.996L27.176 129.844L27.2403 129.993C29.0843 130.294 30.7446 131.886 31.7319 134.181Z" fill="#0D2B39"/>
<path d="M26.1586 120.173L12.4235 121.951L12.1271 119.662L14.2547 119.386L14.2338 119.225C12.5089 118.38 11.3751 116.391 11.0264 113.698C10.5069 109.685 12.2997 106.824 15.8008 106.371L24.2304 105.279L24.5372 107.649L16.5386 108.685C13.9801 109.016 12.761 110.598 13.1863 113.884C13.6222 117.25 15.4023 119.155 18.3109 118.779L25.8517 117.803L26.1586 120.173Z" fill="#0D2B39"/>
<path d="M25.4199 92.1215C24.7465 96.5514 21.5265 99.3032 17.0966 98.6298C12.6667 97.9564 10.4057 94.399 11.0913 89.8885C11.5035 87.1769 12.6972 85.106 14.4649 84.1386L14.4894 83.9775L6.99882 82.8389L7.35795 80.4763L26.4199 83.3738L26.0731 85.6559L23.8447 85.3171L23.8202 85.4782C25.1873 86.7848 25.8606 89.2219 25.4199 92.1215ZM23.4033 91.293C23.995 87.4001 22.5869 85.0985 19.2309 84.5884C15.875 84.0782 13.8465 85.8575 13.2548 89.7504C12.6957 93.4286 13.959 95.5983 16.9392 96.0513L17.9862 96.2105C21.02 96.6716 22.8401 94.9981 23.4033 91.293Z" fill="#0D2B39"/>
<path d="M28.2015 76.937L10.6977 68.8516L11.6884 66.7068L18.5667 69.884L18.635 69.7361C17.6246 68.1027 17.7126 65.84 18.8399 63.3993C20.5367 59.726 23.6269 58.2817 26.7825 59.7393L34.4989 63.3037L33.4968 65.4732L26.1748 62.091C23.8821 61.032 21.9586 61.699 20.5693 64.7067C19.1458 67.7883 19.6875 70.3718 22.3007 71.5789L29.2036 74.7675L28.2015 76.937Z" fill="#0D2B39"/>
<path d="M42.8971 52.4019C39.6491 56.199 35.4997 57.0809 31.9503 54.0447C28.4009 51.0085 28.647 46.752 31.8244 43.0374C35.0195 39.3023 39.1396 38.5382 42.6477 41.5391C42.9573 41.8039 43.0604 41.8922 43.146 42.0011L34.0726 52.6081C36.4132 54.4673 38.981 53.805 41.2935 51.1016C43.1823 48.8936 43.5458 47.1318 42.7134 45.3476L44.408 43.3666C45.9863 45.8245 45.5803 49.2652 42.8971 52.4019ZM39.9772 42.614C37.8049 41.1846 35.5464 41.8614 33.3928 44.379C31.2568 46.876 30.8705 49.333 32.5808 51.2606L39.9772 42.614Z" fill="#0D2B39"/>
<path d="M57.9611 38.6246C54.227 41.1013 50.0255 40.5642 47.5488 36.8302C45.0721 33.0961 46.1888 29.0315 49.9908 26.5098C52.2765 24.9937 54.6125 24.4871 56.5165 25.1468L56.6523 25.0568L52.4644 18.7428L54.4559 17.4219L65.1133 33.4897L63.1897 34.7656L61.9438 32.8872L61.808 32.9773C61.7584 34.8677 60.4052 37.0035 57.9611 38.6246ZM57.2202 36.5742C60.5017 34.3977 61.261 31.8086 59.3847 28.9797C57.5084 26.1509 54.8278 25.8433 51.5463 28.0198C48.4459 30.0762 47.6871 32.4696 49.3532 34.9816L49.9386 35.8642C51.6348 38.4215 54.0972 38.6457 57.2202 36.5742Z" fill="#0D2B39"/>
<path d="M80.9519 17.3898C80.822 16.7327 80.8906 16.2393 81.1576 15.9097C81.4246 15.5801 81.7801 15.3714 82.2241 15.2836C82.6859 15.1923 83.103 15.2483 83.4753 15.4515C83.8654 15.6512 84.1254 16.0796 84.2554 16.7367C84.3818 17.3761 84.3043 17.8713 84.0231 18.2221C83.7596 18.5695 83.3969 18.7888 82.9351 18.8801C82.4911 18.9679 82.0812 18.9013 81.7053 18.6803C81.3295 18.4594 81.0783 18.0292 80.9519 17.3898Z" fill="#0D2B39"/>
</svg>
