<svg width="165" height="45" viewBox="0 0 165 45" fill="none" xmlns="http://www.w3.org/2000/svg">
<mask id="path-1-inside-1_1438_4253" fill="white">
<path d="M14.1929 6.99253L13.7315 6.66798C13.2799 6.33857 13.1807 6.32162 12.7094 6.76486C12.7094 6.76486 12.3472 7.10637 11.8014 7.61985C11.531 7.87417 11.2109 8.17451 10.8711 8.4918C10.5312 8.81394 10.169 9.15545 9.80429 9.49454C9.43961 9.83847 9.0774 10.18 8.73505 10.4997C8.39517 10.8194 8.07762 11.1173 7.80721 11.3741C7.26143 11.8851 6.89922 12.2242 6.89922 12.2242C6.4229 12.6723 6.44027 12.7716 6.83224 13.2924L7.23166 13.8083L7.03319 14.002C7.03319 14.002 6.39561 13.3723 5.76796 12.7377C5.14527 12.0886 4.53498 11.4395 4.53498 11.4395L4.74337 11.2554L5.25442 11.672C5.75804 12.0668 5.86471 12.0983 6.34351 11.6599C6.34351 11.6599 6.5271 11.4903 6.79999 11.2409C7.0704 10.9938 7.4326 10.662 7.79233 10.3302C8.15205 9.99833 8.51425 9.66893 8.78466 9.41703C9.05507 9.16756 9.23866 9.00528 9.23866 9.00528C9.23866 9.00528 8.98561 8.74127 8.611 8.34405C8.42494 8.14302 8.20911 7.90566 7.97839 7.65618C7.75263 7.40186 7.50951 7.13059 7.26639 6.85932C7.02823 6.58078 6.78758 6.30466 6.56927 6.04792C6.35096 5.78876 6.15001 5.54171 5.97387 5.33341C5.63151 4.90713 5.40079 4.62132 5.40079 4.62132C5.40079 4.62132 5.20481 4.77149 4.90959 4.99432C4.61933 5.222 4.22487 5.51507 3.83538 5.8154C3.44341 6.10848 3.05392 6.40881 2.76118 6.63164C2.46348 6.85205 2.26501 7.00222 2.26501 7.00222C1.74899 7.40186 1.74899 7.49148 2.08391 8.05098L2.42874 8.60806L2.21043 8.78729C2.21043 8.78729 1.64232 8.09458 1.08661 7.39702C0.535862 6.68977 0 5.97768 0 5.97768L0.230718 5.8154L0.689674 6.27802C1.15111 6.73095 1.25035 6.76486 1.77628 6.37733C1.77628 6.37733 2.1757 6.07941 2.78102 5.63617C3.08121 5.41334 3.43101 5.15176 3.80809 4.87564C4.18518 4.59468 4.58708 4.29676 4.98649 3.99885C5.39087 3.70093 5.79277 3.40302 6.16986 3.12448C6.54446 2.84594 6.89674 2.58678 7.19692 2.36395C7.79977 1.91586 8.20167 1.62037 8.20167 1.62037C8.72512 1.23526 8.7276 1.14564 8.46215 0.65396L8.20415 0.159856L8.4299 0C8.4299 0 8.8839 0.600674 9.35278 1.19893C9.82414 1.79234 10.3005 2.37606 10.3005 2.37606L10.0871 2.55045L9.6604 2.17502C9.25106 1.80687 9.14935 1.77538 8.63333 2.16776C8.63333 2.16776 7.92877 2.70788 7.21677 3.24316C6.50725 3.78086 5.80021 4.32098 5.80021 4.32098C5.80021 4.32098 6.02597 4.60437 6.3708 5.02339C6.54198 5.23168 6.74293 5.47631 6.96124 5.73305C7.17708 5.98979 7.41524 6.26107 7.6534 6.53476C7.89156 6.80603 8.1322 7.07731 8.35796 7.32678C8.5862 7.57625 8.79955 7.8112 8.98561 8.00738C9.35774 8.40218 9.60582 8.66377 9.60582 8.66377C9.60582 8.66377 10.2608 8.06551 10.9157 7.46484C11.5706 6.86416 12.2206 6.26349 12.2206 6.26349C12.6994 5.82751 12.6994 5.74274 12.3769 5.2777L12.0668 4.80782L12.2752 4.62616C12.2752 4.62616 12.7887 5.1784 13.3172 5.72579C13.8481 6.26591 14.3889 6.79877 14.3889 6.79877L14.1929 6.99253ZM10.6428 17.4607C10.2459 17.1265 9.94322 16.7462 9.73979 16.3345C9.53884 15.9252 9.43713 15.4916 9.43464 15.0484C9.43713 14.6051 9.53884 14.1546 9.73979 13.7138C9.94322 13.273 10.2459 12.8418 10.6453 12.4301C11.0348 12.0353 11.4615 11.7253 11.9031 11.5049C12.3447 11.282 12.8011 11.1464 13.2477 11.0931C13.6943 11.0398 14.1358 11.0713 14.5477 11.19C14.962 11.3038 15.349 11.5024 15.6913 11.7931C16.0461 12.0862 16.314 12.4277 16.4976 12.8007C16.6837 13.1712 16.7854 13.5782 16.7953 14.002C16.8127 14.4307 16.7407 14.8788 16.5745 15.3317C16.4108 15.7847 16.1503 16.2424 15.8005 16.6929C15.4532 17.1265 15.0612 17.4753 14.6395 17.7344C14.2152 17.9912 13.7612 18.1535 13.2998 18.2261C12.8359 18.2915 12.3645 18.2625 11.9155 18.1389C11.4615 18.0106 11.0298 17.7853 10.6428 17.4607ZM10.9901 17.1604C11.3325 17.4438 11.6972 17.6109 12.0693 17.6812C12.4414 17.749 12.8185 17.7248 13.1832 17.6254C13.5479 17.5237 13.8952 17.3518 14.2127 17.1289C14.5328 16.9061 14.823 16.6324 15.0637 16.3345C15.3291 16.0099 15.5574 15.6466 15.7335 15.2736C15.9096 14.8958 16.0337 14.5082 16.0808 14.128C16.1329 13.7453 16.1131 13.3699 15.994 13.0259C15.8799 12.6844 15.674 12.3671 15.3465 12.0958C15.0413 11.8391 14.7089 11.6889 14.3641 11.6284C14.0168 11.563 13.6546 11.5872 13.2973 11.6768C12.9376 11.764 12.5853 11.919 12.2529 12.1225C11.9229 12.3235 11.6128 12.5754 11.3449 12.854C11.0571 13.1567 10.7991 13.5007 10.5957 13.8615C10.3972 14.2249 10.2508 14.6124 10.1888 14.9975C10.1268 15.385 10.1466 15.775 10.2707 16.1407C10.4022 16.5089 10.6304 16.8577 10.9901 17.1604ZM17.2468 22.1862C17.2468 22.1862 16.5547 21.7284 15.8699 21.2586C15.1902 20.7838 14.5154 20.3043 14.5154 20.3043L14.6667 20.1057L15.3167 20.406C15.7707 20.624 15.8501 20.624 16.2148 20.125C16.2148 20.125 16.5299 19.6939 17.0062 19.0424C17.2468 18.7202 17.5222 18.34 17.8199 17.9355C18.1176 17.5286 18.4327 17.095 18.7527 16.6615C19.0702 16.2279 19.3878 15.7919 19.6805 15.3875C19.9807 14.983 20.2586 14.6051 20.4942 14.2757C20.9706 13.629 21.2881 13.1955 21.2881 13.1955L20.5389 12.3938L20.6629 12.2291L22.3053 12.6747L22.3747 12.8297C22.3747 12.8297 22.0274 13.3093 21.5089 14.0359C21.2509 14.3968 20.9507 14.8207 20.6232 15.276C20.3007 15.729 19.9559 16.211 19.6111 16.6954C19.2637 17.1774 18.9189 17.6618 18.5964 18.1147C18.2714 18.5701 17.9687 18.9915 17.7107 19.3548C17.1922 20.079 16.8474 20.561 16.8474 20.561C16.4902 21.0624 16.5299 21.1423 16.8772 21.4838L17.3882 21.9803L17.2468 22.1862ZM25.0515 26.0034L25.4435 26.2698L25.3641 26.4297L23.5804 25.9889L23.4588 25.8096L24.027 24.7536L23.9178 24.6979C23.3869 24.9014 22.8783 25.0079 22.3871 25.0031C21.891 24.991 21.4146 24.865 20.9507 24.6059C20.5463 24.3782 20.2213 24.09 19.9782 23.7606C19.7401 23.4312 19.5863 23.0557 19.5193 22.6561C19.4597 22.2516 19.4821 21.8253 19.6036 21.3797C19.7252 20.9316 19.9385 20.469 20.2437 20.0039C20.5662 19.5147 20.9383 19.1102 21.3377 18.7905C21.7347 18.4708 22.1589 18.2358 22.5906 18.0881C23.0222 17.9427 23.4588 17.8822 23.8856 17.9161C24.3123 17.9452 24.729 18.0663 25.1235 18.2891C25.4262 18.4562 25.7462 18.6863 26.0092 18.9745C26.2771 19.2603 26.4929 19.6043 26.5946 19.9991C26.5946 19.9991 26.9593 19.3185 27.3265 18.6379C27.6936 17.9548 28.0608 17.2742 28.0608 17.2742L27.2049 16.5767L27.3066 16.3999L28.9961 16.6227L29.0854 16.7608C29.0854 16.7608 28.8199 17.2742 28.4156 18.0372C28.2171 18.4175 27.9814 18.8656 27.7309 19.3451C27.4803 19.8223 27.2173 20.3333 26.9494 20.8444C26.6815 21.3554 26.4135 21.8641 26.163 22.3412C25.9124 22.8208 25.6792 23.2665 25.4783 23.6467C25.0788 24.4121 24.8109 24.9232 24.8109 24.9232C24.5182 25.4802 24.5554 25.6449 25.0515 26.0034ZM21.5263 24.2087C21.9232 24.4291 22.3648 24.5308 22.8362 24.5308C23.3075 24.5308 23.8037 24.4266 24.3023 24.2426C24.3023 24.2426 24.6571 23.5862 25.0094 22.9298C25.3617 22.2783 25.7164 21.6219 25.7164 21.6219C26.0687 20.9728 26.1258 20.3793 25.9645 19.8804C25.8082 19.3815 25.4311 18.9721 24.8928 18.6766C24.5976 18.5095 24.28 18.415 23.955 18.3957C23.6251 18.3739 23.2901 18.4247 22.9528 18.5531C22.6154 18.6815 22.278 18.8873 21.953 19.1732C21.6255 19.4541 21.3154 19.8198 21.0276 20.2655C20.8217 20.5901 20.6381 20.9388 20.5116 21.2925C20.3851 21.6461 20.3131 22.007 20.3206 22.3582C20.3305 22.7094 20.4149 23.0509 20.6084 23.3658C20.8019 23.6806 21.0996 23.9664 21.5263 24.2087ZM37.1754 30.5424L37.6046 30.7289L37.5575 30.9009L35.7216 30.8015L35.5703 30.649L35.9251 29.5057L35.806 29.4718C35.3198 29.7697 34.8434 29.9708 34.3597 30.0555C33.8734 30.1379 33.3797 30.1016 32.8712 29.9344C32.4321 29.7843 32.0525 29.5614 31.7523 29.2829C31.4546 29.0044 31.2288 28.6653 31.085 28.2826C30.9485 27.8975 30.8865 27.4736 30.9187 27.0134C30.951 26.5508 31.0676 26.0567 31.2785 25.5408C31.4993 25.0007 31.7846 24.5381 32.117 24.1481C32.4445 23.7606 32.8141 23.453 33.211 23.2301C33.603 23.0025 34.0198 22.862 34.4465 22.8184C34.8682 22.7675 35.3024 22.8087 35.7316 22.9516C36.064 23.0582 36.4212 23.2277 36.7388 23.4602C37.0563 23.6927 37.3367 23.9882 37.5103 24.3564C37.5103 24.3564 37.7386 23.6201 37.9668 22.8814C38.1951 22.1475 38.4208 21.4087 38.4208 21.4087L37.4458 20.888L37.5103 20.6918L39.2147 20.5973L39.3288 20.7184C39.3288 20.7184 39.1651 21.2707 38.9195 22.0966C38.8004 22.5059 38.6565 22.9879 38.5027 23.5038C38.3513 24.0197 38.1876 24.5695 38.0264 25.1218C37.8626 25.674 37.7014 26.2214 37.5476 26.7397C37.3962 27.2556 37.2523 27.7376 37.1308 28.1494C36.8876 28.9753 36.7239 29.5275 36.7239 29.5275C36.5453 30.1282 36.6123 30.2808 37.1754 30.5424ZM33.3624 29.4355C33.794 29.5784 34.2456 29.5929 34.712 29.5082C35.1734 29.421 35.6398 29.2272 36.0938 28.9511C36.0938 28.9511 36.3121 28.2414 36.5329 27.5342C36.7512 26.8221 36.967 26.1148 36.967 26.1148C37.1878 25.41 37.1308 24.819 36.8703 24.3588C36.6197 23.8986 36.1682 23.5644 35.5827 23.3755C35.2627 23.2665 34.9327 23.2326 34.6078 23.2737C34.2828 23.3149 33.9627 23.4287 33.6576 23.6177C33.35 23.8066 33.0597 24.0706 32.7943 24.4097C32.5313 24.7488 32.2956 25.1629 32.1021 25.6546C31.9607 26.0131 31.8515 26.3909 31.7945 26.7591C31.7424 27.1321 31.7399 27.5003 31.8168 27.8418C31.8937 28.1833 32.045 28.5078 32.2956 28.7791C32.5487 29.0528 32.896 29.2781 33.3624 29.4355ZM42.1421 23.1647C41.7972 23.0848 41.6087 22.7651 41.698 22.3969C41.7873 22.0264 42.1024 21.8156 42.4373 21.8931C42.7772 21.9658 42.9682 22.2855 42.8863 22.6585C42.8045 23.0243 42.4894 23.2374 42.1421 23.1647ZM41.889 32.1749C41.889 32.1749 41.0679 32.0126 40.2517 31.8358C39.438 31.6517 38.6242 31.4579 38.6242 31.4579L38.6887 31.2181L39.4057 31.2569C39.9168 31.2835 39.9862 31.2545 40.1276 30.6611C40.1276 30.6611 40.2021 30.3413 40.3162 29.8594C40.4303 29.3822 40.5816 28.7428 40.733 28.1033C40.8843 27.4663 41.0356 26.8269 41.1497 26.3498C41.2614 25.8678 41.3383 25.5505 41.3383 25.5505L40.2641 25.0976L40.3112 24.9014L42.08 24.7294L42.2264 24.8481C42.2264 24.8481 42.1421 25.2211 42.0156 25.783C41.9535 26.064 41.8791 26.3909 41.8022 26.7397C41.7228 27.0909 41.6385 27.4639 41.5541 27.8393C41.4722 28.2123 41.3879 28.5853 41.3085 28.9365C41.2291 29.2853 41.1572 29.6099 41.0902 29.8933C40.9662 30.4552 40.8843 30.8258 40.8843 30.8258C40.7503 31.424 40.8024 31.4773 41.2738 31.6686L41.9386 31.9351L41.889 32.1749ZM44.4493 31.6977C44.4493 31.6977 45.2977 31.8261 46.1462 31.9448C46.9996 32.0538 47.853 32.1531 47.853 32.1531C48.5154 32.2233 49.0487 32.4219 49.4035 32.7392C49.7632 33.0541 49.9443 33.49 49.9021 34.0326C49.8724 34.4032 49.7285 34.7253 49.4978 34.9966C49.2671 35.2678 48.9421 35.4858 48.5501 35.6505C48.1581 35.8152 47.7016 35.9218 47.2055 35.9727C46.7043 36.0187 46.166 36.0066 45.6152 35.9363C45.1092 35.8685 44.6527 35.7668 44.2657 35.636C43.8787 35.5028 43.5537 35.3429 43.2981 35.1613C42.7896 34.7955 42.5589 34.3354 42.6581 33.8122C42.7201 33.4755 42.8962 33.2139 43.1567 32.9959C43.4123 32.778 43.7521 32.6011 44.1491 32.4437L44.1664 32.3299L43.4073 32.1313L43.3626 31.9327C43.3626 31.9327 43.8439 31.4531 44.3202 30.9784C44.7891 30.4964 45.2506 30.0144 45.2506 30.0144C44.8511 29.7697 44.5559 29.4258 44.3823 29.0116C44.2136 28.5999 44.1615 28.1203 44.2558 27.5971C44.3872 26.8754 44.7668 26.3207 45.3076 25.9768C45.5756 25.8024 45.8857 25.6813 46.2255 25.6159C46.5654 25.5505 46.94 25.5408 47.3419 25.5941C47.9125 25.6643 48.4087 25.8823 48.7684 26.2287L50.309 25.5795L50.4703 25.6667L50.4008 26.5532L48.9594 26.4224C49.3564 26.8826 49.5523 27.5293 49.4854 28.2656C49.4482 28.6362 49.3464 28.968 49.1852 29.2538C49.0214 29.5396 48.7982 29.7794 48.5278 29.9683C48.2549 30.1548 47.9299 30.2905 47.5677 30.3656C47.203 30.4358 46.8036 30.4479 46.3744 30.3922C46.104 30.3559 45.8658 30.2905 45.6351 30.2009L44.4493 31.6977ZM45.0397 27.7134C44.938 28.3092 45.0422 28.8324 45.3176 29.2296C45.5954 29.6268 46.0469 29.8957 46.6299 29.9708C47.2129 30.0459 47.7041 29.903 48.0638 29.5905C48.4211 29.2781 48.6493 28.8009 48.7138 28.2051C48.7758 27.6141 48.6444 27.1006 48.3566 26.7179C48.0787 26.3352 47.6471 26.0833 47.0988 26.0131C46.553 25.938 46.0891 26.0737 45.7368 26.374C45.3821 26.6695 45.1364 27.1321 45.0397 27.7134ZM45.9055 35.5222C46.7143 35.6215 47.4808 35.5367 48.0539 35.2921C48.622 35.0402 48.9991 34.6381 49.0463 34.1101C49.1108 33.415 48.6642 32.9499 47.585 32.8385C47.585 32.8385 46.883 32.761 46.1809 32.6714C45.4813 32.5745 44.7817 32.4704 44.7817 32.4704C44.0573 32.698 43.6504 33.1849 43.5487 33.7734C43.4668 34.2409 43.6678 34.626 44.0821 34.9215C44.5014 35.217 45.134 35.4156 45.9055 35.5222ZM58.2576 33.5458C57.7342 33.57 57.2479 33.4925 56.8113 33.3278C56.3796 33.1655 56.0001 32.916 55.6875 32.5939C55.3774 32.2693 55.1367 31.8745 54.973 31.4167C54.8142 30.9614 54.7323 30.4431 54.7373 29.8763C54.7423 29.3289 54.8365 28.8179 55.0052 28.3601C55.169 27.9023 55.4047 27.5003 55.6974 27.1636C55.9852 26.8269 56.3275 26.5556 56.7121 26.3667C57.0916 26.173 57.5134 26.0615 57.9674 26.0422C58.4288 26.0204 58.8679 26.0882 59.2624 26.2384C59.6593 26.3837 60.0141 26.6138 60.3217 26.9141C60.6343 27.2144 60.8948 27.5899 61.0907 28.0307C61.2892 28.4715 61.4257 28.9777 61.4827 29.5421C61.5348 30.0895 61.4902 30.6054 61.3661 31.0752C61.2346 31.5475 61.0163 31.969 60.731 32.3299C60.4408 32.6883 60.0761 32.9814 59.6618 33.1897C59.24 33.4004 58.7687 33.5215 58.2576 33.5458ZM58.3023 33.0953C58.7464 33.0735 59.1334 32.9499 59.4559 32.7537C59.7734 32.5551 60.0314 32.2839 60.2299 31.969C60.4209 31.6517 60.5549 31.2932 60.6318 30.9178C60.7037 30.5424 60.7285 30.15 60.6963 29.7722C60.6591 29.3556 60.5723 28.9414 60.4383 28.5514C60.3043 28.1566 60.1207 27.7933 59.8875 27.4809C59.6593 27.1709 59.3814 26.9093 59.0565 26.7397C58.7315 26.5653 58.3593 26.4709 57.9326 26.4902C57.5307 26.5072 57.1809 26.621 56.8832 26.8075C56.5855 26.9916 56.3375 27.2508 56.1415 27.556C55.9405 27.8587 55.7892 28.2099 55.69 28.5781C55.5907 28.9462 55.5386 29.3362 55.5386 29.7165C55.5411 30.1306 55.5957 30.5545 55.7048 30.9541C55.8115 31.3538 55.9777 31.7316 56.2035 32.0538C56.4292 32.3759 56.7145 32.6472 57.0668 32.8337C57.4166 33.0153 57.826 33.1146 58.3023 33.0953ZM66.499 25.0782C66.9034 25.0007 67.2978 25.0128 67.6625 25.1048C68.0297 25.192 68.3745 25.364 68.6871 25.6135C68.9997 25.8605 69.28 26.1851 69.5132 26.5823C69.7489 26.9795 69.9399 27.4518 70.0714 27.9944C70.2078 28.5563 70.2426 29.0988 70.193 29.6026C70.1384 30.104 69.992 30.5666 69.7663 30.9711C69.5355 31.378 69.2279 31.7219 68.8484 31.9884C68.4663 32.2548 68.0173 32.4413 67.5186 32.5333C67.1291 32.6011 66.685 32.6254 66.2484 32.5672C65.8118 32.5067 65.3901 32.3662 65.0427 32.107C65.0427 32.107 65.132 32.7223 65.2263 33.335C65.3181 33.9502 65.4124 34.5679 65.4124 34.5679C65.4992 35.1661 65.6034 35.2146 66.1045 35.2121L67.0348 35.2291L67.077 35.4689C67.077 35.4689 66.169 35.6118 65.261 35.745C64.3506 35.8637 63.4401 35.9727 63.4401 35.9727L63.4103 35.7305L64.1298 35.5149C64.6334 35.3599 64.6954 35.3066 64.6135 34.7059C64.6135 34.7059 64.5416 34.1973 64.4349 33.4368C64.3853 33.0541 64.3258 32.6108 64.2588 32.1313C64.1943 31.6565 64.1248 31.1479 64.0554 30.6417C63.9834 30.133 63.9139 29.6268 63.8494 29.1497C63.7825 28.6725 63.7229 28.2293 63.6708 27.8466C63.5641 27.0861 63.4947 26.5799 63.4947 26.5799L62.3113 26.5363L62.2865 26.3304L63.9065 25.5529L64.0727 25.6231L64.2439 26.7882L64.3605 26.7712C64.626 26.3037 64.9286 25.9235 65.2809 25.6401C65.6307 25.3543 66.0301 25.1629 66.499 25.0782ZM67.4343 32.0901C67.8064 32.0247 68.1463 31.8842 68.4316 31.6808C68.7193 31.4773 68.9525 31.2133 69.1287 30.8887C69.3023 30.5666 69.409 30.1888 69.4462 29.7625C69.4834 29.3386 69.4487 28.8639 69.3296 28.3504C69.2453 27.975 69.1212 27.602 68.9625 27.2629C68.8012 26.9214 68.6052 26.6114 68.3621 26.3595C68.1215 26.1076 67.8362 25.9114 67.5012 25.8024C67.1738 25.6885 66.7917 25.6546 66.3526 25.7394C65.9482 25.8048 65.5786 25.9961 65.2437 26.2747C64.9063 26.5556 64.6011 26.9238 64.3332 27.3598C64.3332 27.3598 64.4424 28.0937 64.5515 28.8276C64.6632 29.559 64.7723 30.2953 64.7723 30.2953C64.879 31.022 65.2015 31.5282 65.6753 31.8261C66.1467 32.124 66.7595 32.2039 67.4343 32.0901ZM79.4167 28.6047L79.8807 28.503L79.9452 28.6677L78.4021 29.6535L78.1887 29.6147L77.7819 28.4909L77.6628 28.5321C77.4569 29.0528 77.1914 29.4888 76.854 29.8376C76.5092 30.1863 76.0949 30.4431 75.5813 30.6005C75.1323 30.7386 74.6957 30.7773 74.2864 30.724C73.877 30.6732 73.49 30.5303 73.1427 30.305C72.7978 30.0749 72.4902 29.7697 72.2372 29.3798C71.9816 28.9898 71.7782 28.5224 71.6343 27.9895C71.4855 27.4276 71.4309 26.885 71.4607 26.3813C71.4904 25.8799 71.6021 25.4173 71.7807 25.0079C71.9643 24.5962 72.2149 24.2426 72.5299 23.9592C72.84 23.671 73.2146 23.4554 73.6463 23.3197C73.9812 23.218 74.3707 23.1454 74.7652 23.1502C75.1621 23.1526 75.5689 23.2277 75.9336 23.4287C75.9336 23.4287 75.6707 22.7045 75.4052 21.9779C75.1398 21.2537 74.8743 20.5247 74.8743 20.5247L73.7703 20.6676L73.7058 20.4762L75.0157 19.4154L75.1844 19.4444C75.1844 19.4444 75.3878 19.9821 75.6905 20.7911C75.8418 21.1907 76.0229 21.663 76.214 22.1668C76.405 22.6706 76.6084 23.2059 76.8118 23.7436C77.0153 24.2813 77.2162 24.819 77.4073 25.3228C77.5958 25.829 77.7744 26.2989 77.9258 26.701C78.2334 27.5051 78.4368 28.0428 78.4368 28.0428C78.6601 28.6314 78.8089 28.7161 79.4167 28.6047ZM75.6731 29.9199C76.1098 29.7818 76.4869 29.5348 76.8069 29.1957C77.1244 28.8566 77.3824 28.4303 77.5809 27.9459C77.5809 27.9459 77.3254 27.2484 77.0723 26.5508C76.8168 25.8508 76.5638 25.1533 76.5638 25.1533C76.3107 24.4605 75.9063 24.0173 75.4176 23.7969C74.9363 23.5741 74.3707 23.5644 73.7852 23.7485C73.4577 23.8502 73.1724 24.0125 72.9368 24.2353C72.6986 24.4557 72.5101 24.7318 72.3786 25.0612C72.2446 25.3906 72.1702 25.7733 72.1652 26.1972C72.1578 26.6235 72.2223 27.0933 72.3637 27.5996C72.4679 27.9726 72.6068 28.3383 72.7879 28.6701C72.969 28.9995 73.1898 29.2974 73.4602 29.53C73.7306 29.7601 74.0482 29.932 74.4154 30.0071C74.785 30.0822 75.2018 30.0604 75.6731 29.9199ZM86.5938 25.3059L86.8419 25.3712C86.7551 25.8775 86.5367 26.2311 86.1572 26.4224C85.5345 26.7228 85.1748 26.4612 84.8324 25.8145L84.7208 25.8678C84.5893 26.3183 84.438 26.6985 84.1973 27.0231C83.9542 27.3452 83.6292 27.6044 83.1454 27.8175C82.684 28.0162 82.1878 28.1203 81.7487 28.0452C81.3171 27.9653 80.9449 27.7061 80.7291 27.1878C80.548 26.7664 80.5654 26.3401 80.7663 25.9356C80.9598 25.5311 81.3319 25.1412 81.8604 24.7851C81.8604 24.7851 82.3193 24.4727 82.7758 24.1505C83.2273 23.8308 83.6739 23.5062 83.6739 23.5062L82.9718 22.0966C82.6716 21.5008 82.3714 21.1689 82.0241 21.0333C81.6793 20.8977 81.2923 20.9631 80.8259 21.1762C80.3991 21.3651 79.9972 21.68 79.6995 22.0482L80.2131 23.2059L79.4341 23.528L79.2654 23.4263C79.1711 22.9807 79.2257 22.426 79.4812 21.9028C79.6053 21.6437 79.7814 21.3894 80.0171 21.1641C80.2478 20.934 80.5356 20.733 80.8953 20.5707C81.5602 20.2607 82.0762 20.2437 82.5054 20.4472C82.9346 20.6482 83.2744 21.0745 83.5771 21.6606C83.5771 21.6606 83.7011 21.9004 83.8847 22.2637C84.0733 22.6222 84.3214 23.1018 84.5694 23.5838C84.8175 24.0657 85.0656 24.5453 85.2517 24.9062C85.4377 25.2695 85.5618 25.5117 85.5618 25.5117C85.7379 25.8484 85.9017 25.9307 86.1671 25.8C86.3209 25.7224 86.4673 25.5626 86.5938 25.3059ZM83.0884 27.2387C83.5076 27.0522 83.8153 26.8003 84.0534 26.483C84.2891 26.1608 84.4528 25.7782 84.5893 25.3277L83.8599 23.8744L82.5575 24.7948C81.9894 25.1775 81.642 25.5093 81.4684 25.8169C81.2972 26.1294 81.2997 26.4273 81.4361 26.7397C81.7214 27.3961 82.4161 27.5317 83.0884 27.2387ZM91.0196 22.4962L91.2901 22.5713C91.2032 23.155 90.9129 23.8357 90.263 24.2208C89.8536 24.4533 89.4765 24.555 89.1243 24.4751C88.7794 24.3879 88.4619 24.1166 88.1667 23.6128C88.1667 23.6128 88.0029 23.3246 87.7548 22.8983C87.5043 22.472 87.1743 21.9004 86.8444 21.3312C86.5144 20.7596 86.1845 20.188 85.9364 19.7617C85.6908 19.3306 85.5246 19.0448 85.5246 19.0448L84.6538 19.5171L84.5546 19.3354C84.5546 19.3354 84.7059 18.8413 84.8547 18.3472C84.9962 17.8507 85.1351 17.3566 85.1351 17.3566L85.3187 17.3203L85.9041 18.3109C85.9041 18.3109 86.3135 18.0324 86.7154 17.7514C87.1148 17.4704 87.5117 17.1822 87.5117 17.1822L87.7151 17.2137L87.926 17.6472C87.926 17.6472 87.482 17.9185 87.0354 18.1825C86.5888 18.4441 86.1398 18.7008 86.1398 18.7008C86.1398 18.7008 86.2986 18.9721 86.5417 19.3766C86.7824 19.7811 87.1024 20.3236 87.4249 20.8613C87.7449 21.4039 88.0674 21.944 88.3056 22.3485C88.5487 22.753 88.7075 23.0218 88.7075 23.0218C89.2012 23.8526 89.5882 23.918 90.1935 23.5644C90.5954 23.327 90.8534 22.954 91.0196 22.4962ZM96.3386 18.042L96.5966 18.0251C96.676 18.524 96.6239 19.0763 96.4279 19.5922C96.2269 20.1081 95.8771 20.5828 95.376 20.9461C94.927 21.2561 94.468 21.4548 94.014 21.5444C93.5551 21.6291 93.106 21.6122 92.6743 21.5008C92.2452 21.3845 91.8383 21.1738 91.4637 20.8831C91.0941 20.5925 90.7542 20.2171 90.4614 19.7763C90.1365 19.287 89.9107 18.7977 89.7767 18.323C89.6403 17.8531 89.5956 17.3929 89.6328 16.9642C89.6701 16.5404 89.7916 16.1456 89.9926 15.7944C90.1886 15.4432 90.4664 15.1356 90.8261 14.8885C91.104 14.6899 91.4166 14.5543 91.7416 14.4864C92.069 14.4186 92.4114 14.4138 92.7513 14.4767C93.0961 14.5397 93.4409 14.6705 93.7659 14.874C94.0959 15.0774 94.4085 15.3487 94.6863 15.6999L94.731 15.8912C94.731 15.8912 94.4854 16.0753 94.1182 16.3539C93.7486 16.6276 93.2499 16.9884 92.7513 17.3469C92.2476 17.6981 91.7391 18.0469 91.357 18.3036C90.9725 18.5579 90.7145 18.7275 90.7145 18.7275C90.7939 18.8704 90.8757 18.9891 90.9651 19.1223C91.2578 19.5558 91.5778 19.9119 91.9078 20.1904C92.2402 20.4641 92.59 20.6603 92.9522 20.7693C93.3144 20.8783 93.689 20.8977 94.0636 20.8274C94.4382 20.7523 94.8153 20.5876 95.1874 20.3261C95.5844 20.0403 95.8622 19.7133 96.0458 19.3354C96.2269 18.9552 96.3138 18.5265 96.3386 18.042ZM91.0122 15.3099C90.4862 15.6708 90.2382 16.1504 90.1836 16.6808C90.129 17.2137 90.2704 17.7998 90.5359 18.3714C90.5359 18.3714 90.7467 18.2237 91.0593 18.0033C91.3719 17.7805 91.7837 17.4777 92.1956 17.1749C92.6024 16.8673 93.0093 16.5549 93.3095 16.3224C93.6096 16.085 93.8106 15.9252 93.8106 15.9252C93.4062 15.4383 92.92 15.1356 92.4263 15.0266C91.9375 14.9176 91.4389 15.0048 91.0122 15.3099ZM96.8918 10.0589L97.0654 9.89902L97.5988 10.4464L97.5839 10.6353L96.7057 11.4298C96.6561 11.718 96.6437 12.0813 96.6586 12.4567C96.671 12.8297 96.7132 13.2148 96.7727 13.5491C96.7727 13.5491 97.3904 14.2418 98.0082 14.9369C98.6234 15.6297 99.2411 16.3224 99.2411 16.3224C99.6406 16.7753 99.7274 16.7559 100.382 16.3732L100.968 16.0196L101.134 16.2013C101.134 16.2013 100.467 16.785 99.7944 17.359C99.1097 17.9234 98.4225 18.4804 98.4225 18.4804L98.2612 18.2891L98.7226 17.7514C99.0476 17.3663 99.0377 17.2621 98.6507 16.8165C98.6507 16.8165 98.4349 16.5694 98.1099 16.194C97.7849 15.821 97.3557 15.3196 96.9216 14.8207C96.4899 14.3217 96.0557 13.8228 95.7332 13.4498C95.4082 13.0744 95.1899 12.8249 95.1899 12.8249L94.1802 13.3989L94.0487 13.2415L94.9617 11.7543L95.1453 11.7107L96.2716 12.9775L96.3584 12.9024C96.2716 12.3163 96.2046 11.7858 96.2641 11.3135C96.3137 10.8412 96.4924 10.4222 96.8918 10.0589ZM105.734 9.30077L105.987 9.23295C106.163 9.7101 106.22 10.2599 106.13 10.8049C106.034 11.3474 105.791 11.8827 105.366 12.3308C104.987 12.7207 104.577 13.0017 104.146 13.1785C103.717 13.3481 103.273 13.4159 102.826 13.3868C102.382 13.3529 101.94 13.227 101.514 13.0114C101.092 12.7958 100.685 12.4931 100.31 12.1152C99.8961 11.6962 99.5785 11.2602 99.3528 10.8194C99.1245 10.3834 98.9881 9.94262 98.941 9.51634C98.8938 9.09247 98.9335 8.68072 99.0625 8.29803C99.1841 7.91777 99.3974 7.56414 99.6976 7.25169C99.9333 7.00222 100.211 6.8133 100.519 6.68493C100.824 6.55414 101.161 6.48632 101.509 6.48147C101.858 6.47905 102.221 6.54203 102.583 6.67766C102.945 6.81572 103.307 7.02644 103.647 7.31709L103.729 7.49633C103.729 7.49633 103.523 7.72642 103.218 8.06794C102.91 8.40703 102.496 8.85511 102.074 9.29835C101.65 9.73917 101.221 10.1776 100.898 10.5045C100.573 10.8267 100.35 11.0398 100.35 11.0398C100.459 11.1633 100.558 11.2675 100.678 11.3789C101.052 11.7471 101.434 12.0377 101.814 12.2484C102.193 12.4543 102.575 12.5803 102.952 12.619C103.33 12.6578 103.699 12.6045 104.056 12.464C104.409 12.3211 104.746 12.0886 105.056 11.7592C105.394 11.4056 105.6 11.0326 105.704 10.6256C105.805 10.2187 105.808 9.78034 105.734 9.30077ZM99.9655 7.62712C99.524 8.08247 99.3726 8.60079 99.4247 9.13123C99.4793 9.66408 99.7348 10.2115 100.112 10.7225C100.112 10.7225 100.286 10.5385 100.549 10.2623C100.809 9.9838 101.154 9.60838 101.499 9.23538C101.836 8.85753 102.171 8.47484 102.422 8.18904C102.667 7.89839 102.833 7.70705 102.833 7.70705C102.345 7.30256 101.804 7.09668 101.3 7.08457C100.797 7.07004 100.328 7.24927 99.9655 7.62712ZM109.636 5.5732L109.919 5.54413C110.063 6.12059 110.05 6.86174 109.594 7.45031C109.306 7.81604 108.991 8.04856 108.636 8.097C108.279 8.14302 107.882 8.00738 107.418 7.64407C107.418 7.64407 107.155 7.43819 106.763 7.13059C106.369 6.82299 105.843 6.41366 105.322 6.0019C104.798 5.59015 104.275 5.18082 103.88 4.87322C103.488 4.56561 103.225 4.35731 103.225 4.35731L102.598 5.11058L102.436 4.98221C102.436 4.98221 102.392 4.46631 102.34 3.95283C102.283 3.44177 102.223 2.93313 102.223 2.93313L102.379 2.83141L103.305 3.53865C103.305 3.53865 103.573 3.13174 103.841 2.72726C104.104 2.32035 104.364 1.9086 104.364 1.9086L104.565 1.865L104.927 2.1944C104.927 2.1944 104.615 2.60131 104.305 3.01064C103.987 3.41513 103.667 3.81477 103.667 3.81477C103.667 3.81477 103.918 4.00854 104.297 4.29919C104.674 4.58741 105.175 4.97494 105.681 5.35763C106.185 5.74274 106.689 6.12785 107.066 6.41608C107.445 6.70673 107.696 6.89807 107.696 6.89807C108.47 7.49148 108.852 7.41397 109.279 6.86901C109.564 6.50327 109.661 6.06246 109.636 5.5732Z"/>
</mask>
<path d="M14.1929 6.99253L13.7315 6.66798C13.2799 6.33857 13.1807 6.32162 12.7094 6.76486C12.7094 6.76486 12.3472 7.10637 11.8014 7.61985C11.531 7.87417 11.2109 8.17451 10.8711 8.4918C10.5312 8.81394 10.169 9.15545 9.80429 9.49454C9.43961 9.83847 9.0774 10.18 8.73505 10.4997C8.39517 10.8194 8.07762 11.1173 7.80721 11.3741C7.26143 11.8851 6.89922 12.2242 6.89922 12.2242C6.4229 12.6723 6.44027 12.7716 6.83224 13.2924L7.23166 13.8083L7.03319 14.002C7.03319 14.002 6.39561 13.3723 5.76796 12.7377C5.14527 12.0886 4.53498 11.4395 4.53498 11.4395L4.74337 11.2554L5.25442 11.672C5.75804 12.0668 5.86471 12.0983 6.34351 11.6599C6.34351 11.6599 6.5271 11.4903 6.79999 11.2409C7.0704 10.9938 7.4326 10.662 7.79233 10.3302C8.15205 9.99833 8.51425 9.66893 8.78466 9.41703C9.05507 9.16756 9.23866 9.00528 9.23866 9.00528C9.23866 9.00528 8.98561 8.74127 8.611 8.34405C8.42494 8.14302 8.20911 7.90566 7.97839 7.65618C7.75263 7.40186 7.50951 7.13059 7.26639 6.85932C7.02823 6.58078 6.78758 6.30466 6.56927 6.04792C6.35096 5.78876 6.15001 5.54171 5.97387 5.33341C5.63151 4.90713 5.40079 4.62132 5.40079 4.62132C5.40079 4.62132 5.20481 4.77149 4.90959 4.99432C4.61933 5.222 4.22487 5.51507 3.83538 5.8154C3.44341 6.10848 3.05392 6.40881 2.76118 6.63164C2.46348 6.85205 2.26501 7.00222 2.26501 7.00222C1.74899 7.40186 1.74899 7.49148 2.08391 8.05098L2.42874 8.60806L2.21043 8.78729C2.21043 8.78729 1.64232 8.09458 1.08661 7.39702C0.535862 6.68977 0 5.97768 0 5.97768L0.230718 5.8154L0.689674 6.27802C1.15111 6.73095 1.25035 6.76486 1.77628 6.37733C1.77628 6.37733 2.1757 6.07941 2.78102 5.63617C3.08121 5.41334 3.43101 5.15176 3.80809 4.87564C4.18518 4.59468 4.58708 4.29676 4.98649 3.99885C5.39087 3.70093 5.79277 3.40302 6.16986 3.12448C6.54446 2.84594 6.89674 2.58678 7.19692 2.36395C7.79977 1.91586 8.20167 1.62037 8.20167 1.62037C8.72512 1.23526 8.7276 1.14564 8.46215 0.65396L8.20415 0.159856L8.4299 0C8.4299 0 8.8839 0.600674 9.35278 1.19893C9.82414 1.79234 10.3005 2.37606 10.3005 2.37606L10.0871 2.55045L9.6604 2.17502C9.25106 1.80687 9.14935 1.77538 8.63333 2.16776C8.63333 2.16776 7.92877 2.70788 7.21677 3.24316C6.50725 3.78086 5.80021 4.32098 5.80021 4.32098C5.80021 4.32098 6.02597 4.60437 6.3708 5.02339C6.54198 5.23168 6.74293 5.47631 6.96124 5.73305C7.17708 5.98979 7.41524 6.26107 7.6534 6.53476C7.89156 6.80603 8.1322 7.07731 8.35796 7.32678C8.5862 7.57625 8.79955 7.8112 8.98561 8.00738C9.35774 8.40218 9.60582 8.66377 9.60582 8.66377C9.60582 8.66377 10.2608 8.06551 10.9157 7.46484C11.5706 6.86416 12.2206 6.26349 12.2206 6.26349C12.6994 5.82751 12.6994 5.74274 12.3769 5.2777L12.0668 4.80782L12.2752 4.62616C12.2752 4.62616 12.7887 5.1784 13.3172 5.72579C13.8481 6.26591 14.3889 6.79877 14.3889 6.79877L14.1929 6.99253ZM10.6428 17.4607C10.2459 17.1265 9.94322 16.7462 9.73979 16.3345C9.53884 15.9252 9.43713 15.4916 9.43464 15.0484C9.43713 14.6051 9.53884 14.1546 9.73979 13.7138C9.94322 13.273 10.2459 12.8418 10.6453 12.4301C11.0348 12.0353 11.4615 11.7253 11.9031 11.5049C12.3447 11.282 12.8011 11.1464 13.2477 11.0931C13.6943 11.0398 14.1358 11.0713 14.5477 11.19C14.962 11.3038 15.349 11.5024 15.6913 11.7931C16.0461 12.0862 16.314 12.4277 16.4976 12.8007C16.6837 13.1712 16.7854 13.5782 16.7953 14.002C16.8127 14.4307 16.7407 14.8788 16.5745 15.3317C16.4108 15.7847 16.1503 16.2424 15.8005 16.6929C15.4532 17.1265 15.0612 17.4753 14.6395 17.7344C14.2152 17.9912 13.7612 18.1535 13.2998 18.2261C12.8359 18.2915 12.3645 18.2625 11.9155 18.1389C11.4615 18.0106 11.0298 17.7853 10.6428 17.4607ZM10.9901 17.1604C11.3325 17.4438 11.6972 17.6109 12.0693 17.6812C12.4414 17.749 12.8185 17.7248 13.1832 17.6254C13.5479 17.5237 13.8952 17.3518 14.2127 17.1289C14.5328 16.9061 14.823 16.6324 15.0637 16.3345C15.3291 16.0099 15.5574 15.6466 15.7335 15.2736C15.9096 14.8958 16.0337 14.5082 16.0808 14.128C16.1329 13.7453 16.1131 13.3699 15.994 13.0259C15.8799 12.6844 15.674 12.3671 15.3465 12.0958C15.0413 11.8391 14.7089 11.6889 14.3641 11.6284C14.0168 11.563 13.6546 11.5872 13.2973 11.6768C12.9376 11.764 12.5853 11.919 12.2529 12.1225C11.9229 12.3235 11.6128 12.5754 11.3449 12.854C11.0571 13.1567 10.7991 13.5007 10.5957 13.8615C10.3972 14.2249 10.2508 14.6124 10.1888 14.9975C10.1268 15.385 10.1466 15.775 10.2707 16.1407C10.4022 16.5089 10.6304 16.8577 10.9901 17.1604ZM17.2468 22.1862C17.2468 22.1862 16.5547 21.7284 15.8699 21.2586C15.1902 20.7838 14.5154 20.3043 14.5154 20.3043L14.6667 20.1057L15.3167 20.406C15.7707 20.624 15.8501 20.624 16.2148 20.125C16.2148 20.125 16.5299 19.6939 17.0062 19.0424C17.2468 18.7202 17.5222 18.34 17.8199 17.9355C18.1176 17.5286 18.4327 17.095 18.7527 16.6615C19.0702 16.2279 19.3878 15.7919 19.6805 15.3875C19.9807 14.983 20.2586 14.6051 20.4942 14.2757C20.9706 13.629 21.2881 13.1955 21.2881 13.1955L20.5389 12.3938L20.6629 12.2291L22.3053 12.6747L22.3747 12.8297C22.3747 12.8297 22.0274 13.3093 21.5089 14.0359C21.2509 14.3968 20.9507 14.8207 20.6232 15.276C20.3007 15.729 19.9559 16.211 19.6111 16.6954C19.2637 17.1774 18.9189 17.6618 18.5964 18.1147C18.2714 18.5701 17.9687 18.9915 17.7107 19.3548C17.1922 20.079 16.8474 20.561 16.8474 20.561C16.4902 21.0624 16.5299 21.1423 16.8772 21.4838L17.3882 21.9803L17.2468 22.1862ZM25.0515 26.0034L25.4435 26.2698L25.3641 26.4297L23.5804 25.9889L23.4588 25.8096L24.027 24.7536L23.9178 24.6979C23.3869 24.9014 22.8783 25.0079 22.3871 25.0031C21.891 24.991 21.4146 24.865 20.9507 24.6059C20.5463 24.3782 20.2213 24.09 19.9782 23.7606C19.7401 23.4312 19.5863 23.0557 19.5193 22.6561C19.4597 22.2516 19.4821 21.8253 19.6036 21.3797C19.7252 20.9316 19.9385 20.469 20.2437 20.0039C20.5662 19.5147 20.9383 19.1102 21.3377 18.7905C21.7347 18.4708 22.1589 18.2358 22.5906 18.0881C23.0222 17.9427 23.4588 17.8822 23.8856 17.9161C24.3123 17.9452 24.729 18.0663 25.1235 18.2891C25.4262 18.4562 25.7462 18.6863 26.0092 18.9745C26.2771 19.2603 26.4929 19.6043 26.5946 19.9991C26.5946 19.9991 26.9593 19.3185 27.3265 18.6379C27.6936 17.9548 28.0608 17.2742 28.0608 17.2742L27.2049 16.5767L27.3066 16.3999L28.9961 16.6227L29.0854 16.7608C29.0854 16.7608 28.8199 17.2742 28.4156 18.0372C28.2171 18.4175 27.9814 18.8656 27.7309 19.3451C27.4803 19.8223 27.2173 20.3333 26.9494 20.8444C26.6815 21.3554 26.4135 21.8641 26.163 22.3412C25.9124 22.8208 25.6792 23.2665 25.4783 23.6467C25.0788 24.4121 24.8109 24.9232 24.8109 24.9232C24.5182 25.4802 24.5554 25.6449 25.0515 26.0034ZM21.5263 24.2087C21.9232 24.4291 22.3648 24.5308 22.8362 24.5308C23.3075 24.5308 23.8037 24.4266 24.3023 24.2426C24.3023 24.2426 24.6571 23.5862 25.0094 22.9298C25.3617 22.2783 25.7164 21.6219 25.7164 21.6219C26.0687 20.9728 26.1258 20.3793 25.9645 19.8804C25.8082 19.3815 25.4311 18.9721 24.8928 18.6766C24.5976 18.5095 24.28 18.415 23.955 18.3957C23.6251 18.3739 23.2901 18.4247 22.9528 18.5531C22.6154 18.6815 22.278 18.8873 21.953 19.1732C21.6255 19.4541 21.3154 19.8198 21.0276 20.2655C20.8217 20.5901 20.6381 20.9388 20.5116 21.2925C20.3851 21.6461 20.3131 22.007 20.3206 22.3582C20.3305 22.7094 20.4149 23.0509 20.6084 23.3658C20.8019 23.6806 21.0996 23.9664 21.5263 24.2087ZM37.1754 30.5424L37.6046 30.7289L37.5575 30.9009L35.7216 30.8015L35.5703 30.649L35.9251 29.5057L35.806 29.4718C35.3198 29.7697 34.8434 29.9708 34.3597 30.0555C33.8734 30.1379 33.3797 30.1016 32.8712 29.9344C32.4321 29.7843 32.0525 29.5614 31.7523 29.2829C31.4546 29.0044 31.2288 28.6653 31.085 28.2826C30.9485 27.8975 30.8865 27.4736 30.9187 27.0134C30.951 26.5508 31.0676 26.0567 31.2785 25.5408C31.4993 25.0007 31.7846 24.5381 32.117 24.1481C32.4445 23.7606 32.8141 23.453 33.211 23.2301C33.603 23.0025 34.0198 22.862 34.4465 22.8184C34.8682 22.7675 35.3024 22.8087 35.7316 22.9516C36.064 23.0582 36.4212 23.2277 36.7388 23.4602C37.0563 23.6927 37.3367 23.9882 37.5103 24.3564C37.5103 24.3564 37.7386 23.6201 37.9668 22.8814C38.1951 22.1475 38.4208 21.4087 38.4208 21.4087L37.4458 20.888L37.5103 20.6918L39.2147 20.5973L39.3288 20.7184C39.3288 20.7184 39.1651 21.2707 38.9195 22.0966C38.8004 22.5059 38.6565 22.9879 38.5027 23.5038C38.3513 24.0197 38.1876 24.5695 38.0264 25.1218C37.8626 25.674 37.7014 26.2214 37.5476 26.7397C37.3962 27.2556 37.2523 27.7376 37.1308 28.1494C36.8876 28.9753 36.7239 29.5275 36.7239 29.5275C36.5453 30.1282 36.6123 30.2808 37.1754 30.5424ZM33.3624 29.4355C33.794 29.5784 34.2456 29.5929 34.712 29.5082C35.1734 29.421 35.6398 29.2272 36.0938 28.9511C36.0938 28.9511 36.3121 28.2414 36.5329 27.5342C36.7512 26.8221 36.967 26.1148 36.967 26.1148C37.1878 25.41 37.1308 24.819 36.8703 24.3588C36.6197 23.8986 36.1682 23.5644 35.5827 23.3755C35.2627 23.2665 34.9327 23.2326 34.6078 23.2737C34.2828 23.3149 33.9627 23.4287 33.6576 23.6177C33.35 23.8066 33.0597 24.0706 32.7943 24.4097C32.5313 24.7488 32.2956 25.1629 32.1021 25.6546C31.9607 26.0131 31.8515 26.3909 31.7945 26.7591C31.7424 27.1321 31.7399 27.5003 31.8168 27.8418C31.8937 28.1833 32.045 28.5078 32.2956 28.7791C32.5487 29.0528 32.896 29.2781 33.3624 29.4355ZM42.1421 23.1647C41.7972 23.0848 41.6087 22.7651 41.698 22.3969C41.7873 22.0264 42.1024 21.8156 42.4373 21.8931C42.7772 21.9658 42.9682 22.2855 42.8863 22.6585C42.8045 23.0243 42.4894 23.2374 42.1421 23.1647ZM41.889 32.1749C41.889 32.1749 41.0679 32.0126 40.2517 31.8358C39.438 31.6517 38.6242 31.4579 38.6242 31.4579L38.6887 31.2181L39.4057 31.2569C39.9168 31.2835 39.9862 31.2545 40.1276 30.6611C40.1276 30.6611 40.2021 30.3413 40.3162 29.8594C40.4303 29.3822 40.5816 28.7428 40.733 28.1033C40.8843 27.4663 41.0356 26.8269 41.1497 26.3498C41.2614 25.8678 41.3383 25.5505 41.3383 25.5505L40.2641 25.0976L40.3112 24.9014L42.08 24.7294L42.2264 24.8481C42.2264 24.8481 42.1421 25.2211 42.0156 25.783C41.9535 26.064 41.8791 26.3909 41.8022 26.7397C41.7228 27.0909 41.6385 27.4639 41.5541 27.8393C41.4722 28.2123 41.3879 28.5853 41.3085 28.9365C41.2291 29.2853 41.1572 29.6099 41.0902 29.8933C40.9662 30.4552 40.8843 30.8258 40.8843 30.8258C40.7503 31.424 40.8024 31.4773 41.2738 31.6686L41.9386 31.9351L41.889 32.1749ZM44.4493 31.6977C44.4493 31.6977 45.2977 31.8261 46.1462 31.9448C46.9996 32.0538 47.853 32.1531 47.853 32.1531C48.5154 32.2233 49.0487 32.4219 49.4035 32.7392C49.7632 33.0541 49.9443 33.49 49.9021 34.0326C49.8724 34.4032 49.7285 34.7253 49.4978 34.9966C49.2671 35.2678 48.9421 35.4858 48.5501 35.6505C48.1581 35.8152 47.7016 35.9218 47.2055 35.9727C46.7043 36.0187 46.166 36.0066 45.6152 35.9363C45.1092 35.8685 44.6527 35.7668 44.2657 35.636C43.8787 35.5028 43.5537 35.3429 43.2981 35.1613C42.7896 34.7955 42.5589 34.3354 42.6581 33.8122C42.7201 33.4755 42.8962 33.2139 43.1567 32.9959C43.4123 32.778 43.7521 32.6011 44.1491 32.4437L44.1664 32.3299L43.4073 32.1313L43.3626 31.9327C43.3626 31.9327 43.8439 31.4531 44.3202 30.9784C44.7891 30.4964 45.2506 30.0144 45.2506 30.0144C44.8511 29.7697 44.5559 29.4258 44.3823 29.0116C44.2136 28.5999 44.1615 28.1203 44.2558 27.5971C44.3872 26.8754 44.7668 26.3207 45.3076 25.9768C45.5756 25.8024 45.8857 25.6813 46.2255 25.6159C46.5654 25.5505 46.94 25.5408 47.3419 25.5941C47.9125 25.6643 48.4087 25.8823 48.7684 26.2287L50.309 25.5795L50.4703 25.6667L50.4008 26.5532L48.9594 26.4224C49.3564 26.8826 49.5523 27.5293 49.4854 28.2656C49.4482 28.6362 49.3464 28.968 49.1852 29.2538C49.0214 29.5396 48.7982 29.7794 48.5278 29.9683C48.2549 30.1548 47.9299 30.2905 47.5677 30.3656C47.203 30.4358 46.8036 30.4479 46.3744 30.3922C46.104 30.3559 45.8658 30.2905 45.6351 30.2009L44.4493 31.6977ZM45.0397 27.7134C44.938 28.3092 45.0422 28.8324 45.3176 29.2296C45.5954 29.6268 46.0469 29.8957 46.6299 29.9708C47.2129 30.0459 47.7041 29.903 48.0638 29.5905C48.4211 29.2781 48.6493 28.8009 48.7138 28.2051C48.7758 27.6141 48.6444 27.1006 48.3566 26.7179C48.0787 26.3352 47.6471 26.0833 47.0988 26.0131C46.553 25.938 46.0891 26.0737 45.7368 26.374C45.3821 26.6695 45.1364 27.1321 45.0397 27.7134ZM45.9055 35.5222C46.7143 35.6215 47.4808 35.5367 48.0539 35.2921C48.622 35.0402 48.9991 34.6381 49.0463 34.1101C49.1108 33.415 48.6642 32.9499 47.585 32.8385C47.585 32.8385 46.883 32.761 46.1809 32.6714C45.4813 32.5745 44.7817 32.4704 44.7817 32.4704C44.0573 32.698 43.6504 33.1849 43.5487 33.7734C43.4668 34.2409 43.6678 34.626 44.0821 34.9215C44.5014 35.217 45.134 35.4156 45.9055 35.5222ZM58.2576 33.5458C57.7342 33.57 57.2479 33.4925 56.8113 33.3278C56.3796 33.1655 56.0001 32.916 55.6875 32.5939C55.3774 32.2693 55.1367 31.8745 54.973 31.4167C54.8142 30.9614 54.7323 30.4431 54.7373 29.8763C54.7423 29.3289 54.8365 28.8179 55.0052 28.3601C55.169 27.9023 55.4047 27.5003 55.6974 27.1636C55.9852 26.8269 56.3275 26.5556 56.7121 26.3667C57.0916 26.173 57.5134 26.0615 57.9674 26.0422C58.4288 26.0204 58.8679 26.0882 59.2624 26.2384C59.6593 26.3837 60.0141 26.6138 60.3217 26.9141C60.6343 27.2144 60.8948 27.5899 61.0907 28.0307C61.2892 28.4715 61.4257 28.9777 61.4827 29.5421C61.5348 30.0895 61.4902 30.6054 61.3661 31.0752C61.2346 31.5475 61.0163 31.969 60.731 32.3299C60.4408 32.6883 60.0761 32.9814 59.6618 33.1897C59.24 33.4004 58.7687 33.5215 58.2576 33.5458ZM58.3023 33.0953C58.7464 33.0735 59.1334 32.9499 59.4559 32.7537C59.7734 32.5551 60.0314 32.2839 60.2299 31.969C60.4209 31.6517 60.5549 31.2932 60.6318 30.9178C60.7037 30.5424 60.7285 30.15 60.6963 29.7722C60.6591 29.3556 60.5723 28.9414 60.4383 28.5514C60.3043 28.1566 60.1207 27.7933 59.8875 27.4809C59.6593 27.1709 59.3814 26.9093 59.0565 26.7397C58.7315 26.5653 58.3593 26.4709 57.9326 26.4902C57.5307 26.5072 57.1809 26.621 56.8832 26.8075C56.5855 26.9916 56.3375 27.2508 56.1415 27.556C55.9405 27.8587 55.7892 28.2099 55.69 28.5781C55.5907 28.9462 55.5386 29.3362 55.5386 29.7165C55.5411 30.1306 55.5957 30.5545 55.7048 30.9541C55.8115 31.3538 55.9777 31.7316 56.2035 32.0538C56.4292 32.3759 56.7145 32.6472 57.0668 32.8337C57.4166 33.0153 57.826 33.1146 58.3023 33.0953ZM66.499 25.0782C66.9034 25.0007 67.2978 25.0128 67.6625 25.1048C68.0297 25.192 68.3745 25.364 68.6871 25.6135C68.9997 25.8605 69.28 26.1851 69.5132 26.5823C69.7489 26.9795 69.9399 27.4518 70.0714 27.9944C70.2078 28.5563 70.2426 29.0988 70.193 29.6026C70.1384 30.104 69.992 30.5666 69.7663 30.9711C69.5355 31.378 69.2279 31.7219 68.8484 31.9884C68.4663 32.2548 68.0173 32.4413 67.5186 32.5333C67.1291 32.6011 66.685 32.6254 66.2484 32.5672C65.8118 32.5067 65.3901 32.3662 65.0427 32.107C65.0427 32.107 65.132 32.7223 65.2263 33.335C65.3181 33.9502 65.4124 34.5679 65.4124 34.5679C65.4992 35.1661 65.6034 35.2146 66.1045 35.2121L67.0348 35.2291L67.077 35.4689C67.077 35.4689 66.169 35.6118 65.261 35.745C64.3506 35.8637 63.4401 35.9727 63.4401 35.9727L63.4103 35.7305L64.1298 35.5149C64.6334 35.3599 64.6954 35.3066 64.6135 34.7059C64.6135 34.7059 64.5416 34.1973 64.4349 33.4368C64.3853 33.0541 64.3258 32.6108 64.2588 32.1313C64.1943 31.6565 64.1248 31.1479 64.0554 30.6417C63.9834 30.133 63.9139 29.6268 63.8494 29.1497C63.7825 28.6725 63.7229 28.2293 63.6708 27.8466C63.5641 27.0861 63.4947 26.5799 63.4947 26.5799L62.3113 26.5363L62.2865 26.3304L63.9065 25.5529L64.0727 25.6231L64.2439 26.7882L64.3605 26.7712C64.626 26.3037 64.9286 25.9235 65.2809 25.6401C65.6307 25.3543 66.0301 25.1629 66.499 25.0782ZM67.4343 32.0901C67.8064 32.0247 68.1463 31.8842 68.4316 31.6808C68.7193 31.4773 68.9525 31.2133 69.1287 30.8887C69.3023 30.5666 69.409 30.1888 69.4462 29.7625C69.4834 29.3386 69.4487 28.8639 69.3296 28.3504C69.2453 27.975 69.1212 27.602 68.9625 27.2629C68.8012 26.9214 68.6052 26.6114 68.3621 26.3595C68.1215 26.1076 67.8362 25.9114 67.5012 25.8024C67.1738 25.6885 66.7917 25.6546 66.3526 25.7394C65.9482 25.8048 65.5786 25.9961 65.2437 26.2747C64.9063 26.5556 64.6011 26.9238 64.3332 27.3598C64.3332 27.3598 64.4424 28.0937 64.5515 28.8276C64.6632 29.559 64.7723 30.2953 64.7723 30.2953C64.879 31.022 65.2015 31.5282 65.6753 31.8261C66.1467 32.124 66.7595 32.2039 67.4343 32.0901ZM79.4167 28.6047L79.8807 28.503L79.9452 28.6677L78.4021 29.6535L78.1887 29.6147L77.7819 28.4909L77.6628 28.5321C77.4569 29.0528 77.1914 29.4888 76.854 29.8376C76.5092 30.1863 76.0949 30.4431 75.5813 30.6005C75.1323 30.7386 74.6957 30.7773 74.2864 30.724C73.877 30.6732 73.49 30.5303 73.1427 30.305C72.7978 30.0749 72.4902 29.7697 72.2372 29.3798C71.9816 28.9898 71.7782 28.5224 71.6343 27.9895C71.4855 27.4276 71.4309 26.885 71.4607 26.3813C71.4904 25.8799 71.6021 25.4173 71.7807 25.0079C71.9643 24.5962 72.2149 24.2426 72.5299 23.9592C72.84 23.671 73.2146 23.4554 73.6463 23.3197C73.9812 23.218 74.3707 23.1454 74.7652 23.1502C75.1621 23.1526 75.5689 23.2277 75.9336 23.4287C75.9336 23.4287 75.6707 22.7045 75.4052 21.9779C75.1398 21.2537 74.8743 20.5247 74.8743 20.5247L73.7703 20.6676L73.7058 20.4762L75.0157 19.4154L75.1844 19.4444C75.1844 19.4444 75.3878 19.9821 75.6905 20.7911C75.8418 21.1907 76.0229 21.663 76.214 22.1668C76.405 22.6706 76.6084 23.2059 76.8118 23.7436C77.0153 24.2813 77.2162 24.819 77.4073 25.3228C77.5958 25.829 77.7744 26.2989 77.9258 26.701C78.2334 27.5051 78.4368 28.0428 78.4368 28.0428C78.6601 28.6314 78.8089 28.7161 79.4167 28.6047ZM75.6731 29.9199C76.1098 29.7818 76.4869 29.5348 76.8069 29.1957C77.1244 28.8566 77.3824 28.4303 77.5809 27.9459C77.5809 27.9459 77.3254 27.2484 77.0723 26.5508C76.8168 25.8508 76.5638 25.1533 76.5638 25.1533C76.3107 24.4605 75.9063 24.0173 75.4176 23.7969C74.9363 23.5741 74.3707 23.5644 73.7852 23.7485C73.4577 23.8502 73.1724 24.0125 72.9368 24.2353C72.6986 24.4557 72.5101 24.7318 72.3786 25.0612C72.2446 25.3906 72.1702 25.7733 72.1652 26.1972C72.1578 26.6235 72.2223 27.0933 72.3637 27.5996C72.4679 27.9726 72.6068 28.3383 72.7879 28.6701C72.969 28.9995 73.1898 29.2974 73.4602 29.53C73.7306 29.7601 74.0482 29.932 74.4154 30.0071C74.785 30.0822 75.2018 30.0604 75.6731 29.9199ZM86.5938 25.3059L86.8419 25.3712C86.7551 25.8775 86.5367 26.2311 86.1572 26.4224C85.5345 26.7228 85.1748 26.4612 84.8324 25.8145L84.7208 25.8678C84.5893 26.3183 84.438 26.6985 84.1973 27.0231C83.9542 27.3452 83.6292 27.6044 83.1454 27.8175C82.684 28.0162 82.1878 28.1203 81.7487 28.0452C81.3171 27.9653 80.9449 27.7061 80.7291 27.1878C80.548 26.7664 80.5654 26.3401 80.7663 25.9356C80.9598 25.5311 81.3319 25.1412 81.8604 24.7851C81.8604 24.7851 82.3193 24.4727 82.7758 24.1505C83.2273 23.8308 83.6739 23.5062 83.6739 23.5062L82.9718 22.0966C82.6716 21.5008 82.3714 21.1689 82.0241 21.0333C81.6793 20.8977 81.2923 20.9631 80.8259 21.1762C80.3991 21.3651 79.9972 21.68 79.6995 22.0482L80.2131 23.2059L79.4341 23.528L79.2654 23.4263C79.1711 22.9807 79.2257 22.426 79.4812 21.9028C79.6053 21.6437 79.7814 21.3894 80.0171 21.1641C80.2478 20.934 80.5356 20.733 80.8953 20.5707C81.5602 20.2607 82.0762 20.2437 82.5054 20.4472C82.9346 20.6482 83.2744 21.0745 83.5771 21.6606C83.5771 21.6606 83.7011 21.9004 83.8847 22.2637C84.0733 22.6222 84.3214 23.1018 84.5694 23.5838C84.8175 24.0657 85.0656 24.5453 85.2517 24.9062C85.4377 25.2695 85.5618 25.5117 85.5618 25.5117C85.7379 25.8484 85.9017 25.9307 86.1671 25.8C86.3209 25.7224 86.4673 25.5626 86.5938 25.3059ZM83.0884 27.2387C83.5076 27.0522 83.8153 26.8003 84.0534 26.483C84.2891 26.1608 84.4528 25.7782 84.5893 25.3277L83.8599 23.8744L82.5575 24.7948C81.9894 25.1775 81.642 25.5093 81.4684 25.8169C81.2972 26.1294 81.2997 26.4273 81.4361 26.7397C81.7214 27.3961 82.4161 27.5317 83.0884 27.2387ZM91.0196 22.4962L91.2901 22.5713C91.2032 23.155 90.9129 23.8357 90.263 24.2208C89.8536 24.4533 89.4765 24.555 89.1243 24.4751C88.7794 24.3879 88.4619 24.1166 88.1667 23.6128C88.1667 23.6128 88.0029 23.3246 87.7548 22.8983C87.5043 22.472 87.1743 21.9004 86.8444 21.3312C86.5144 20.7596 86.1845 20.188 85.9364 19.7617C85.6908 19.3306 85.5246 19.0448 85.5246 19.0448L84.6538 19.5171L84.5546 19.3354C84.5546 19.3354 84.7059 18.8413 84.8547 18.3472C84.9962 17.8507 85.1351 17.3566 85.1351 17.3566L85.3187 17.3203L85.9041 18.3109C85.9041 18.3109 86.3135 18.0324 86.7154 17.7514C87.1148 17.4704 87.5117 17.1822 87.5117 17.1822L87.7151 17.2137L87.926 17.6472C87.926 17.6472 87.482 17.9185 87.0354 18.1825C86.5888 18.4441 86.1398 18.7008 86.1398 18.7008C86.1398 18.7008 86.2986 18.9721 86.5417 19.3766C86.7824 19.7811 87.1024 20.3236 87.4249 20.8613C87.7449 21.4039 88.0674 21.944 88.3056 22.3485C88.5487 22.753 88.7075 23.0218 88.7075 23.0218C89.2012 23.8526 89.5882 23.918 90.1935 23.5644C90.5954 23.327 90.8534 22.954 91.0196 22.4962ZM96.3386 18.042L96.5966 18.0251C96.676 18.524 96.6239 19.0763 96.4279 19.5922C96.2269 20.1081 95.8771 20.5828 95.376 20.9461C94.927 21.2561 94.468 21.4548 94.014 21.5444C93.5551 21.6291 93.106 21.6122 92.6743 21.5008C92.2452 21.3845 91.8383 21.1738 91.4637 20.8831C91.0941 20.5925 90.7542 20.2171 90.4614 19.7763C90.1365 19.287 89.9107 18.7977 89.7767 18.323C89.6403 17.8531 89.5956 17.3929 89.6328 16.9642C89.6701 16.5404 89.7916 16.1456 89.9926 15.7944C90.1886 15.4432 90.4664 15.1356 90.8261 14.8885C91.104 14.6899 91.4166 14.5543 91.7416 14.4864C92.069 14.4186 92.4114 14.4138 92.7513 14.4767C93.0961 14.5397 93.4409 14.6705 93.7659 14.874C94.0959 15.0774 94.4085 15.3487 94.6863 15.6999L94.731 15.8912C94.731 15.8912 94.4854 16.0753 94.1182 16.3539C93.7486 16.6276 93.2499 16.9884 92.7513 17.3469C92.2476 17.6981 91.7391 18.0469 91.357 18.3036C90.9725 18.5579 90.7145 18.7275 90.7145 18.7275C90.7939 18.8704 90.8757 18.9891 90.9651 19.1223C91.2578 19.5558 91.5778 19.9119 91.9078 20.1904C92.2402 20.4641 92.59 20.6603 92.9522 20.7693C93.3144 20.8783 93.689 20.8977 94.0636 20.8274C94.4382 20.7523 94.8153 20.5876 95.1874 20.3261C95.5844 20.0403 95.8622 19.7133 96.0458 19.3354C96.2269 18.9552 96.3138 18.5265 96.3386 18.042ZM91.0122 15.3099C90.4862 15.6708 90.2382 16.1504 90.1836 16.6808C90.129 17.2137 90.2704 17.7998 90.5359 18.3714C90.5359 18.3714 90.7467 18.2237 91.0593 18.0033C91.3719 17.7805 91.7837 17.4777 92.1956 17.1749C92.6024 16.8673 93.0093 16.5549 93.3095 16.3224C93.6096 16.085 93.8106 15.9252 93.8106 15.9252C93.4062 15.4383 92.92 15.1356 92.4263 15.0266C91.9375 14.9176 91.4389 15.0048 91.0122 15.3099ZM96.8918 10.0589L97.0654 9.89902L97.5988 10.4464L97.5839 10.6353L96.7057 11.4298C96.6561 11.718 96.6437 12.0813 96.6586 12.4567C96.671 12.8297 96.7132 13.2148 96.7727 13.5491C96.7727 13.5491 97.3904 14.2418 98.0082 14.9369C98.6234 15.6297 99.2411 16.3224 99.2411 16.3224C99.6406 16.7753 99.7274 16.7559 100.382 16.3732L100.968 16.0196L101.134 16.2013C101.134 16.2013 100.467 16.785 99.7944 17.359C99.1097 17.9234 98.4225 18.4804 98.4225 18.4804L98.2612 18.2891L98.7226 17.7514C99.0476 17.3663 99.0377 17.2621 98.6507 16.8165C98.6507 16.8165 98.4349 16.5694 98.1099 16.194C97.7849 15.821 97.3557 15.3196 96.9216 14.8207C96.4899 14.3217 96.0557 13.8228 95.7332 13.4498C95.4082 13.0744 95.1899 12.8249 95.1899 12.8249L94.1802 13.3989L94.0487 13.2415L94.9617 11.7543L95.1453 11.7107L96.2716 12.9775L96.3584 12.9024C96.2716 12.3163 96.2046 11.7858 96.2641 11.3135C96.3137 10.8412 96.4924 10.4222 96.8918 10.0589ZM105.734 9.30077L105.987 9.23295C106.163 9.7101 106.22 10.2599 106.13 10.8049C106.034 11.3474 105.791 11.8827 105.366 12.3308C104.987 12.7207 104.577 13.0017 104.146 13.1785C103.717 13.3481 103.273 13.4159 102.826 13.3868C102.382 13.3529 101.94 13.227 101.514 13.0114C101.092 12.7958 100.685 12.4931 100.31 12.1152C99.8961 11.6962 99.5785 11.2602 99.3528 10.8194C99.1245 10.3834 98.9881 9.94262 98.941 9.51634C98.8938 9.09247 98.9335 8.68072 99.0625 8.29803C99.1841 7.91777 99.3974 7.56414 99.6976 7.25169C99.9333 7.00222 100.211 6.8133 100.519 6.68493C100.824 6.55414 101.161 6.48632 101.509 6.48147C101.858 6.47905 102.221 6.54203 102.583 6.67766C102.945 6.81572 103.307 7.02644 103.647 7.31709L103.729 7.49633C103.729 7.49633 103.523 7.72642 103.218 8.06794C102.91 8.40703 102.496 8.85511 102.074 9.29835C101.65 9.73917 101.221 10.1776 100.898 10.5045C100.573 10.8267 100.35 11.0398 100.35 11.0398C100.459 11.1633 100.558 11.2675 100.678 11.3789C101.052 11.7471 101.434 12.0377 101.814 12.2484C102.193 12.4543 102.575 12.5803 102.952 12.619C103.33 12.6578 103.699 12.6045 104.056 12.464C104.409 12.3211 104.746 12.0886 105.056 11.7592C105.394 11.4056 105.6 11.0326 105.704 10.6256C105.805 10.2187 105.808 9.78034 105.734 9.30077ZM99.9655 7.62712C99.524 8.08247 99.3726 8.60079 99.4247 9.13123C99.4793 9.66408 99.7348 10.2115 100.112 10.7225C100.112 10.7225 100.286 10.5385 100.549 10.2623C100.809 9.9838 101.154 9.60838 101.499 9.23538C101.836 8.85753 102.171 8.47484 102.422 8.18904C102.667 7.89839 102.833 7.70705 102.833 7.70705C102.345 7.30256 101.804 7.09668 101.3 7.08457C100.797 7.07004 100.328 7.24927 99.9655 7.62712ZM109.636 5.5732L109.919 5.54413C110.063 6.12059 110.05 6.86174 109.594 7.45031C109.306 7.81604 108.991 8.04856 108.636 8.097C108.279 8.14302 107.882 8.00738 107.418 7.64407C107.418 7.64407 107.155 7.43819 106.763 7.13059C106.369 6.82299 105.843 6.41366 105.322 6.0019C104.798 5.59015 104.275 5.18082 103.88 4.87322C103.488 4.56561 103.225 4.35731 103.225 4.35731L102.598 5.11058L102.436 4.98221C102.436 4.98221 102.392 4.46631 102.34 3.95283C102.283 3.44177 102.223 2.93313 102.223 2.93313L102.379 2.83141L103.305 3.53865C103.305 3.53865 103.573 3.13174 103.841 2.72726C104.104 2.32035 104.364 1.9086 104.364 1.9086L104.565 1.865L104.927 2.1944C104.927 2.1944 104.615 2.60131 104.305 3.01064C103.987 3.41513 103.667 3.81477 103.667 3.81477C103.667 3.81477 103.918 4.00854 104.297 4.29919C104.674 4.58741 105.175 4.97494 105.681 5.35763C106.185 5.74274 106.689 6.12785 107.066 6.41608C107.445 6.70673 107.696 6.89807 107.696 6.89807C108.47 7.49148 108.852 7.41397 109.279 6.86901C109.564 6.50327 109.661 6.06246 109.636 5.5732Z" fill="#0D2B39" stroke="#0D2B39" stroke-width="0.386775" mask="url(#path-1-inside-1_1438_4253)"/>
</svg>
