<svg width="165" height="45" viewBox="0 0 165 45" fill="none" xmlns="http://www.w3.org/2000/svg">
<mask id="path-1-inside-1_1438_4254" fill="white">
<path d="M5.41228 33.7725C5.41228 33.7725 5.95659 34.1471 6.50326 34.5168C7.04993 34.8889 7.59423 35.2611 7.59423 35.2611L7.40727 35.48L6.2808 35.0835C5.48564 34.8038 5.18746 34.8622 4.48696 35.6575L3.1901 37.1461C3.1901 37.1461 3.59951 37.4842 4.21244 37.9901C4.52246 38.2406 4.87744 38.5398 5.26082 38.856C5.64657 39.1746 6.05598 39.5127 6.46539 39.8533C6.8748 40.1913 7.28658 40.5246 7.6676 40.8456C8.05098 41.1618 8.40832 41.4586 8.71361 41.7115C9.33127 42.215 9.73832 42.558 9.73832 42.558C10.2235 42.9593 10.3323 42.9374 10.7157 42.5677L11.3073 41.9912L11.518 42.1664C11.518 42.1664 10.9547 42.8669 10.4033 43.5747C9.85665 44.2825 9.31707 45 9.31707 45L9.10409 44.8322L9.51823 44.1098C9.79275 43.6331 9.78092 43.5358 9.29104 43.1344C9.29104 43.1344 8.87926 42.7988 8.25923 42.2977C7.95395 42.0448 7.59187 41.7529 7.20612 41.4391C6.82037 41.1229 6.40859 40.7897 5.99682 40.454C5.58267 40.1184 5.17326 39.7827 4.78515 39.4689C4.3994 39.1552 4.03732 38.8633 3.72967 38.6079C3.10964 38.1069 2.70022 37.7712 2.70022 37.7712L1.57612 39.4033C0.984481 40.2765 0.99158 40.5927 1.42939 41.3224L2.05889 42.3707L1.8956 42.5993C1.8956 42.5993 1.41992 42.1372 0.946617 41.675C0.473308 41.208 0 40.7459 0 40.7459C0 40.7459 0.321849 40.2935 0.809357 39.6246C1.05074 39.2914 1.33946 38.9022 1.64948 38.4887C1.96423 38.0752 2.29791 37.6374 2.63396 37.1996C2.97474 36.7642 3.31789 36.3337 3.63974 35.93C3.96159 35.5238 4.26687 35.1516 4.52719 34.833C5.05493 34.1982 5.41228 33.7725 5.41228 33.7725ZM7.89952 32.8725C7.6392 33.1693 7.24872 33.2033 6.9742 32.9455C6.69731 32.6901 6.69021 32.2912 6.95527 31.9921C7.22032 31.6905 7.6108 31.6613 7.88295 31.9191C8.1551 32.1769 8.15984 32.5758 7.89952 32.8725ZM15.366 37.6861C15.366 37.6861 14.8737 38.2309 14.3815 38.7782C13.8987 39.3303 13.4136 39.8873 13.4136 39.8873L13.2337 39.7219L13.5485 39.1625C13.7804 38.7684 13.7827 38.6955 13.3402 38.2844C13.3402 38.2844 13.1035 38.0655 12.7462 37.7299C12.3912 37.4015 11.9179 36.9588 11.4422 36.5186C10.9666 36.0783 10.4909 35.6356 10.1335 35.3049C9.77618 34.9716 9.5419 34.7503 9.5419 34.7503L8.61421 35.5286L8.46512 35.3948L9.22005 33.6801L9.40227 33.6022C9.40227 33.6022 9.67679 33.8625 10.0909 34.2517C10.2992 34.4462 10.5382 34.6749 10.7962 34.9181C11.0541 35.1613 11.331 35.4216 11.6055 35.6819C11.8824 35.9397 12.1546 36.2024 12.4125 36.4456C12.6705 36.6888 12.9119 36.9126 13.1201 37.1096C13.5343 37.4988 13.8064 37.759 13.8064 37.759C14.2466 38.1725 14.3152 38.1628 14.6773 37.8928L15.1908 37.5134L15.366 37.6861ZM18.0094 34.9132C18.0094 34.9132 17.4935 35.4362 16.9823 35.964C16.4759 36.4967 15.9718 37.0318 15.9718 37.0318L15.7967 36.8591L16.1303 36.3118C16.3788 35.9275 16.3883 35.857 15.96 35.4265C15.96 35.4265 15.5908 35.0543 15.0299 34.49C14.753 34.2103 14.4288 33.8844 14.0809 33.5317C13.733 33.1815 13.3615 32.8069 12.9899 32.4323C12.6184 32.0577 12.2445 31.6807 11.899 31.3329C11.5511 30.9826 11.2269 30.6543 10.9453 30.3721C10.3891 29.8103 10.0176 29.4406 10.0176 29.4406L9.01652 30.1849L8.87216 30.0438L9.73595 28.3047L9.91344 28.239C9.91344 28.239 10.3229 28.6598 10.9358 29.2849C11.2387 29.5987 11.5984 29.9635 11.9818 30.3575C12.3652 30.7467 12.7722 31.1626 13.1793 31.581C13.5887 31.9994 13.9981 32.4153 14.3791 32.8069C14.7625 33.2009 15.1198 33.5658 15.4251 33.8771C16.0381 34.5071 16.4451 34.923 16.4451 34.923C16.8711 35.3559 16.9468 35.3365 17.3089 35.0884L17.839 34.7357L18.0094 34.9132ZM26.5408 26.8088L27.1064 26.5315L27.2555 26.731C27.2555 26.731 26.678 27.1785 26.1053 27.6358C25.5326 28.0955 24.9694 28.5601 24.9694 28.5601L24.8179 28.3655L25.2202 27.8669C25.5113 27.5166 25.5066 27.4242 25.0546 26.8283C25.0546 26.8283 24.5126 26.1181 23.9707 25.4103C23.4335 24.7 22.8916 23.9898 22.8916 23.9898C22.546 23.5374 22.184 23.2431 21.7935 23.1604C21.4006 23.0752 20.9794 23.1993 20.5179 23.5836C20.2055 23.8414 19.9973 24.1455 19.8553 24.52C19.7133 24.8946 19.6376 25.3324 19.5879 25.8724C19.6991 25.9891 19.8198 26.1108 19.9405 26.2543C19.9405 26.2543 20.5321 26.9742 21.1238 27.6917C21.7154 28.4117 22.3047 29.1292 22.3047 29.1292C22.7827 29.7081 22.8797 29.7203 23.2631 29.5062L23.8169 29.1998L23.9731 29.3944C23.9731 29.3944 23.4146 29.8687 22.8632 30.3503C22.3141 30.8343 21.7674 31.3256 21.7674 31.3256L21.6089 31.1383L21.9899 30.6227C22.2668 30.2603 22.2573 30.1654 21.7793 29.5914C21.7793 29.5914 21.2066 28.9055 20.6362 28.2244C20.0659 27.5409 19.4932 26.855 19.4932 26.855C19.1288 26.4172 18.7572 26.1375 18.3786 26.0597C17.9975 25.9794 17.6023 26.1059 17.1906 26.4805C16.8734 26.7699 16.6676 27.0983 16.535 27.4972C16.4049 27.8936 16.3457 28.3558 16.3244 28.8982C16.3244 28.8982 16.5066 29.1049 16.7835 29.409C17.0557 29.713 17.4225 30.1168 17.7869 30.5254C18.1514 30.9267 18.5182 31.3329 18.7903 31.6394C19.0649 31.941 19.2471 32.1453 19.2471 32.1453C19.6541 32.5953 19.7228 32.5904 20.1014 32.3496L20.6457 32.0188L20.809 32.2037C20.809 32.2037 20.2694 32.7047 19.7393 33.2106C19.214 33.719 18.6886 34.2322 18.6886 34.2322L18.5206 34.0522L18.8779 33.522C19.1382 33.1498 19.1524 33.0769 18.743 32.6293C18.743 32.6293 18.5229 32.3885 18.1916 32.0285C17.865 31.6686 17.4272 31.1894 16.987 30.7127C16.5492 30.2311 16.1114 29.7495 15.7825 29.3895C15.4512 29.0271 15.2334 28.7911 15.2334 28.7911L14.2466 29.4868L14.1093 29.3433L14.9991 27.6942L15.1861 27.6334L15.9789 28.5139L16.0523 28.4458C16.0144 27.9398 16.0736 27.4364 16.2226 26.9839C16.3741 26.5291 16.6155 26.1302 16.9468 25.8286C17.3231 25.4857 17.7041 25.2984 18.0851 25.257C18.4661 25.2157 18.8448 25.3227 19.2258 25.5732L19.3062 25.5075C19.2897 24.9773 19.3701 24.469 19.5382 24.0238C19.7086 23.5812 19.9689 23.1993 20.3002 22.922C20.8445 22.472 21.3841 22.292 21.9 22.3723C22.4159 22.4574 22.9081 22.8053 23.3625 23.4133C23.3625 23.4133 23.921 24.1576 24.4819 24.9019C25.0404 25.6486 25.6012 26.3905 25.6012 26.3905C26.0509 26.9937 26.1527 27.0083 26.5408 26.8088ZM31.4774 21.7059L31.7164 21.7156C31.7614 22.2166 31.688 22.7493 31.501 23.2309C31.3117 23.7125 30.9993 24.1479 30.5568 24.4617C30.1663 24.7389 29.7616 24.9092 29.3593 24.9822C28.9546 25.0551 28.5476 25.0332 28.15 24.9214C27.7477 24.8119 27.362 24.6149 26.9928 24.3376C26.6283 24.0628 26.2852 23.7076 25.9775 23.282C25.6415 22.8101 25.4025 22.3334 25.251 21.8615C25.1019 21.3921 25.0475 20.9275 25.0806 20.4848C25.1161 20.047 25.2439 19.6311 25.4569 19.2565C25.6675 18.8844 25.9681 18.556 26.3443 18.286C26.6449 18.072 26.9715 17.9309 27.3099 17.8604C27.6459 17.7923 27.9891 17.7971 28.3275 17.8725C28.6612 17.9479 28.9901 18.0988 29.2907 18.325C29.5936 18.5512 29.8681 18.8479 30.1024 19.2249L30.1237 19.4219C30.1237 19.4219 29.8729 19.5898 29.4989 19.8476C29.1227 20.1005 28.6281 20.4484 28.1334 20.7937C27.6388 21.144 27.1466 21.4991 26.7822 21.7642C26.4153 22.0366 26.174 22.2191 26.174 22.2191C26.252 22.3553 26.3349 22.472 26.4272 22.6034C26.7254 23.0242 27.0425 23.372 27.3643 23.642C27.6862 23.9071 28.0199 24.0968 28.3583 24.2063C28.6943 24.3157 29.0351 24.3425 29.3735 24.2841C29.7096 24.2257 30.048 24.0822 30.3793 23.8487C30.7343 23.5982 30.9875 23.299 31.1603 22.9439C31.333 22.5912 31.43 22.1826 31.4774 21.7059ZM26.51 18.7166C25.9633 19.1082 25.6935 19.6116 25.632 20.1589C25.5776 20.7086 25.7219 21.2997 25.9965 21.8615C25.9965 21.8615 26.1952 21.7034 26.4934 21.4675C26.794 21.234 27.1987 20.9202 27.601 20.6113C28.008 20.3049 28.4127 20.0008 28.7203 19.7722C29.028 19.546 29.2339 19.3976 29.2339 19.3976C28.8836 18.882 28.4316 18.5487 27.9512 18.4271C27.4708 18.3055 26.962 18.3931 26.51 18.7166ZM35.7419 20.8789C35.7419 20.8789 35.1218 21.2607 34.4994 21.6475C33.8865 22.0439 33.2712 22.438 33.2712 22.438L33.1434 22.2312L33.5978 21.7813C33.9244 21.4651 33.9504 21.3994 33.6333 20.8764C33.6333 20.8764 33.3611 20.424 32.947 19.7406C32.7435 19.4025 32.5044 19.006 32.2465 18.5779C31.9885 18.1523 31.7117 17.6999 31.4395 17.245C31.165 16.7902 30.8905 16.3329 30.6325 15.9097C30.3769 15.484 30.1355 15.0876 29.9297 14.7446C29.5202 14.0636 29.2434 13.6112 29.2434 13.6112L28.0979 14.0928L27.9915 13.9225L29.2339 12.4388L29.4208 12.4242C29.4208 12.4242 29.7214 12.9277 30.171 13.6866C30.3959 14.0636 30.6585 14.5062 30.9402 14.9805C31.2218 15.4548 31.5223 15.9583 31.8205 16.4642C32.1234 16.9702 32.4216 17.4736 32.7032 17.9479C32.9849 18.4222 33.2475 18.8649 33.47 19.2444C33.9244 20.0008 34.2226 20.5043 34.2226 20.5043C34.5349 21.0297 34.613 21.0297 35.0225 20.8764L35.6188 20.6648L35.7419 20.8789ZM42.1907 16.6929L42.5883 16.5737L42.664 16.7318L41.4381 17.7971L41.2465 17.7777L40.7163 16.7123L40.6193 16.7634C40.5128 17.2961 40.3519 17.7558 40.1152 18.1352C39.881 18.5171 39.5733 18.8236 39.1615 19.0473C38.8089 19.2444 38.4445 19.3563 38.0777 19.3781C37.7132 19.4025 37.344 19.3392 36.9867 19.1933C36.627 19.0449 36.2815 18.8163 35.9501 18.5025C35.6236 18.1839 35.3183 17.785 35.0461 17.3034C34.7621 16.7999 34.5728 16.2891 34.4781 15.7905C34.3835 15.2919 34.3811 14.8103 34.4663 14.3579C34.5562 13.9055 34.7314 13.4895 34.9917 13.1271C35.252 12.7623 35.5952 12.4558 36.014 12.2247C36.3382 12.0472 36.724 11.894 37.1287 11.8234C37.5333 11.7504 37.9522 11.7577 38.3427 11.894C38.3427 11.894 38.0019 11.208 37.6611 10.5197C37.3204 9.82893 36.9796 9.13815 36.9796 9.13815L35.7987 9.51516L35.7087 9.33517L37.0671 7.97065L37.2541 7.96822C37.2541 7.96822 37.5026 8.48387 37.8789 9.25734C38.0658 9.63921 38.2859 10.0916 38.5202 10.5756C38.7545 11.0597 39.003 11.5729 39.2515 12.0885C39.5023 12.6042 39.7508 13.1198 39.9827 13.6039C40.2194 14.0855 40.4395 14.5354 40.6241 14.9222C41.0003 15.6956 41.2488 16.2089 41.2488 16.2089C41.521 16.7731 41.663 16.8437 42.1907 16.6929ZM39.1047 18.3687C39.455 18.1766 39.739 17.8823 39.9614 17.5101C40.1862 17.1404 40.3519 16.6929 40.4608 16.1943C40.4608 16.1943 40.1365 15.5302 39.8076 14.8638C39.481 14.2022 39.1544 13.5382 39.1544 13.5382C38.8278 12.879 38.3782 12.4947 37.867 12.3537C37.3559 12.215 36.7808 12.3172 36.2199 12.6212C35.9075 12.7963 35.6472 13.025 35.4508 13.2998C35.2544 13.5771 35.1218 13.8982 35.0603 14.2557C35.0011 14.6133 35.0153 15.0073 35.1053 15.4281C35.1952 15.844 35.3632 16.2891 35.6188 16.7464C35.8034 17.0845 36.0211 17.408 36.2649 17.6877C36.5063 17.9674 36.7784 18.2082 37.0719 18.3785C37.3653 18.5463 37.6848 18.6533 38.0232 18.6582C38.3593 18.6679 38.7237 18.5804 39.1047 18.3687ZM52.7265 12.1834L53.1383 12.1129L53.1951 12.2807L51.8509 13.1855L51.6616 13.1442L51.264 12.0156L51.1575 12.0569C50.9919 12.5726 50.7765 13.0055 50.4973 13.3558C50.2204 13.706 49.8772 13.9687 49.4465 14.1438C49.0702 14.2971 48.694 14.3579 48.3295 14.336C47.9651 14.3141 47.6054 14.2071 47.2693 14.0149C46.9285 13.8252 46.6114 13.5552 46.3227 13.2001C46.0316 12.845 45.7736 12.412 45.5607 11.8988C45.3429 11.3637 45.2128 10.8335 45.1773 10.3251C45.1418 9.82163 45.1962 9.34004 45.3335 8.90222C45.4755 8.46441 45.7003 8.07281 46.0008 7.74688C46.3014 7.41852 46.6777 7.15583 47.1202 6.9807C47.4634 6.8445 47.8657 6.73747 48.2774 6.71802C48.6869 6.69612 49.1034 6.75207 49.4702 6.94179C49.4702 6.94179 49.217 6.21453 48.959 5.48727C48.7034 4.76001 48.4478 4.03519 48.4478 4.03519L47.2291 4.26382L47.1581 4.07167L48.6703 2.88471L48.8549 2.90903C48.8549 2.90903 49.0418 3.449 49.3235 4.26382C49.4631 4.66759 49.6264 5.14432 49.8039 5.65267C49.979 6.16102 50.1636 6.70342 50.3529 7.24583C50.5399 7.79066 50.7268 8.33063 50.9019 8.83898C51.0771 9.34733 51.2427 9.82406 51.38 10.2303C51.6616 11.0426 51.8462 11.5851 51.8462 11.5851C52.0544 12.1761 52.187 12.2685 52.7265 12.1834ZM49.4655 13.4628C49.8346 13.312 50.1541 13.0566 50.4192 12.7161C50.6866 12.3755 50.9019 11.9523 51.0723 11.4707C51.0723 11.4707 50.8239 10.7727 50.5777 10.0697C50.3316 9.37166 50.0855 8.67359 50.0855 8.67359C49.8394 7.97795 49.4347 7.54257 48.9448 7.33582C48.4549 7.13394 47.8751 7.16069 47.2788 7.39663C46.9498 7.53284 46.6635 7.72499 46.4363 7.97552C46.2091 8.22604 46.0411 8.52765 45.9369 8.87547C45.8352 9.22329 45.802 9.61732 45.8423 10.0454C45.8825 10.4686 45.9961 10.9308 46.1949 11.4197C46.3393 11.7748 46.5191 12.1226 46.7274 12.4315C46.9356 12.7404 47.1746 13.0128 47.4492 13.2171C47.7189 13.4214 48.0242 13.5674 48.3603 13.6136C48.694 13.6647 49.0608 13.6233 49.4655 13.4628ZM52.9301 3.2909C52.5585 3.41009 52.2059 3.23983 52.0923 2.87741C51.974 2.51743 52.1728 2.16232 52.5443 2.0407C52.9206 1.91909 53.2732 2.09421 53.3821 2.46149C53.4909 2.8239 53.2993 3.17172 52.9301 3.2909ZM57.0147 11.3199C57.0147 11.3199 56.319 11.534 55.6256 11.7529C54.9416 11.9791 54.253 12.2077 54.253 12.2077L54.1772 11.9718L54.7215 11.6532C55.1144 11.4318 55.1499 11.371 54.97 10.7873C54.97 10.7873 54.873 10.4735 54.7286 9.99919C54.5819 9.53219 54.3902 8.90465 54.1962 8.27712C54.0021 7.64959 53.8081 7.02205 53.6637 6.55019C53.517 6.07832 53.4223 5.76699 53.4223 5.76699L52.2438 5.95427L52.1822 5.75969L53.6708 4.67245L53.8649 4.70164C53.8649 4.70164 53.9737 5.06892 54.1394 5.61862C54.2222 5.8959 54.3192 6.21696 54.4234 6.55992C54.5275 6.9053 54.6363 7.27258 54.7476 7.63986C54.8564 8.00714 54.9677 8.37441 55.0718 8.71737C55.1759 9.06032 55.2706 9.37895 55.3534 9.65867C55.5191 10.2084 55.6303 10.5732 55.6303 10.5732C55.8054 11.1594 55.8741 11.1837 56.319 11.1351L56.9461 11.0816L57.0147 11.3199ZM58.8204 9.83623C58.8204 9.83623 59.5588 9.63434 60.2947 9.43733C61.0331 9.25004 61.7738 9.06519 61.7738 9.06519C62.356 8.92655 62.8601 8.95816 63.2506 9.16491C63.6387 9.36679 63.9085 9.74137 64.0221 10.2765C64.0978 10.6413 64.0694 10.9867 63.9605 11.3078C63.854 11.6288 63.6623 11.9256 63.4068 12.1883C63.1535 12.4558 62.8411 12.6869 62.4814 12.8815C62.1194 13.0785 61.717 13.2342 61.2863 13.3485C60.8887 13.4506 60.5219 13.5139 60.1883 13.5309C59.8569 13.5479 59.5588 13.5212 59.3032 13.4506C58.7873 13.3071 58.4346 12.9836 58.2903 12.4704C58.198 12.142 58.2217 11.8307 58.3282 11.5291C58.437 11.2275 58.6311 10.9332 58.8772 10.6365L58.8488 10.5246L58.1696 10.6413L58.0536 10.4808C58.0536 10.4808 58.2359 9.85082 58.4299 9.22572C58.624 8.60305 58.8251 7.97552 58.8251 7.97552C58.3873 7.90741 58.0016 7.71283 57.6821 7.40879C57.3626 7.10718 57.1189 6.69126 56.9769 6.18048C56.7828 5.47025 56.8893 4.8038 57.2466 4.25896C57.4289 3.98654 57.6726 3.74574 57.9732 3.54386C58.2785 3.34441 58.6358 3.18631 59.0499 3.07929C59.6321 2.92849 60.2001 2.95281 60.6687 3.15226L62.0058 2.0334L62.1951 2.06746L62.3773 2.93579L60.9195 3.27631C61.4544 3.58035 61.8448 4.13248 62.0034 4.85974C62.0815 5.22215 62.0886 5.56997 62.0271 5.89347C61.9655 6.21696 61.8401 6.5137 61.6579 6.77882C61.4733 7.04394 61.2366 7.27745 60.9455 7.46716C60.6521 7.65688 60.3137 7.80525 59.9256 7.90741C59.6818 7.97065 59.4546 7.99984 59.2227 8.00227L58.8204 9.83623ZM57.7223 5.94941C57.8714 6.53803 58.1791 6.97341 58.5766 7.2288C58.9719 7.48662 59.4617 7.56446 59.9918 7.42582C60.5243 7.28717 60.9077 6.98557 61.123 6.57208C61.3431 6.15859 61.3928 5.63078 61.2627 5.04946C61.1301 4.4657 60.8367 4.02059 60.4367 3.76034C60.0344 3.49765 59.5256 3.41738 58.9719 3.56089C58.4157 3.70926 58.0252 4.02059 57.8146 4.44138C57.604 4.85974 57.5709 5.38268 57.7223 5.94941ZM61.3573 12.8669C62.0034 12.7015 62.5548 12.3877 62.9169 11.9864C63.2837 11.5875 63.4635 11.0962 63.35 10.5756C63.2032 9.89217 62.6991 9.5784 61.7786 9.79974C61.7786 9.79974 61.1798 9.94811 60.5811 10.0989C59.9824 10.2594 59.386 10.4224 59.386 10.4224C58.9056 10.9016 58.7849 11.5096 58.9411 12.0837C59.0641 12.5434 59.3647 12.8182 59.7859 12.9374C60.2048 13.0566 60.7444 13.025 61.3573 12.8669ZM70.8069 8.3355L70.549 8.36955C70.549 8.36955 70.3526 8.01443 70.052 7.47933C69.9029 7.21664 69.7254 6.90773 69.5361 6.57451C69.3468 6.24372 69.1433 5.89103 68.935 5.53835C68.7291 5.1881 68.5232 4.83298 68.3244 4.50462C68.1327 4.17626 67.9458 3.86979 67.7872 3.6071C67.4654 3.08173 67.2548 2.73391 67.2548 2.73391C66.7956 1.99935 66.6465 1.90936 66.159 1.92152L66.1164 1.67829C66.1164 1.67829 66.7956 1.55424 67.4772 1.43992C68.1611 1.33047 68.8427 1.22102 68.8427 1.22102L68.8782 1.46668C67.7494 1.67586 67.6665 1.99692 67.9907 2.53689C67.9907 2.53689 68.1588 2.8166 68.4049 3.24226C68.6557 3.66548 68.9894 4.23464 69.3136 4.80136C69.6402 5.36809 69.9621 5.93968 70.2011 6.36776C70.4401 6.79585 70.5963 7.08043 70.5963 7.08043L70.7075 7.06583C70.7075 7.06583 70.7738 6.74477 70.8827 6.26804C70.9868 5.78888 71.1335 5.15161 71.2826 4.51435C71.4341 3.87709 71.5879 3.23983 71.7038 2.76066C71.8222 2.28393 71.9003 1.96287 71.9003 1.96287C72.0754 1.28669 71.8316 1.0921 70.8401 1.19183L70.8093 0.941301C70.8093 0.941301 71.4246 0.863467 72.0494 0.790498C72.6694 0.715097 73.2871 0.646992 73.2871 0.646992L73.3155 0.895087C72.7996 1.05319 72.6386 1.33777 72.383 2.22799C72.383 2.22799 72.2789 2.61229 72.1204 3.18388C72.0423 3.46846 71.9523 3.80412 71.8553 4.16167C71.7606 4.51922 71.6589 4.89865 71.5618 5.28053C71.4625 5.6624 71.3654 6.04184 71.2755 6.40182C71.1856 6.75937 71.1027 7.09502 71.0341 7.3796C70.8969 7.95119 70.8069 8.3355 70.8069 8.3355ZM77.7267 7.69094C77.2723 7.72012 76.8487 7.66175 76.463 7.51581C76.0772 7.37231 75.727 7.1461 75.4288 6.8445C75.1282 6.54532 74.8774 6.16832 74.6881 5.72564C74.4964 5.28539 74.3709 4.77704 74.3141 4.21275C74.2668 3.66305 74.307 3.14253 74.423 2.66823C74.5461 2.19637 74.7472 1.77072 75.0146 1.4083C75.2844 1.04832 75.6205 0.751581 76.0062 0.537539C76.3967 0.323496 76.8345 0.194584 77.3078 0.162964C77.7953 0.128912 78.2521 0.197017 78.6615 0.350251C79.0709 0.503486 79.4306 0.741852 79.7335 1.05562C80.0341 1.37182 80.2731 1.76099 80.4435 2.21339C80.6091 2.66823 80.7085 3.18388 80.7251 3.75547C80.7417 4.30274 80.6659 4.81839 80.5239 5.28053C80.382 5.74753 80.1666 6.15859 79.8968 6.50641C79.6294 6.85422 79.3052 7.13637 78.9384 7.33825C78.5715 7.54257 78.1645 7.66418 77.7267 7.69094ZM77.7527 7.2361C78.1432 7.21177 78.4769 7.09016 78.7585 6.89557C79.0425 6.70099 79.2744 6.43587 79.459 6.12697C79.6412 5.8132 79.7738 5.46052 79.8566 5.08594C79.9441 4.71137 79.9773 4.31977 79.9654 3.93546C79.9489 3.51954 79.885 3.09875 79.7714 2.70229C79.6554 2.30339 79.4898 1.93125 79.2673 1.61018C79.0472 1.29398 78.7703 1.02643 78.439 0.851305C78.1053 0.67618 77.7196 0.586185 77.2771 0.615372C76.8605 0.639695 76.5032 0.771039 76.2074 0.970488C75.9092 1.17237 75.6725 1.44722 75.4903 1.76828C75.3105 2.08448 75.1874 2.4469 75.1188 2.8239C75.0501 3.20091 75.0336 3.59737 75.0667 3.97924C75.1022 4.3903 75.185 4.81109 75.3128 5.20269C75.4454 5.59429 75.6228 5.96157 75.8477 6.2729C76.0701 6.57937 76.3423 6.8372 76.657 7.00746C76.9741 7.17529 77.3386 7.26528 77.7527 7.2361ZM86.3196 0.0364847L86.5705 0.0437815L86.5492 0.805092L86.4024 0.929139L85.1766 0.902384C84.9305 1.07994 84.6678 1.34263 84.4193 1.62964C84.1755 1.91665 83.9436 2.23528 83.7732 2.52716C83.7732 2.52716 83.7732 3.449 83.7685 4.37328C83.7685 5.29512 83.7685 6.21696 83.7685 6.21696C83.7661 6.81531 83.8347 6.86152 84.4926 6.9953L85.0819 7.11935L85.0772 7.36744C85.0772 7.36744 84.301 7.36258 83.5271 7.36014C82.7509 7.36014 81.9746 7.37231 81.9746 7.37231L81.9723 7.12421L82.5876 6.98557C83.0254 6.89071 83.0774 6.80315 83.0727 6.21696C83.0727 6.21696 83.0751 5.89103 83.0703 5.39728C83.068 4.90595 83.0632 4.24923 83.0609 3.59251C83.0561 2.93579 83.0538 2.27907 83.049 1.78774C83.0467 1.29398 83.0467 0.968056 83.0467 0.968056L81.8634 0.788065L81.861 0.586185L83.6005 0L83.7756 0.0899951V1.76828L83.8915 1.77072C84.2276 1.27209 84.5447 0.831847 84.9257 0.520513C85.3067 0.209178 85.7493 0.0218908 86.3196 0.0364847ZM92.4726 6.16102L92.6548 6.32398C92.3851 6.74477 92.0088 7.11691 91.5662 7.37231C91.1261 7.6277 90.6196 7.77363 90.08 7.72985C89.6091 7.69823 89.1902 7.57419 88.8305 7.37231C88.4684 7.17042 88.1655 6.89071 87.9218 6.55019C87.6756 6.20723 87.491 5.8059 87.3704 5.35349C87.252 4.90595 87.2 4.40733 87.2189 3.87709C87.2402 3.29577 87.3396 2.76796 87.51 2.30096C87.6756 1.83882 87.9147 1.43992 88.2081 1.11399C88.5039 0.795363 88.8542 0.552132 89.247 0.394033C89.6399 0.238365 90.0729 0.172693 90.5321 0.204313C90.8941 0.228636 91.2373 0.328361 91.5449 0.488893C91.8478 0.651857 92.1176 0.873196 92.333 1.14805C92.5507 1.4229 92.714 1.75126 92.8158 2.12097C92.9104 2.49068 92.9459 2.90174 92.901 3.34198L92.7992 3.51224C92.7992 3.51224 92.501 3.48306 92.0537 3.44414C91.6041 3.40279 91.0054 3.35658 90.4114 3.31279C89.8126 3.27145 89.2139 3.23253 88.7642 3.20577C88.3146 3.18145 88.0164 3.16929 88.0164 3.16929C87.9928 3.32982 87.9856 3.47333 87.9809 3.63143C87.9596 4.15437 87.9951 4.62867 88.0827 5.04703C88.175 5.46052 88.3193 5.82293 88.5181 6.12453C88.7146 6.42614 88.9654 6.6645 89.266 6.83477C89.5618 7.00503 89.9144 7.10718 90.3143 7.1388C90.745 7.17042 91.1261 7.09746 91.4739 6.92963C91.8242 6.76666 92.1508 6.50641 92.4726 6.16102ZM90.3995 0.64456C89.7345 0.600778 89.2186 0.82455 88.8376 1.21372C88.4613 1.60775 88.2199 2.16232 88.0898 2.78012C88.0898 2.78012 88.3406 2.78255 88.7193 2.78985C89.0979 2.79715 89.602 2.81174 90.1061 2.82633C90.6078 2.84822 91.1119 2.87012 91.4881 2.88714C91.8668 2.9066 92.12 2.92119 92.12 2.92119C92.1555 2.29366 92.004 1.74639 91.7035 1.34506C91.4006 0.941301 90.9486 0.683477 90.3995 0.64456ZM95.8426 8.3282C95.4592 8.27469 95.0782 8.18469 94.7232 8.06065C94.3659 7.9439 94.0345 7.79309 93.7505 7.63256L93.9375 5.85698L94.1742 5.88374L94.3138 6.50154C94.4132 6.93449 94.5694 7.24826 94.8321 7.46716C95.0924 7.6885 95.4616 7.82228 95.9846 7.89038C96.3632 7.9439 96.7608 7.88795 97.0826 7.71283C97.4045 7.53527 97.6482 7.23366 97.7098 6.78612C97.7737 6.3702 97.6743 6.05643 97.4329 5.77185C97.1868 5.48484 96.7892 5.22945 96.252 4.92784C95.7526 4.64569 95.2604 4.33436 94.9102 3.94033C94.5575 3.55116 94.3446 3.07929 94.4108 2.47608C94.4723 1.8972 94.7563 1.45208 95.206 1.1748C95.6603 0.897519 96.278 0.790498 96.9927 0.890222C97.3122 0.934004 97.6766 1.0313 98.0222 1.1675C98.3677 1.30858 98.6966 1.48614 98.9546 1.70018L98.7037 3.36874L98.4623 3.33225L98.3109 2.6731C98.2044 2.23042 98.0363 1.91909 97.795 1.70504C97.5536 1.49587 97.2388 1.38155 96.8484 1.3256C96.465 1.27696 96.0508 1.3256 95.7219 1.49587C95.3953 1.66856 95.1539 1.96287 95.1042 2.39582C95.0545 2.80931 95.1681 3.1328 95.4261 3.42468C95.684 3.72142 96.084 3.99141 96.6212 4.30031C97.1087 4.58002 97.5962 4.88649 97.937 5.27323C98.2777 5.6624 98.4718 6.1294 98.3819 6.74234C98.2872 7.35771 97.9677 7.79553 97.5157 8.06065C97.0637 8.32577 96.4792 8.41576 95.8426 8.3282ZM109.057 10.5878L109.616 10.887L109.55 11.1229C109.55 11.1229 108.849 10.921 108.153 10.724C107.453 10.5294 106.752 10.3421 106.752 10.3421L106.809 10.1038L107.441 10.1378C107.888 10.1646 107.957 10.1062 108.151 9.37652C108.151 9.37652 108.376 8.50332 108.603 7.63499C108.83 6.76666 109.055 5.89347 109.055 5.89347C109.199 5.33647 109.209 4.85974 109.046 4.49246C108.882 4.12032 108.551 3.85763 108.021 3.71899C107.616 3.6144 107.245 3.6071 106.847 3.70439C106.452 3.80898 106.031 4.01816 105.524 4.34652C105.524 4.34652 105.465 4.61894 105.375 5.02027C105.287 5.42403 105.169 5.96157 105.048 6.49911C104.93 7.03665 104.814 7.57419 104.724 7.97795C104.634 8.37685 104.577 8.64926 104.577 8.64926C104.445 9.24518 104.488 9.30355 104.897 9.49084L105.467 9.76326L105.413 10.0041C105.413 10.0041 104.708 9.83136 104 9.6684C103.295 9.50787 102.585 9.35463 102.585 9.35463L102.635 9.11383L103.264 9.11627C103.711 9.12356 103.775 9.09194 103.903 8.4936C103.903 8.4936 103.969 8.17253 104.073 7.6885C104.173 7.20691 104.312 6.56478 104.452 5.92022C104.587 5.27809 104.724 4.63597 104.828 4.15194C104.932 3.66791 105.001 3.34685 105.001 3.34685L103.884 2.9066L103.924 2.70958L105.744 2.52959L105.898 2.65607L105.642 3.82601L105.742 3.8479C106.139 3.52197 106.589 3.2909 107.043 3.16442C107.503 3.04281 107.969 3.02822 108.404 3.1401C109.046 3.31279 109.493 3.63872 109.729 4.11059C109.966 4.58246 109.987 5.19296 109.791 5.93238C109.791 5.93238 109.55 6.83963 109.306 7.74688C109.062 8.65656 108.818 9.56381 108.818 9.56381C108.622 10.2911 108.669 10.3835 109.057 10.5878ZM116.15 5.92265L116.23 5.68429C116.23 5.68429 116.82 5.89833 117.409 6.10994C117.996 6.32885 118.583 6.54776 118.583 6.54776L118.5 6.77882C117.965 6.68396 117.717 6.87368 117.089 7.55959C117.089 7.55959 116.824 7.85147 116.431 8.29171C116.235 8.51305 116.006 8.77088 115.764 9.04816C115.518 9.32544 115.26 9.62218 115.004 9.92136C114.747 10.2181 114.491 10.5173 114.252 10.797C114.013 11.0767 113.793 11.3418 113.606 11.5632C113.23 12.018 112.981 12.3196 112.981 12.3196C112.981 12.3196 112.491 12.9131 112.011 13.5066C111.53 14.1025 111.057 14.7008 111.057 14.7008L110.196 14.4284L110.252 14.2314C110.252 14.2314 110.863 13.706 111.483 13.1806C112.105 12.6601 112.73 12.1445 112.73 12.1445C112.73 12.1445 112.714 11.7431 112.681 11.1351C112.662 10.8335 112.64 10.4808 112.617 10.0989C112.593 9.72191 112.567 9.31571 112.539 8.91682C112.51 8.51305 112.479 8.10686 112.449 7.72985C112.418 7.34798 112.389 6.9953 112.361 6.69126C112.309 6.08319 112.273 5.67699 112.273 5.67699C112.188 4.81596 112.079 4.66272 111.637 4.45111L111.701 4.21275C111.701 4.21275 112.366 4.41706 113.026 4.61894C113.689 4.82812 114.347 5.04703 114.347 5.04703L114.271 5.28296C113.173 4.9546 112.957 5.20999 113.017 5.83509C113.017 5.83509 113.04 6.16345 113.078 6.65964C113.116 7.1534 113.161 7.81012 113.204 8.46684C113.244 9.12356 113.279 9.78028 113.305 10.2716C113.329 10.7629 113.346 11.0913 113.346 11.0913L113.45 11.1253C113.45 11.1253 113.651 10.8724 113.956 10.4929C114.266 10.1111 114.678 9.60516 115.092 9.10167C115.506 8.59819 115.927 8.09713 116.242 7.72012C116.559 7.34798 116.772 7.09745 116.772 7.09745C117.227 6.57208 117.085 6.28263 116.15 5.92265ZM122.812 15.7832L123.313 16.1675L123.212 16.3913C123.212 16.3913 122.558 16.0775 121.898 15.7735C121.238 15.4694 120.573 15.1727 120.573 15.1727L120.668 14.9465L121.285 15.0778C121.721 15.18 121.801 15.1338 122.099 14.4381C122.099 14.4381 122.457 13.616 122.812 12.7939C123.167 11.9718 123.522 11.1497 123.522 11.1497C123.751 10.6194 123.829 10.15 123.723 9.75839C123.616 9.36436 123.33 9.05302 122.828 8.82925C122.442 8.66142 122.076 8.59575 121.671 8.63224C121.262 8.66872 120.814 8.8098 120.265 9.05546C120.265 9.05546 120.166 9.31085 120.017 9.69515C119.868 10.0795 119.671 10.5902 119.47 11.1035C119.271 11.6167 119.075 12.1275 118.926 12.5118C118.777 12.8936 118.677 13.1515 118.677 13.1515C118.455 13.723 118.507 13.7887 118.869 14.0319L119.392 14.3968L119.3 14.6254C119.3 14.6254 118.63 14.3433 117.953 14.0684C117.281 13.7984 116.6 13.5309 116.6 13.5309L116.685 13.2998L117.312 13.402C117.747 13.4822 117.816 13.4628 118.034 12.8912C118.034 12.8912 118.223 12.395 118.507 11.6434C118.649 11.2713 118.815 10.8359 118.99 10.3713C119.167 9.90433 119.357 9.40571 119.546 8.90709C119.735 8.40846 119.924 7.90741 120.102 7.44284C120.279 6.97584 120.445 6.54046 120.587 6.16345C120.869 5.41917 121.058 4.92298 121.058 4.92298L119.993 4.26869L120.066 4.07897L121.967 4.21031L122.088 4.35382C122.088 4.35382 121.986 4.61651 121.834 5.01054C121.68 5.40457 121.477 5.92995 121.273 6.45289C121.07 6.9807 120.866 7.50608 120.713 7.90011C120.561 8.29172 120.459 8.55684 120.459 8.55684L120.556 8.59332C121.001 8.33793 121.477 8.17983 121.943 8.12875C122.419 8.0801 122.88 8.14334 123.29 8.3209C123.9 8.59332 124.291 8.98735 124.456 9.49084C124.617 9.99676 124.549 10.6048 124.243 11.3029C124.243 11.3029 123.865 12.1591 123.486 13.0177C123.11 13.8738 122.731 14.7324 122.731 14.7324C122.428 15.4232 122.459 15.5205 122.812 15.7832ZM129.518 17.8653L129.623 18.089C129.213 18.3663 128.723 18.5512 128.219 18.6047C127.713 18.6606 127.195 18.5828 126.716 18.3274C126.295 18.1012 125.959 17.8142 125.706 17.4809C125.455 17.1477 125.285 16.7683 125.195 16.3572C125.1 15.9413 125.088 15.4986 125.155 15.0341C125.218 14.5743 125.36 14.0928 125.585 13.6209C125.829 13.0882 126.13 12.648 126.463 12.2904C126.797 11.9353 127.171 11.6677 127.566 11.4902C127.959 11.3175 128.378 11.2372 128.797 11.2543C129.218 11.2713 129.639 11.3905 130.051 11.6069C130.373 11.7772 130.645 12.0058 130.867 12.2807C131.083 12.5555 131.244 12.8693 131.336 13.2074C131.428 13.5503 131.452 13.9176 131.4 14.2971C131.345 14.6765 131.218 15.0681 131.005 15.4548L130.848 15.5692C130.848 15.5692 130.583 15.4208 130.186 15.197C129.793 14.9781 129.265 14.6911 128.735 14.4041C128.198 14.1219 127.663 13.8422 127.263 13.6379C126.858 13.4287 126.589 13.2925 126.589 13.2925C126.511 13.4336 126.449 13.5601 126.38 13.706C126.158 14.1755 126.007 14.623 125.926 15.0438C125.848 15.4597 125.841 15.8537 125.907 16.2113C125.971 16.5688 126.108 16.8875 126.317 17.1696C126.525 17.4469 126.806 17.6853 127.164 17.875C127.547 18.0842 127.921 18.1717 128.307 18.162C128.69 18.1547 129.09 18.0477 129.518 17.8653ZM129.757 11.9572C129.163 11.6434 128.605 11.6361 128.106 11.838C127.606 12.0448 127.168 12.4558 126.811 12.9642C126.811 12.9642 127.041 13.0736 127.381 13.2342C127.727 13.3971 128.184 13.616 128.64 13.8398C129.092 14.0611 129.547 14.2873 129.888 14.46C130.226 14.6327 130.451 14.7495 130.451 14.7495C130.73 14.1876 130.801 13.6209 130.68 13.1296C130.56 12.6358 130.245 12.2174 129.757 11.9572ZM135.733 23.0144L136.038 23.3087L135.939 23.4571L134.427 22.9001L134.344 22.725L134.976 21.718L134.883 21.6548C134.382 21.8299 133.913 21.9199 133.475 21.9004C133.035 21.8834 132.626 21.7642 132.228 21.5186C131.883 21.2997 131.606 21.0321 131.405 20.7183C131.199 20.407 131.066 20.0495 131.009 19.6579C130.953 19.2638 130.967 18.8406 131.069 18.3906C131.168 17.9382 131.35 17.4664 131.618 16.9823C131.899 16.474 132.233 16.0508 132.602 15.7127C132.971 15.3794 133.376 15.1338 133.8 14.9805C134.223 14.8322 134.661 14.7787 135.099 14.8273C135.534 14.8735 135.965 15.0243 136.37 15.2773C136.684 15.4792 137.004 15.7419 137.274 16.0629C137.536 16.3864 137.745 16.7634 137.823 17.1818C137.823 17.1818 138.232 16.5299 138.639 15.8781C139.046 15.2311 139.456 14.5792 139.456 14.5792L138.537 13.7206L138.646 13.5479L140.478 14.066L140.575 14.2338C140.575 14.2338 140.265 14.713 139.806 15.4378C139.579 15.7954 139.309 16.2186 139.02 16.671C138.734 17.1234 138.424 17.6001 138.118 18.0842C137.811 18.5658 137.506 19.0473 137.217 19.4998C136.93 19.9497 136.661 20.3705 136.431 20.7305C135.972 21.4529 135.667 21.9345 135.667 21.9345C135.331 22.4599 135.343 22.6228 135.733 23.0144ZM132.77 21.1197C133.109 21.3361 133.499 21.4383 133.923 21.448C134.349 21.4626 134.808 21.3824 135.283 21.2291C135.283 21.2291 135.676 20.604 136.067 19.9789C136.46 19.3538 136.852 18.7263 136.852 18.7263C137.24 18.1085 137.335 17.5126 137.198 16.9872C137.058 16.4618 136.684 16.007 136.142 15.664C135.837 15.4694 135.513 15.3551 135.184 15.3211C134.853 15.287 134.517 15.3308 134.185 15.4573C133.854 15.5862 133.527 15.7954 133.222 16.0872C132.917 16.3767 132.63 16.7537 132.373 17.211C132.183 17.5442 132.022 17.8993 131.909 18.2569C131.793 18.612 131.731 18.9744 131.736 19.3222C131.743 19.6676 131.814 20.0032 131.98 20.3073C132.145 20.6138 132.399 20.8862 132.77 21.1197ZM138.497 25.8043C138.18 25.5708 137.889 25.3008 137.633 25.0187C137.375 24.7414 137.151 24.4471 136.978 24.1625L137.962 22.6982L138.156 22.8344L137.998 23.4498C137.884 23.8779 137.875 24.2281 138.003 24.5492C138.13 24.8727 138.393 25.1695 138.819 25.4857C139.131 25.7192 139.503 25.8651 139.872 25.8675C140.234 25.8675 140.587 25.7216 140.852 25.3616C141.096 25.0235 141.159 24.7 141.077 24.3303C140.991 23.9557 140.764 23.5422 140.433 23.0096C140.123 22.5207 139.834 22.005 139.709 21.4869C139.579 20.9689 139.612 20.4508 139.945 19.9546C140.27 19.4754 140.726 19.2249 141.252 19.1982C141.777 19.1763 142.369 19.3879 142.953 19.8208C143.214 20.0203 143.483 20.2781 143.73 20.57C143.969 20.8643 144.174 21.1829 144.305 21.4942L143.306 22.8442L143.112 22.6909L143.285 22.0318C143.398 21.594 143.394 21.2389 143.278 20.9324C143.162 20.6283 142.941 20.3754 142.622 20.1346C142.307 19.9011 141.919 19.743 141.552 19.7333C141.186 19.7235 140.838 19.8646 140.592 20.2197C140.36 20.5627 140.308 20.9008 140.4 21.2875C140.487 21.6694 140.717 22.1048 141.044 22.6399C141.342 23.1239 141.628 23.6298 141.751 24.1382C141.869 24.6465 141.827 25.1549 141.46 25.6511C141.093 26.1424 140.61 26.3734 140.09 26.3832C139.572 26.3978 139.015 26.1935 138.497 25.8043ZM149.246 24.9189C149.575 25.2108 149.823 25.544 149.987 25.9064C150.15 26.2688 150.226 26.6605 150.216 27.0666C150.204 27.4704 150.107 27.8912 149.923 28.312C149.731 28.7328 149.457 29.156 149.092 29.5695C148.711 30 148.297 30.3405 147.866 30.5886C147.44 30.8391 147 30.9997 146.569 31.0678C146.134 31.1408 145.71 31.1213 145.31 31.0094C144.91 30.9024 144.532 30.7029 144.2 30.4086L144.186 30.4013C143.737 30.0049 143.401 29.5792 143.164 29.1438C142.92 28.706 142.776 28.2609 142.698 27.828C142.698 27.828 143.034 27.3999 143.536 26.7529C143.789 26.4318 144.08 26.0548 144.395 25.6535C144.709 25.2497 145.043 24.8192 145.379 24.3911C145.715 23.9606 146.051 23.5301 146.363 23.1263C146.678 22.725 146.972 22.348 147.225 22.0245C147.727 21.3799 148.063 20.9494 148.063 20.9494L147.237 20.0008L147.36 19.8403L149.132 20.5505L149.208 20.7256C149.208 20.7256 149.035 20.9445 148.775 21.2729C148.515 21.6013 148.167 22.0415 147.821 22.4793C147.473 22.9196 147.126 23.3574 146.865 23.6858C146.605 24.0141 146.432 24.233 146.432 24.233L146.52 24.3084C147.047 24.2063 147.537 24.1892 147.992 24.2841C148.446 24.3814 148.865 24.5833 149.246 24.9189ZM144.484 30.0657C144.735 30.287 145.022 30.4402 145.327 30.5181C145.635 30.6008 145.961 30.6105 146.302 30.5424C146.643 30.4767 146.995 30.3308 147.348 30.1046C147.703 29.8808 148.056 29.5743 148.399 29.1779C148.65 28.8909 148.879 28.5771 149.057 28.2487C149.239 27.9204 149.369 27.575 149.423 27.2296C149.476 26.8818 149.457 26.5315 149.334 26.191C149.213 25.8505 148.988 25.5173 148.642 25.2059C148.316 24.9287 147.923 24.7487 147.49 24.666C147.052 24.5857 146.574 24.5979 146.075 24.6854C146.075 24.6854 145.616 25.2643 145.159 25.8408C144.702 26.4197 144.245 26.9985 144.245 26.9985C143.796 27.5653 143.625 28.1393 143.687 28.6647C143.744 29.1876 144.03 29.6692 144.484 30.0657ZM155.567 31.0508L155.742 31.2356L155.212 31.7659L155.02 31.7488L154.159 30.8537C153.861 30.8075 153.496 30.81 153.122 30.8367C152.751 30.8683 152.372 30.9364 152.053 31.0216C152.053 31.0216 151.428 31.6832 150.803 32.3447C150.178 33.0088 149.554 33.6703 149.554 33.6703C149.149 34.1009 149.168 34.1811 149.547 34.7527L149.887 35.2611L149.715 35.4362C149.715 35.4362 149.163 34.8768 148.607 34.3222C148.046 33.7701 147.481 33.2204 147.481 33.2204L147.649 33.0404L148.183 33.3809C148.562 33.6266 148.659 33.6047 149.054 33.179C149.054 33.179 149.272 32.9407 149.606 32.5855C149.935 32.2304 150.377 31.7561 150.817 31.2818C151.26 30.8051 151.7 30.3308 152.031 29.9757C152.363 29.6181 152.583 29.3798 152.583 29.3798L151.852 28.4093L151.986 28.2609L153.634 29.083L153.705 29.2703L152.566 30.4767L152.649 30.5594C153.224 30.4427 153.752 30.3551 154.235 30.4013C154.722 30.45 155.162 30.6324 155.567 31.0508ZM155.851 39.8484L155.87 40.0941C155.392 40.2059 154.871 40.2035 154.381 40.0722C153.891 39.9433 153.428 39.683 153.07 39.2719C152.753 38.9071 152.535 38.5204 152.412 38.1166C152.289 37.7153 152.259 37.2969 152.313 36.8761C152.37 36.4553 152.507 36.0345 152.727 35.6235C152.945 35.2173 153.245 34.8208 153.617 34.4535C154.026 34.0498 154.455 33.7409 154.89 33.5268C155.323 33.3128 155.766 33.196 156.194 33.1717C156.622 33.1547 157.041 33.2277 157.429 33.3979C157.818 33.5633 158.175 33.826 158.483 34.1787C158.726 34.4535 158.906 34.7697 159.017 35.1054C159.126 35.4386 159.169 35.7913 159.14 36.144C159.11 36.4967 159.006 36.8469 158.828 37.185C158.648 37.5207 158.397 37.8393 158.064 38.1287L157.877 38.1774C157.877 38.1774 157.683 37.9439 157.387 37.5936C157.091 37.2458 156.696 36.7837 156.294 36.3216C155.889 35.8667 155.487 35.4143 155.181 35.0762C154.874 34.7357 154.668 34.5119 154.668 34.5119C154.545 34.6116 154.443 34.7114 154.332 34.8208C153.962 35.1808 153.667 35.5481 153.449 35.9105C153.234 36.2729 153.094 36.6378 153.03 36.9977C152.969 37.3553 152.987 37.7031 153.089 38.0412C153.189 38.3768 153.371 38.7003 153.638 39.0092C153.927 39.3425 154.249 39.5589 154.613 39.6879C154.978 39.8192 155.387 39.8654 155.851 39.8484ZM158.087 34.4C157.64 33.8941 157.119 33.6849 156.582 33.6922C156.043 33.7068 155.496 33.933 154.985 34.2857C154.985 34.2857 155.165 34.4681 155.43 34.743C155.697 35.0178 156.05 35.3875 156.4 35.7597C156.748 36.1318 157.098 36.5088 157.356 36.791C157.614 37.0731 157.787 37.2629 157.787 37.2629C158.239 36.8421 158.499 36.3361 158.556 35.8302C158.608 35.3267 158.457 34.8184 158.087 34.4ZM157.29 44.3214L157.127 44.1098C157.127 44.1098 157.328 43.7571 157.628 43.222C157.775 42.9569 157.945 42.6431 158.132 42.3074C158.315 41.9742 158.509 41.6142 158.7 41.2543C158.892 40.8943 159.086 40.5343 159.264 40.1913C159.441 39.8533 159.607 39.5346 159.746 39.2622C160.028 38.7149 160.215 38.3477 160.215 38.3477C160.598 37.5693 160.601 37.3942 160.343 36.9637L160.527 36.808C160.527 36.808 160.972 37.3504 161.415 37.8953C161.848 38.445 162.281 39.0019 162.281 39.0019L162.094 39.1552C161.353 38.2577 161.041 38.3477 160.75 38.9022C160.75 38.9022 160.596 39.1941 160.364 39.6295C160.134 40.0649 159.824 40.6438 159.512 41.2202C159.197 41.7942 158.878 42.3658 158.639 42.7939C158.397 43.222 158.236 43.5041 158.236 43.5041L158.305 43.5941C158.305 43.5941 158.61 43.4944 159.065 43.3485C159.521 43.2025 160.13 43.0104 160.74 42.8207C161.351 42.6334 161.966 42.451 162.428 42.3147C162.889 42.181 163.199 42.091 163.199 42.091C163.857 41.9013 163.895 41.5899 163.313 40.7581L163.504 40.6073C163.504 40.6073 163.883 41.1181 164.262 41.6288C164.633 42.1445 165 42.6626 165 42.6626L164.806 42.8061C164.415 42.4315 164.096 42.4315 163.218 42.6528C163.218 42.6528 162.842 42.7501 162.283 42.8985C162.002 42.9715 161.675 43.059 161.327 43.1539C160.979 43.2512 160.608 43.3509 160.239 43.4555C159.867 43.5601 159.498 43.6671 159.152 43.7668C158.804 43.8666 158.483 43.9614 158.206 44.0441C157.657 44.2095 157.29 44.3214 157.29 44.3214Z"/>
</mask>
<path d="M5.41228 33.7725C5.41228 33.7725 5.95659 34.1471 6.50326 34.5168C7.04993 34.8889 7.59423 35.2611 7.59423 35.2611L7.40727 35.48L6.2808 35.0835C5.48564 34.8038 5.18746 34.8622 4.48696 35.6575L3.1901 37.1461C3.1901 37.1461 3.59951 37.4842 4.21244 37.9901C4.52246 38.2406 4.87744 38.5398 5.26082 38.856C5.64657 39.1746 6.05598 39.5127 6.46539 39.8533C6.8748 40.1913 7.28658 40.5246 7.6676 40.8456C8.05098 41.1618 8.40832 41.4586 8.71361 41.7115C9.33127 42.215 9.73832 42.558 9.73832 42.558C10.2235 42.9593 10.3323 42.9374 10.7157 42.5677L11.3073 41.9912L11.518 42.1664C11.518 42.1664 10.9547 42.8669 10.4033 43.5747C9.85665 44.2825 9.31707 45 9.31707 45L9.10409 44.8322L9.51823 44.1098C9.79275 43.6331 9.78092 43.5358 9.29104 43.1344C9.29104 43.1344 8.87926 42.7988 8.25923 42.2977C7.95395 42.0448 7.59187 41.7529 7.20612 41.4391C6.82037 41.1229 6.40859 40.7897 5.99682 40.454C5.58267 40.1184 5.17326 39.7827 4.78515 39.4689C4.3994 39.1552 4.03732 38.8633 3.72967 38.6079C3.10964 38.1069 2.70022 37.7712 2.70022 37.7712L1.57612 39.4033C0.984481 40.2765 0.99158 40.5927 1.42939 41.3224L2.05889 42.3707L1.8956 42.5993C1.8956 42.5993 1.41992 42.1372 0.946617 41.675C0.473308 41.208 0 40.7459 0 40.7459C0 40.7459 0.321849 40.2935 0.809357 39.6246C1.05074 39.2914 1.33946 38.9022 1.64948 38.4887C1.96423 38.0752 2.29791 37.6374 2.63396 37.1996C2.97474 36.7642 3.31789 36.3337 3.63974 35.93C3.96159 35.5238 4.26687 35.1516 4.52719 34.833C5.05493 34.1982 5.41228 33.7725 5.41228 33.7725ZM7.89952 32.8725C7.6392 33.1693 7.24872 33.2033 6.9742 32.9455C6.69731 32.6901 6.69021 32.2912 6.95527 31.9921C7.22032 31.6905 7.6108 31.6613 7.88295 31.9191C8.1551 32.1769 8.15984 32.5758 7.89952 32.8725ZM15.366 37.6861C15.366 37.6861 14.8737 38.2309 14.3815 38.7782C13.8987 39.3303 13.4136 39.8873 13.4136 39.8873L13.2337 39.7219L13.5485 39.1625C13.7804 38.7684 13.7827 38.6955 13.3402 38.2844C13.3402 38.2844 13.1035 38.0655 12.7462 37.7299C12.3912 37.4015 11.9179 36.9588 11.4422 36.5186C10.9666 36.0783 10.4909 35.6356 10.1335 35.3049C9.77618 34.9716 9.5419 34.7503 9.5419 34.7503L8.61421 35.5286L8.46512 35.3948L9.22005 33.6801L9.40227 33.6022C9.40227 33.6022 9.67679 33.8625 10.0909 34.2517C10.2992 34.4462 10.5382 34.6749 10.7962 34.9181C11.0541 35.1613 11.331 35.4216 11.6055 35.6819C11.8824 35.9397 12.1546 36.2024 12.4125 36.4456C12.6705 36.6888 12.9119 36.9126 13.1201 37.1096C13.5343 37.4988 13.8064 37.759 13.8064 37.759C14.2466 38.1725 14.3152 38.1628 14.6773 37.8928L15.1908 37.5134L15.366 37.6861ZM18.0094 34.9132C18.0094 34.9132 17.4935 35.4362 16.9823 35.964C16.4759 36.4967 15.9718 37.0318 15.9718 37.0318L15.7967 36.8591L16.1303 36.3118C16.3788 35.9275 16.3883 35.857 15.96 35.4265C15.96 35.4265 15.5908 35.0543 15.0299 34.49C14.753 34.2103 14.4288 33.8844 14.0809 33.5317C13.733 33.1815 13.3615 32.8069 12.9899 32.4323C12.6184 32.0577 12.2445 31.6807 11.899 31.3329C11.5511 30.9826 11.2269 30.6543 10.9453 30.3721C10.3891 29.8103 10.0176 29.4406 10.0176 29.4406L9.01652 30.1849L8.87216 30.0438L9.73595 28.3047L9.91344 28.239C9.91344 28.239 10.3229 28.6598 10.9358 29.2849C11.2387 29.5987 11.5984 29.9635 11.9818 30.3575C12.3652 30.7467 12.7722 31.1626 13.1793 31.581C13.5887 31.9994 13.9981 32.4153 14.3791 32.8069C14.7625 33.2009 15.1198 33.5658 15.4251 33.8771C16.0381 34.5071 16.4451 34.923 16.4451 34.923C16.8711 35.3559 16.9468 35.3365 17.3089 35.0884L17.839 34.7357L18.0094 34.9132ZM26.5408 26.8088L27.1064 26.5315L27.2555 26.731C27.2555 26.731 26.678 27.1785 26.1053 27.6358C25.5326 28.0955 24.9694 28.5601 24.9694 28.5601L24.8179 28.3655L25.2202 27.8669C25.5113 27.5166 25.5066 27.4242 25.0546 26.8283C25.0546 26.8283 24.5126 26.1181 23.9707 25.4103C23.4335 24.7 22.8916 23.9898 22.8916 23.9898C22.546 23.5374 22.184 23.2431 21.7935 23.1604C21.4006 23.0752 20.9794 23.1993 20.5179 23.5836C20.2055 23.8414 19.9973 24.1455 19.8553 24.52C19.7133 24.8946 19.6376 25.3324 19.5879 25.8724C19.6991 25.9891 19.8198 26.1108 19.9405 26.2543C19.9405 26.2543 20.5321 26.9742 21.1238 27.6917C21.7154 28.4117 22.3047 29.1292 22.3047 29.1292C22.7827 29.7081 22.8797 29.7203 23.2631 29.5062L23.8169 29.1998L23.9731 29.3944C23.9731 29.3944 23.4146 29.8687 22.8632 30.3503C22.3141 30.8343 21.7674 31.3256 21.7674 31.3256L21.6089 31.1383L21.9899 30.6227C22.2668 30.2603 22.2573 30.1654 21.7793 29.5914C21.7793 29.5914 21.2066 28.9055 20.6362 28.2244C20.0659 27.5409 19.4932 26.855 19.4932 26.855C19.1288 26.4172 18.7572 26.1375 18.3786 26.0597C17.9975 25.9794 17.6023 26.1059 17.1906 26.4805C16.8734 26.7699 16.6676 27.0983 16.535 27.4972C16.4049 27.8936 16.3457 28.3558 16.3244 28.8982C16.3244 28.8982 16.5066 29.1049 16.7835 29.409C17.0557 29.713 17.4225 30.1168 17.7869 30.5254C18.1514 30.9267 18.5182 31.3329 18.7903 31.6394C19.0649 31.941 19.2471 32.1453 19.2471 32.1453C19.6541 32.5953 19.7228 32.5904 20.1014 32.3496L20.6457 32.0188L20.809 32.2037C20.809 32.2037 20.2694 32.7047 19.7393 33.2106C19.214 33.719 18.6886 34.2322 18.6886 34.2322L18.5206 34.0522L18.8779 33.522C19.1382 33.1498 19.1524 33.0769 18.743 32.6293C18.743 32.6293 18.5229 32.3885 18.1916 32.0285C17.865 31.6686 17.4272 31.1894 16.987 30.7127C16.5492 30.2311 16.1114 29.7495 15.7825 29.3895C15.4512 29.0271 15.2334 28.7911 15.2334 28.7911L14.2466 29.4868L14.1093 29.3433L14.9991 27.6942L15.1861 27.6334L15.9789 28.5139L16.0523 28.4458C16.0144 27.9398 16.0736 27.4364 16.2226 26.9839C16.3741 26.5291 16.6155 26.1302 16.9468 25.8286C17.3231 25.4857 17.7041 25.2984 18.0851 25.257C18.4661 25.2157 18.8448 25.3227 19.2258 25.5732L19.3062 25.5075C19.2897 24.9773 19.3701 24.469 19.5382 24.0238C19.7086 23.5812 19.9689 23.1993 20.3002 22.922C20.8445 22.472 21.3841 22.292 21.9 22.3723C22.4159 22.4574 22.9081 22.8053 23.3625 23.4133C23.3625 23.4133 23.921 24.1576 24.4819 24.9019C25.0404 25.6486 25.6012 26.3905 25.6012 26.3905C26.0509 26.9937 26.1527 27.0083 26.5408 26.8088ZM31.4774 21.7059L31.7164 21.7156C31.7614 22.2166 31.688 22.7493 31.501 23.2309C31.3117 23.7125 30.9993 24.1479 30.5568 24.4617C30.1663 24.7389 29.7616 24.9092 29.3593 24.9822C28.9546 25.0551 28.5476 25.0332 28.15 24.9214C27.7477 24.8119 27.362 24.6149 26.9928 24.3376C26.6283 24.0628 26.2852 23.7076 25.9775 23.282C25.6415 22.8101 25.4025 22.3334 25.251 21.8615C25.1019 21.3921 25.0475 20.9275 25.0806 20.4848C25.1161 20.047 25.2439 19.6311 25.4569 19.2565C25.6675 18.8844 25.9681 18.556 26.3443 18.286C26.6449 18.072 26.9715 17.9309 27.3099 17.8604C27.6459 17.7923 27.9891 17.7971 28.3275 17.8725C28.6612 17.9479 28.9901 18.0988 29.2907 18.325C29.5936 18.5512 29.8681 18.8479 30.1024 19.2249L30.1237 19.4219C30.1237 19.4219 29.8729 19.5898 29.4989 19.8476C29.1227 20.1005 28.6281 20.4484 28.1334 20.7937C27.6388 21.144 27.1466 21.4991 26.7822 21.7642C26.4153 22.0366 26.174 22.2191 26.174 22.2191C26.252 22.3553 26.3349 22.472 26.4272 22.6034C26.7254 23.0242 27.0425 23.372 27.3643 23.642C27.6862 23.9071 28.0199 24.0968 28.3583 24.2063C28.6943 24.3157 29.0351 24.3425 29.3735 24.2841C29.7096 24.2257 30.048 24.0822 30.3793 23.8487C30.7343 23.5982 30.9875 23.299 31.1603 22.9439C31.333 22.5912 31.43 22.1826 31.4774 21.7059ZM26.51 18.7166C25.9633 19.1082 25.6935 19.6116 25.632 20.1589C25.5776 20.7086 25.7219 21.2997 25.9965 21.8615C25.9965 21.8615 26.1952 21.7034 26.4934 21.4675C26.794 21.234 27.1987 20.9202 27.601 20.6113C28.008 20.3049 28.4127 20.0008 28.7203 19.7722C29.028 19.546 29.2339 19.3976 29.2339 19.3976C28.8836 18.882 28.4316 18.5487 27.9512 18.4271C27.4708 18.3055 26.962 18.3931 26.51 18.7166ZM35.7419 20.8789C35.7419 20.8789 35.1218 21.2607 34.4994 21.6475C33.8865 22.0439 33.2712 22.438 33.2712 22.438L33.1434 22.2312L33.5978 21.7813C33.9244 21.4651 33.9504 21.3994 33.6333 20.8764C33.6333 20.8764 33.3611 20.424 32.947 19.7406C32.7435 19.4025 32.5044 19.006 32.2465 18.5779C31.9885 18.1523 31.7117 17.6999 31.4395 17.245C31.165 16.7902 30.8905 16.3329 30.6325 15.9097C30.3769 15.484 30.1355 15.0876 29.9297 14.7446C29.5202 14.0636 29.2434 13.6112 29.2434 13.6112L28.0979 14.0928L27.9915 13.9225L29.2339 12.4388L29.4208 12.4242C29.4208 12.4242 29.7214 12.9277 30.171 13.6866C30.3959 14.0636 30.6585 14.5062 30.9402 14.9805C31.2218 15.4548 31.5223 15.9583 31.8205 16.4642C32.1234 16.9702 32.4216 17.4736 32.7032 17.9479C32.9849 18.4222 33.2475 18.8649 33.47 19.2444C33.9244 20.0008 34.2226 20.5043 34.2226 20.5043C34.5349 21.0297 34.613 21.0297 35.0225 20.8764L35.6188 20.6648L35.7419 20.8789ZM42.1907 16.6929L42.5883 16.5737L42.664 16.7318L41.4381 17.7971L41.2465 17.7777L40.7163 16.7123L40.6193 16.7634C40.5128 17.2961 40.3519 17.7558 40.1152 18.1352C39.881 18.5171 39.5733 18.8236 39.1615 19.0473C38.8089 19.2444 38.4445 19.3563 38.0777 19.3781C37.7132 19.4025 37.344 19.3392 36.9867 19.1933C36.627 19.0449 36.2815 18.8163 35.9501 18.5025C35.6236 18.1839 35.3183 17.785 35.0461 17.3034C34.7621 16.7999 34.5728 16.2891 34.4781 15.7905C34.3835 15.2919 34.3811 14.8103 34.4663 14.3579C34.5562 13.9055 34.7314 13.4895 34.9917 13.1271C35.252 12.7623 35.5952 12.4558 36.014 12.2247C36.3382 12.0472 36.724 11.894 37.1287 11.8234C37.5333 11.7504 37.9522 11.7577 38.3427 11.894C38.3427 11.894 38.0019 11.208 37.6611 10.5197C37.3204 9.82893 36.9796 9.13815 36.9796 9.13815L35.7987 9.51516L35.7087 9.33517L37.0671 7.97065L37.2541 7.96822C37.2541 7.96822 37.5026 8.48387 37.8789 9.25734C38.0658 9.63921 38.2859 10.0916 38.5202 10.5756C38.7545 11.0597 39.003 11.5729 39.2515 12.0885C39.5023 12.6042 39.7508 13.1198 39.9827 13.6039C40.2194 14.0855 40.4395 14.5354 40.6241 14.9222C41.0003 15.6956 41.2488 16.2089 41.2488 16.2089C41.521 16.7731 41.663 16.8437 42.1907 16.6929ZM39.1047 18.3687C39.455 18.1766 39.739 17.8823 39.9614 17.5101C40.1862 17.1404 40.3519 16.6929 40.4608 16.1943C40.4608 16.1943 40.1365 15.5302 39.8076 14.8638C39.481 14.2022 39.1544 13.5382 39.1544 13.5382C38.8278 12.879 38.3782 12.4947 37.867 12.3537C37.3559 12.215 36.7808 12.3172 36.2199 12.6212C35.9075 12.7963 35.6472 13.025 35.4508 13.2998C35.2544 13.5771 35.1218 13.8982 35.0603 14.2557C35.0011 14.6133 35.0153 15.0073 35.1053 15.4281C35.1952 15.844 35.3632 16.2891 35.6188 16.7464C35.8034 17.0845 36.0211 17.408 36.2649 17.6877C36.5063 17.9674 36.7784 18.2082 37.0719 18.3785C37.3653 18.5463 37.6848 18.6533 38.0232 18.6582C38.3593 18.6679 38.7237 18.5804 39.1047 18.3687ZM52.7265 12.1834L53.1383 12.1129L53.1951 12.2807L51.8509 13.1855L51.6616 13.1442L51.264 12.0156L51.1575 12.0569C50.9919 12.5726 50.7765 13.0055 50.4973 13.3558C50.2204 13.706 49.8772 13.9687 49.4465 14.1438C49.0702 14.2971 48.694 14.3579 48.3295 14.336C47.9651 14.3141 47.6054 14.2071 47.2693 14.0149C46.9285 13.8252 46.6114 13.5552 46.3227 13.2001C46.0316 12.845 45.7736 12.412 45.5607 11.8988C45.3429 11.3637 45.2128 10.8335 45.1773 10.3251C45.1418 9.82163 45.1962 9.34004 45.3335 8.90222C45.4755 8.46441 45.7003 8.07281 46.0008 7.74688C46.3014 7.41852 46.6777 7.15583 47.1202 6.9807C47.4634 6.8445 47.8657 6.73747 48.2774 6.71802C48.6869 6.69612 49.1034 6.75207 49.4702 6.94179C49.4702 6.94179 49.217 6.21453 48.959 5.48727C48.7034 4.76001 48.4478 4.03519 48.4478 4.03519L47.2291 4.26382L47.1581 4.07167L48.6703 2.88471L48.8549 2.90903C48.8549 2.90903 49.0418 3.449 49.3235 4.26382C49.4631 4.66759 49.6264 5.14432 49.8039 5.65267C49.979 6.16102 50.1636 6.70342 50.3529 7.24583C50.5399 7.79066 50.7268 8.33063 50.9019 8.83898C51.0771 9.34733 51.2427 9.82406 51.38 10.2303C51.6616 11.0426 51.8462 11.5851 51.8462 11.5851C52.0544 12.1761 52.187 12.2685 52.7265 12.1834ZM49.4655 13.4628C49.8346 13.312 50.1541 13.0566 50.4192 12.7161C50.6866 12.3755 50.9019 11.9523 51.0723 11.4707C51.0723 11.4707 50.8239 10.7727 50.5777 10.0697C50.3316 9.37166 50.0855 8.67359 50.0855 8.67359C49.8394 7.97795 49.4347 7.54257 48.9448 7.33582C48.4549 7.13394 47.8751 7.16069 47.2788 7.39663C46.9498 7.53284 46.6635 7.72499 46.4363 7.97552C46.2091 8.22604 46.0411 8.52765 45.9369 8.87547C45.8352 9.22329 45.802 9.61732 45.8423 10.0454C45.8825 10.4686 45.9961 10.9308 46.1949 11.4197C46.3393 11.7748 46.5191 12.1226 46.7274 12.4315C46.9356 12.7404 47.1746 13.0128 47.4492 13.2171C47.7189 13.4214 48.0242 13.5674 48.3603 13.6136C48.694 13.6647 49.0608 13.6233 49.4655 13.4628ZM52.9301 3.2909C52.5585 3.41009 52.2059 3.23983 52.0923 2.87741C51.974 2.51743 52.1728 2.16232 52.5443 2.0407C52.9206 1.91909 53.2732 2.09421 53.3821 2.46149C53.4909 2.8239 53.2993 3.17172 52.9301 3.2909ZM57.0147 11.3199C57.0147 11.3199 56.319 11.534 55.6256 11.7529C54.9416 11.9791 54.253 12.2077 54.253 12.2077L54.1772 11.9718L54.7215 11.6532C55.1144 11.4318 55.1499 11.371 54.97 10.7873C54.97 10.7873 54.873 10.4735 54.7286 9.99919C54.5819 9.53219 54.3902 8.90465 54.1962 8.27712C54.0021 7.64959 53.8081 7.02205 53.6637 6.55019C53.517 6.07832 53.4223 5.76699 53.4223 5.76699L52.2438 5.95427L52.1822 5.75969L53.6708 4.67245L53.8649 4.70164C53.8649 4.70164 53.9737 5.06892 54.1394 5.61862C54.2222 5.8959 54.3192 6.21696 54.4234 6.55992C54.5275 6.9053 54.6363 7.27258 54.7476 7.63986C54.8564 8.00714 54.9677 8.37441 55.0718 8.71737C55.1759 9.06032 55.2706 9.37895 55.3534 9.65867C55.5191 10.2084 55.6303 10.5732 55.6303 10.5732C55.8054 11.1594 55.8741 11.1837 56.319 11.1351L56.9461 11.0816L57.0147 11.3199ZM58.8204 9.83623C58.8204 9.83623 59.5588 9.63434 60.2947 9.43733C61.0331 9.25004 61.7738 9.06519 61.7738 9.06519C62.356 8.92655 62.8601 8.95816 63.2506 9.16491C63.6387 9.36679 63.9085 9.74137 64.0221 10.2765C64.0978 10.6413 64.0694 10.9867 63.9605 11.3078C63.854 11.6288 63.6623 11.9256 63.4068 12.1883C63.1535 12.4558 62.8411 12.6869 62.4814 12.8815C62.1194 13.0785 61.717 13.2342 61.2863 13.3485C60.8887 13.4506 60.5219 13.5139 60.1883 13.5309C59.8569 13.5479 59.5588 13.5212 59.3032 13.4506C58.7873 13.3071 58.4346 12.9836 58.2903 12.4704C58.198 12.142 58.2217 11.8307 58.3282 11.5291C58.437 11.2275 58.6311 10.9332 58.8772 10.6365L58.8488 10.5246L58.1696 10.6413L58.0536 10.4808C58.0536 10.4808 58.2359 9.85082 58.4299 9.22572C58.624 8.60305 58.8251 7.97552 58.8251 7.97552C58.3873 7.90741 58.0016 7.71283 57.6821 7.40879C57.3626 7.10718 57.1189 6.69126 56.9769 6.18048C56.7828 5.47025 56.8893 4.8038 57.2466 4.25896C57.4289 3.98654 57.6726 3.74574 57.9732 3.54386C58.2785 3.34441 58.6358 3.18631 59.0499 3.07929C59.6321 2.92849 60.2001 2.95281 60.6687 3.15226L62.0058 2.0334L62.1951 2.06746L62.3773 2.93579L60.9195 3.27631C61.4544 3.58035 61.8448 4.13248 62.0034 4.85974C62.0815 5.22215 62.0886 5.56997 62.0271 5.89347C61.9655 6.21696 61.8401 6.5137 61.6579 6.77882C61.4733 7.04394 61.2366 7.27745 60.9455 7.46716C60.6521 7.65688 60.3137 7.80525 59.9256 7.90741C59.6818 7.97065 59.4546 7.99984 59.2227 8.00227L58.8204 9.83623ZM57.7223 5.94941C57.8714 6.53803 58.1791 6.97341 58.5766 7.2288C58.9719 7.48662 59.4617 7.56446 59.9918 7.42582C60.5243 7.28717 60.9077 6.98557 61.123 6.57208C61.3431 6.15859 61.3928 5.63078 61.2627 5.04946C61.1301 4.4657 60.8367 4.02059 60.4367 3.76034C60.0344 3.49765 59.5256 3.41738 58.9719 3.56089C58.4157 3.70926 58.0252 4.02059 57.8146 4.44138C57.604 4.85974 57.5709 5.38268 57.7223 5.94941ZM61.3573 12.8669C62.0034 12.7015 62.5548 12.3877 62.9169 11.9864C63.2837 11.5875 63.4635 11.0962 63.35 10.5756C63.2032 9.89217 62.6991 9.5784 61.7786 9.79974C61.7786 9.79974 61.1798 9.94811 60.5811 10.0989C59.9824 10.2594 59.386 10.4224 59.386 10.4224C58.9056 10.9016 58.7849 11.5096 58.9411 12.0837C59.0641 12.5434 59.3647 12.8182 59.7859 12.9374C60.2048 13.0566 60.7444 13.025 61.3573 12.8669ZM70.8069 8.3355L70.549 8.36955C70.549 8.36955 70.3526 8.01443 70.052 7.47933C69.9029 7.21664 69.7254 6.90773 69.5361 6.57451C69.3468 6.24372 69.1433 5.89103 68.935 5.53835C68.7291 5.1881 68.5232 4.83298 68.3244 4.50462C68.1327 4.17626 67.9458 3.86979 67.7872 3.6071C67.4654 3.08173 67.2548 2.73391 67.2548 2.73391C66.7956 1.99935 66.6465 1.90936 66.159 1.92152L66.1164 1.67829C66.1164 1.67829 66.7956 1.55424 67.4772 1.43992C68.1611 1.33047 68.8427 1.22102 68.8427 1.22102L68.8782 1.46668C67.7494 1.67586 67.6665 1.99692 67.9907 2.53689C67.9907 2.53689 68.1588 2.8166 68.4049 3.24226C68.6557 3.66548 68.9894 4.23464 69.3136 4.80136C69.6402 5.36809 69.9621 5.93968 70.2011 6.36776C70.4401 6.79585 70.5963 7.08043 70.5963 7.08043L70.7075 7.06583C70.7075 7.06583 70.7738 6.74477 70.8827 6.26804C70.9868 5.78888 71.1335 5.15161 71.2826 4.51435C71.4341 3.87709 71.5879 3.23983 71.7038 2.76066C71.8222 2.28393 71.9003 1.96287 71.9003 1.96287C72.0754 1.28669 71.8316 1.0921 70.8401 1.19183L70.8093 0.941301C70.8093 0.941301 71.4246 0.863467 72.0494 0.790498C72.6694 0.715097 73.2871 0.646992 73.2871 0.646992L73.3155 0.895087C72.7996 1.05319 72.6386 1.33777 72.383 2.22799C72.383 2.22799 72.2789 2.61229 72.1204 3.18388C72.0423 3.46846 71.9523 3.80412 71.8553 4.16167C71.7606 4.51922 71.6589 4.89865 71.5618 5.28053C71.4625 5.6624 71.3654 6.04184 71.2755 6.40182C71.1856 6.75937 71.1027 7.09502 71.0341 7.3796C70.8969 7.95119 70.8069 8.3355 70.8069 8.3355ZM77.7267 7.69094C77.2723 7.72012 76.8487 7.66175 76.463 7.51581C76.0772 7.37231 75.727 7.1461 75.4288 6.8445C75.1282 6.54532 74.8774 6.16832 74.6881 5.72564C74.4964 5.28539 74.3709 4.77704 74.3141 4.21275C74.2668 3.66305 74.307 3.14253 74.423 2.66823C74.5461 2.19637 74.7472 1.77072 75.0146 1.4083C75.2844 1.04832 75.6205 0.751581 76.0062 0.537539C76.3967 0.323496 76.8345 0.194584 77.3078 0.162964C77.7953 0.128912 78.2521 0.197017 78.6615 0.350251C79.0709 0.503486 79.4306 0.741852 79.7335 1.05562C80.0341 1.37182 80.2731 1.76099 80.4435 2.21339C80.6091 2.66823 80.7085 3.18388 80.7251 3.75547C80.7417 4.30274 80.6659 4.81839 80.5239 5.28053C80.382 5.74753 80.1666 6.15859 79.8968 6.50641C79.6294 6.85422 79.3052 7.13637 78.9384 7.33825C78.5715 7.54257 78.1645 7.66418 77.7267 7.69094ZM77.7527 7.2361C78.1432 7.21177 78.4769 7.09016 78.7585 6.89557C79.0425 6.70099 79.2744 6.43587 79.459 6.12697C79.6412 5.8132 79.7738 5.46052 79.8566 5.08594C79.9441 4.71137 79.9773 4.31977 79.9654 3.93546C79.9489 3.51954 79.885 3.09875 79.7714 2.70229C79.6554 2.30339 79.4898 1.93125 79.2673 1.61018C79.0472 1.29398 78.7703 1.02643 78.439 0.851305C78.1053 0.67618 77.7196 0.586185 77.2771 0.615372C76.8605 0.639695 76.5032 0.771039 76.2074 0.970488C75.9092 1.17237 75.6725 1.44722 75.4903 1.76828C75.3105 2.08448 75.1874 2.4469 75.1188 2.8239C75.0501 3.20091 75.0336 3.59737 75.0667 3.97924C75.1022 4.3903 75.185 4.81109 75.3128 5.20269C75.4454 5.59429 75.6228 5.96157 75.8477 6.2729C76.0701 6.57937 76.3423 6.8372 76.657 7.00746C76.9741 7.17529 77.3386 7.26528 77.7527 7.2361ZM86.3196 0.0364847L86.5705 0.0437815L86.5492 0.805092L86.4024 0.929139L85.1766 0.902384C84.9305 1.07994 84.6678 1.34263 84.4193 1.62964C84.1755 1.91665 83.9436 2.23528 83.7732 2.52716C83.7732 2.52716 83.7732 3.449 83.7685 4.37328C83.7685 5.29512 83.7685 6.21696 83.7685 6.21696C83.7661 6.81531 83.8347 6.86152 84.4926 6.9953L85.0819 7.11935L85.0772 7.36744C85.0772 7.36744 84.301 7.36258 83.5271 7.36014C82.7509 7.36014 81.9746 7.37231 81.9746 7.37231L81.9723 7.12421L82.5876 6.98557C83.0254 6.89071 83.0774 6.80315 83.0727 6.21696C83.0727 6.21696 83.0751 5.89103 83.0703 5.39728C83.068 4.90595 83.0632 4.24923 83.0609 3.59251C83.0561 2.93579 83.0538 2.27907 83.049 1.78774C83.0467 1.29398 83.0467 0.968056 83.0467 0.968056L81.8634 0.788065L81.861 0.586185L83.6005 0L83.7756 0.0899951V1.76828L83.8915 1.77072C84.2276 1.27209 84.5447 0.831847 84.9257 0.520513C85.3067 0.209178 85.7493 0.0218908 86.3196 0.0364847ZM92.4726 6.16102L92.6548 6.32398C92.3851 6.74477 92.0088 7.11691 91.5662 7.37231C91.1261 7.6277 90.6196 7.77363 90.08 7.72985C89.6091 7.69823 89.1902 7.57419 88.8305 7.37231C88.4684 7.17042 88.1655 6.89071 87.9218 6.55019C87.6756 6.20723 87.491 5.8059 87.3704 5.35349C87.252 4.90595 87.2 4.40733 87.2189 3.87709C87.2402 3.29577 87.3396 2.76796 87.51 2.30096C87.6756 1.83882 87.9147 1.43992 88.2081 1.11399C88.5039 0.795363 88.8542 0.552132 89.247 0.394033C89.6399 0.238365 90.0729 0.172693 90.5321 0.204313C90.8941 0.228636 91.2373 0.328361 91.5449 0.488893C91.8478 0.651857 92.1176 0.873196 92.333 1.14805C92.5507 1.4229 92.714 1.75126 92.8158 2.12097C92.9104 2.49068 92.9459 2.90174 92.901 3.34198L92.7992 3.51224C92.7992 3.51224 92.501 3.48306 92.0537 3.44414C91.6041 3.40279 91.0054 3.35658 90.4114 3.31279C89.8126 3.27145 89.2139 3.23253 88.7642 3.20577C88.3146 3.18145 88.0164 3.16929 88.0164 3.16929C87.9928 3.32982 87.9856 3.47333 87.9809 3.63143C87.9596 4.15437 87.9951 4.62867 88.0827 5.04703C88.175 5.46052 88.3193 5.82293 88.5181 6.12453C88.7146 6.42614 88.9654 6.6645 89.266 6.83477C89.5618 7.00503 89.9144 7.10718 90.3143 7.1388C90.745 7.17042 91.1261 7.09746 91.4739 6.92963C91.8242 6.76666 92.1508 6.50641 92.4726 6.16102ZM90.3995 0.64456C89.7345 0.600778 89.2186 0.82455 88.8376 1.21372C88.4613 1.60775 88.2199 2.16232 88.0898 2.78012C88.0898 2.78012 88.3406 2.78255 88.7193 2.78985C89.0979 2.79715 89.602 2.81174 90.1061 2.82633C90.6078 2.84822 91.1119 2.87012 91.4881 2.88714C91.8668 2.9066 92.12 2.92119 92.12 2.92119C92.1555 2.29366 92.004 1.74639 91.7035 1.34506C91.4006 0.941301 90.9486 0.683477 90.3995 0.64456ZM95.8426 8.3282C95.4592 8.27469 95.0782 8.18469 94.7232 8.06065C94.3659 7.9439 94.0345 7.79309 93.7505 7.63256L93.9375 5.85698L94.1742 5.88374L94.3138 6.50154C94.4132 6.93449 94.5694 7.24826 94.8321 7.46716C95.0924 7.6885 95.4616 7.82228 95.9846 7.89038C96.3632 7.9439 96.7608 7.88795 97.0826 7.71283C97.4045 7.53527 97.6482 7.23366 97.7098 6.78612C97.7737 6.3702 97.6743 6.05643 97.4329 5.77185C97.1868 5.48484 96.7892 5.22945 96.252 4.92784C95.7526 4.64569 95.2604 4.33436 94.9102 3.94033C94.5575 3.55116 94.3446 3.07929 94.4108 2.47608C94.4723 1.8972 94.7563 1.45208 95.206 1.1748C95.6603 0.897519 96.278 0.790498 96.9927 0.890222C97.3122 0.934004 97.6766 1.0313 98.0222 1.1675C98.3677 1.30858 98.6966 1.48614 98.9546 1.70018L98.7037 3.36874L98.4623 3.33225L98.3109 2.6731C98.2044 2.23042 98.0363 1.91909 97.795 1.70504C97.5536 1.49587 97.2388 1.38155 96.8484 1.3256C96.465 1.27696 96.0508 1.3256 95.7219 1.49587C95.3953 1.66856 95.1539 1.96287 95.1042 2.39582C95.0545 2.80931 95.1681 3.1328 95.4261 3.42468C95.684 3.72142 96.084 3.99141 96.6212 4.30031C97.1087 4.58002 97.5962 4.88649 97.937 5.27323C98.2777 5.6624 98.4718 6.1294 98.3819 6.74234C98.2872 7.35771 97.9677 7.79553 97.5157 8.06065C97.0637 8.32577 96.4792 8.41576 95.8426 8.3282ZM109.057 10.5878L109.616 10.887L109.55 11.1229C109.55 11.1229 108.849 10.921 108.153 10.724C107.453 10.5294 106.752 10.3421 106.752 10.3421L106.809 10.1038L107.441 10.1378C107.888 10.1646 107.957 10.1062 108.151 9.37652C108.151 9.37652 108.376 8.50332 108.603 7.63499C108.83 6.76666 109.055 5.89347 109.055 5.89347C109.199 5.33647 109.209 4.85974 109.046 4.49246C108.882 4.12032 108.551 3.85763 108.021 3.71899C107.616 3.6144 107.245 3.6071 106.847 3.70439C106.452 3.80898 106.031 4.01816 105.524 4.34652C105.524 4.34652 105.465 4.61894 105.375 5.02027C105.287 5.42403 105.169 5.96157 105.048 6.49911C104.93 7.03665 104.814 7.57419 104.724 7.97795C104.634 8.37685 104.577 8.64926 104.577 8.64926C104.445 9.24518 104.488 9.30355 104.897 9.49084L105.467 9.76326L105.413 10.0041C105.413 10.0041 104.708 9.83136 104 9.6684C103.295 9.50787 102.585 9.35463 102.585 9.35463L102.635 9.11383L103.264 9.11627C103.711 9.12356 103.775 9.09194 103.903 8.4936C103.903 8.4936 103.969 8.17253 104.073 7.6885C104.173 7.20691 104.312 6.56478 104.452 5.92022C104.587 5.27809 104.724 4.63597 104.828 4.15194C104.932 3.66791 105.001 3.34685 105.001 3.34685L103.884 2.9066L103.924 2.70958L105.744 2.52959L105.898 2.65607L105.642 3.82601L105.742 3.8479C106.139 3.52197 106.589 3.2909 107.043 3.16442C107.503 3.04281 107.969 3.02822 108.404 3.1401C109.046 3.31279 109.493 3.63872 109.729 4.11059C109.966 4.58246 109.987 5.19296 109.791 5.93238C109.791 5.93238 109.55 6.83963 109.306 7.74688C109.062 8.65656 108.818 9.56381 108.818 9.56381C108.622 10.2911 108.669 10.3835 109.057 10.5878ZM116.15 5.92265L116.23 5.68429C116.23 5.68429 116.82 5.89833 117.409 6.10994C117.996 6.32885 118.583 6.54776 118.583 6.54776L118.5 6.77882C117.965 6.68396 117.717 6.87368 117.089 7.55959C117.089 7.55959 116.824 7.85147 116.431 8.29171C116.235 8.51305 116.006 8.77088 115.764 9.04816C115.518 9.32544 115.26 9.62218 115.004 9.92136C114.747 10.2181 114.491 10.5173 114.252 10.797C114.013 11.0767 113.793 11.3418 113.606 11.5632C113.23 12.018 112.981 12.3196 112.981 12.3196C112.981 12.3196 112.491 12.9131 112.011 13.5066C111.53 14.1025 111.057 14.7008 111.057 14.7008L110.196 14.4284L110.252 14.2314C110.252 14.2314 110.863 13.706 111.483 13.1806C112.105 12.6601 112.73 12.1445 112.73 12.1445C112.73 12.1445 112.714 11.7431 112.681 11.1351C112.662 10.8335 112.64 10.4808 112.617 10.0989C112.593 9.72191 112.567 9.31571 112.539 8.91682C112.51 8.51305 112.479 8.10686 112.449 7.72985C112.418 7.34798 112.389 6.9953 112.361 6.69126C112.309 6.08319 112.273 5.67699 112.273 5.67699C112.188 4.81596 112.079 4.66272 111.637 4.45111L111.701 4.21275C111.701 4.21275 112.366 4.41706 113.026 4.61894C113.689 4.82812 114.347 5.04703 114.347 5.04703L114.271 5.28296C113.173 4.9546 112.957 5.20999 113.017 5.83509C113.017 5.83509 113.04 6.16345 113.078 6.65964C113.116 7.1534 113.161 7.81012 113.204 8.46684C113.244 9.12356 113.279 9.78028 113.305 10.2716C113.329 10.7629 113.346 11.0913 113.346 11.0913L113.45 11.1253C113.45 11.1253 113.651 10.8724 113.956 10.4929C114.266 10.1111 114.678 9.60516 115.092 9.10167C115.506 8.59819 115.927 8.09713 116.242 7.72012C116.559 7.34798 116.772 7.09745 116.772 7.09745C117.227 6.57208 117.085 6.28263 116.15 5.92265ZM122.812 15.7832L123.313 16.1675L123.212 16.3913C123.212 16.3913 122.558 16.0775 121.898 15.7735C121.238 15.4694 120.573 15.1727 120.573 15.1727L120.668 14.9465L121.285 15.0778C121.721 15.18 121.801 15.1338 122.099 14.4381C122.099 14.4381 122.457 13.616 122.812 12.7939C123.167 11.9718 123.522 11.1497 123.522 11.1497C123.751 10.6194 123.829 10.15 123.723 9.75839C123.616 9.36436 123.33 9.05302 122.828 8.82925C122.442 8.66142 122.076 8.59575 121.671 8.63224C121.262 8.66872 120.814 8.8098 120.265 9.05546C120.265 9.05546 120.166 9.31085 120.017 9.69515C119.868 10.0795 119.671 10.5902 119.47 11.1035C119.271 11.6167 119.075 12.1275 118.926 12.5118C118.777 12.8936 118.677 13.1515 118.677 13.1515C118.455 13.723 118.507 13.7887 118.869 14.0319L119.392 14.3968L119.3 14.6254C119.3 14.6254 118.63 14.3433 117.953 14.0684C117.281 13.7984 116.6 13.5309 116.6 13.5309L116.685 13.2998L117.312 13.402C117.747 13.4822 117.816 13.4628 118.034 12.8912C118.034 12.8912 118.223 12.395 118.507 11.6434C118.649 11.2713 118.815 10.8359 118.99 10.3713C119.167 9.90433 119.357 9.40571 119.546 8.90709C119.735 8.40846 119.924 7.90741 120.102 7.44284C120.279 6.97584 120.445 6.54046 120.587 6.16345C120.869 5.41917 121.058 4.92298 121.058 4.92298L119.993 4.26869L120.066 4.07897L121.967 4.21031L122.088 4.35382C122.088 4.35382 121.986 4.61651 121.834 5.01054C121.68 5.40457 121.477 5.92995 121.273 6.45289C121.07 6.9807 120.866 7.50608 120.713 7.90011C120.561 8.29172 120.459 8.55684 120.459 8.55684L120.556 8.59332C121.001 8.33793 121.477 8.17983 121.943 8.12875C122.419 8.0801 122.88 8.14334 123.29 8.3209C123.9 8.59332 124.291 8.98735 124.456 9.49084C124.617 9.99676 124.549 10.6048 124.243 11.3029C124.243 11.3029 123.865 12.1591 123.486 13.0177C123.11 13.8738 122.731 14.7324 122.731 14.7324C122.428 15.4232 122.459 15.5205 122.812 15.7832ZM129.518 17.8653L129.623 18.089C129.213 18.3663 128.723 18.5512 128.219 18.6047C127.713 18.6606 127.195 18.5828 126.716 18.3274C126.295 18.1012 125.959 17.8142 125.706 17.4809C125.455 17.1477 125.285 16.7683 125.195 16.3572C125.1 15.9413 125.088 15.4986 125.155 15.0341C125.218 14.5743 125.36 14.0928 125.585 13.6209C125.829 13.0882 126.13 12.648 126.463 12.2904C126.797 11.9353 127.171 11.6677 127.566 11.4902C127.959 11.3175 128.378 11.2372 128.797 11.2543C129.218 11.2713 129.639 11.3905 130.051 11.6069C130.373 11.7772 130.645 12.0058 130.867 12.2807C131.083 12.5555 131.244 12.8693 131.336 13.2074C131.428 13.5503 131.452 13.9176 131.4 14.2971C131.345 14.6765 131.218 15.0681 131.005 15.4548L130.848 15.5692C130.848 15.5692 130.583 15.4208 130.186 15.197C129.793 14.9781 129.265 14.6911 128.735 14.4041C128.198 14.1219 127.663 13.8422 127.263 13.6379C126.858 13.4287 126.589 13.2925 126.589 13.2925C126.511 13.4336 126.449 13.5601 126.38 13.706C126.158 14.1755 126.007 14.623 125.926 15.0438C125.848 15.4597 125.841 15.8537 125.907 16.2113C125.971 16.5688 126.108 16.8875 126.317 17.1696C126.525 17.4469 126.806 17.6853 127.164 17.875C127.547 18.0842 127.921 18.1717 128.307 18.162C128.69 18.1547 129.09 18.0477 129.518 17.8653ZM129.757 11.9572C129.163 11.6434 128.605 11.6361 128.106 11.838C127.606 12.0448 127.168 12.4558 126.811 12.9642C126.811 12.9642 127.041 13.0736 127.381 13.2342C127.727 13.3971 128.184 13.616 128.64 13.8398C129.092 14.0611 129.547 14.2873 129.888 14.46C130.226 14.6327 130.451 14.7495 130.451 14.7495C130.73 14.1876 130.801 13.6209 130.68 13.1296C130.56 12.6358 130.245 12.2174 129.757 11.9572ZM135.733 23.0144L136.038 23.3087L135.939 23.4571L134.427 22.9001L134.344 22.725L134.976 21.718L134.883 21.6548C134.382 21.8299 133.913 21.9199 133.475 21.9004C133.035 21.8834 132.626 21.7642 132.228 21.5186C131.883 21.2997 131.606 21.0321 131.405 20.7183C131.199 20.407 131.066 20.0495 131.009 19.6579C130.953 19.2638 130.967 18.8406 131.069 18.3906C131.168 17.9382 131.35 17.4664 131.618 16.9823C131.899 16.474 132.233 16.0508 132.602 15.7127C132.971 15.3794 133.376 15.1338 133.8 14.9805C134.223 14.8322 134.661 14.7787 135.099 14.8273C135.534 14.8735 135.965 15.0243 136.37 15.2773C136.684 15.4792 137.004 15.7419 137.274 16.0629C137.536 16.3864 137.745 16.7634 137.823 17.1818C137.823 17.1818 138.232 16.5299 138.639 15.8781C139.046 15.2311 139.456 14.5792 139.456 14.5792L138.537 13.7206L138.646 13.5479L140.478 14.066L140.575 14.2338C140.575 14.2338 140.265 14.713 139.806 15.4378C139.579 15.7954 139.309 16.2186 139.02 16.671C138.734 17.1234 138.424 17.6001 138.118 18.0842C137.811 18.5658 137.506 19.0473 137.217 19.4998C136.93 19.9497 136.661 20.3705 136.431 20.7305C135.972 21.4529 135.667 21.9345 135.667 21.9345C135.331 22.4599 135.343 22.6228 135.733 23.0144ZM132.77 21.1197C133.109 21.3361 133.499 21.4383 133.923 21.448C134.349 21.4626 134.808 21.3824 135.283 21.2291C135.283 21.2291 135.676 20.604 136.067 19.9789C136.46 19.3538 136.852 18.7263 136.852 18.7263C137.24 18.1085 137.335 17.5126 137.198 16.9872C137.058 16.4618 136.684 16.007 136.142 15.664C135.837 15.4694 135.513 15.3551 135.184 15.3211C134.853 15.287 134.517 15.3308 134.185 15.4573C133.854 15.5862 133.527 15.7954 133.222 16.0872C132.917 16.3767 132.63 16.7537 132.373 17.211C132.183 17.5442 132.022 17.8993 131.909 18.2569C131.793 18.612 131.731 18.9744 131.736 19.3222C131.743 19.6676 131.814 20.0032 131.98 20.3073C132.145 20.6138 132.399 20.8862 132.77 21.1197ZM138.497 25.8043C138.18 25.5708 137.889 25.3008 137.633 25.0187C137.375 24.7414 137.151 24.4471 136.978 24.1625L137.962 22.6982L138.156 22.8344L137.998 23.4498C137.884 23.8779 137.875 24.2281 138.003 24.5492C138.13 24.8727 138.393 25.1695 138.819 25.4857C139.131 25.7192 139.503 25.8651 139.872 25.8675C140.234 25.8675 140.587 25.7216 140.852 25.3616C141.096 25.0235 141.159 24.7 141.077 24.3303C140.991 23.9557 140.764 23.5422 140.433 23.0096C140.123 22.5207 139.834 22.005 139.709 21.4869C139.579 20.9689 139.612 20.4508 139.945 19.9546C140.27 19.4754 140.726 19.2249 141.252 19.1982C141.777 19.1763 142.369 19.3879 142.953 19.8208C143.214 20.0203 143.483 20.2781 143.73 20.57C143.969 20.8643 144.174 21.1829 144.305 21.4942L143.306 22.8442L143.112 22.6909L143.285 22.0318C143.398 21.594 143.394 21.2389 143.278 20.9324C143.162 20.6283 142.941 20.3754 142.622 20.1346C142.307 19.9011 141.919 19.743 141.552 19.7333C141.186 19.7235 140.838 19.8646 140.592 20.2197C140.36 20.5627 140.308 20.9008 140.4 21.2875C140.487 21.6694 140.717 22.1048 141.044 22.6399C141.342 23.1239 141.628 23.6298 141.751 24.1382C141.869 24.6465 141.827 25.1549 141.46 25.6511C141.093 26.1424 140.61 26.3734 140.09 26.3832C139.572 26.3978 139.015 26.1935 138.497 25.8043ZM149.246 24.9189C149.575 25.2108 149.823 25.544 149.987 25.9064C150.15 26.2688 150.226 26.6605 150.216 27.0666C150.204 27.4704 150.107 27.8912 149.923 28.312C149.731 28.7328 149.457 29.156 149.092 29.5695C148.711 30 148.297 30.3405 147.866 30.5886C147.44 30.8391 147 30.9997 146.569 31.0678C146.134 31.1408 145.71 31.1213 145.31 31.0094C144.91 30.9024 144.532 30.7029 144.2 30.4086L144.186 30.4013C143.737 30.0049 143.401 29.5792 143.164 29.1438C142.92 28.706 142.776 28.2609 142.698 27.828C142.698 27.828 143.034 27.3999 143.536 26.7529C143.789 26.4318 144.08 26.0548 144.395 25.6535C144.709 25.2497 145.043 24.8192 145.379 24.3911C145.715 23.9606 146.051 23.5301 146.363 23.1263C146.678 22.725 146.972 22.348 147.225 22.0245C147.727 21.3799 148.063 20.9494 148.063 20.9494L147.237 20.0008L147.36 19.8403L149.132 20.5505L149.208 20.7256C149.208 20.7256 149.035 20.9445 148.775 21.2729C148.515 21.6013 148.167 22.0415 147.821 22.4793C147.473 22.9196 147.126 23.3574 146.865 23.6858C146.605 24.0141 146.432 24.233 146.432 24.233L146.52 24.3084C147.047 24.2063 147.537 24.1892 147.992 24.2841C148.446 24.3814 148.865 24.5833 149.246 24.9189ZM144.484 30.0657C144.735 30.287 145.022 30.4402 145.327 30.5181C145.635 30.6008 145.961 30.6105 146.302 30.5424C146.643 30.4767 146.995 30.3308 147.348 30.1046C147.703 29.8808 148.056 29.5743 148.399 29.1779C148.65 28.8909 148.879 28.5771 149.057 28.2487C149.239 27.9204 149.369 27.575 149.423 27.2296C149.476 26.8818 149.457 26.5315 149.334 26.191C149.213 25.8505 148.988 25.5173 148.642 25.2059C148.316 24.9287 147.923 24.7487 147.49 24.666C147.052 24.5857 146.574 24.5979 146.075 24.6854C146.075 24.6854 145.616 25.2643 145.159 25.8408C144.702 26.4197 144.245 26.9985 144.245 26.9985C143.796 27.5653 143.625 28.1393 143.687 28.6647C143.744 29.1876 144.03 29.6692 144.484 30.0657ZM155.567 31.0508L155.742 31.2356L155.212 31.7659L155.02 31.7488L154.159 30.8537C153.861 30.8075 153.496 30.81 153.122 30.8367C152.751 30.8683 152.372 30.9364 152.053 31.0216C152.053 31.0216 151.428 31.6832 150.803 32.3447C150.178 33.0088 149.554 33.6703 149.554 33.6703C149.149 34.1009 149.168 34.1811 149.547 34.7527L149.887 35.2611L149.715 35.4362C149.715 35.4362 149.163 34.8768 148.607 34.3222C148.046 33.7701 147.481 33.2204 147.481 33.2204L147.649 33.0404L148.183 33.3809C148.562 33.6266 148.659 33.6047 149.054 33.179C149.054 33.179 149.272 32.9407 149.606 32.5855C149.935 32.2304 150.377 31.7561 150.817 31.2818C151.26 30.8051 151.7 30.3308 152.031 29.9757C152.363 29.6181 152.583 29.3798 152.583 29.3798L151.852 28.4093L151.986 28.2609L153.634 29.083L153.705 29.2703L152.566 30.4767L152.649 30.5594C153.224 30.4427 153.752 30.3551 154.235 30.4013C154.722 30.45 155.162 30.6324 155.567 31.0508ZM155.851 39.8484L155.87 40.0941C155.392 40.2059 154.871 40.2035 154.381 40.0722C153.891 39.9433 153.428 39.683 153.07 39.2719C152.753 38.9071 152.535 38.5204 152.412 38.1166C152.289 37.7153 152.259 37.2969 152.313 36.8761C152.37 36.4553 152.507 36.0345 152.727 35.6235C152.945 35.2173 153.245 34.8208 153.617 34.4535C154.026 34.0498 154.455 33.7409 154.89 33.5268C155.323 33.3128 155.766 33.196 156.194 33.1717C156.622 33.1547 157.041 33.2277 157.429 33.3979C157.818 33.5633 158.175 33.826 158.483 34.1787C158.726 34.4535 158.906 34.7697 159.017 35.1054C159.126 35.4386 159.169 35.7913 159.14 36.144C159.11 36.4967 159.006 36.8469 158.828 37.185C158.648 37.5207 158.397 37.8393 158.064 38.1287L157.877 38.1774C157.877 38.1774 157.683 37.9439 157.387 37.5936C157.091 37.2458 156.696 36.7837 156.294 36.3216C155.889 35.8667 155.487 35.4143 155.181 35.0762C154.874 34.7357 154.668 34.5119 154.668 34.5119C154.545 34.6116 154.443 34.7114 154.332 34.8208C153.962 35.1808 153.667 35.5481 153.449 35.9105C153.234 36.2729 153.094 36.6378 153.03 36.9977C152.969 37.3553 152.987 37.7031 153.089 38.0412C153.189 38.3768 153.371 38.7003 153.638 39.0092C153.927 39.3425 154.249 39.5589 154.613 39.6879C154.978 39.8192 155.387 39.8654 155.851 39.8484ZM158.087 34.4C157.64 33.8941 157.119 33.6849 156.582 33.6922C156.043 33.7068 155.496 33.933 154.985 34.2857C154.985 34.2857 155.165 34.4681 155.43 34.743C155.697 35.0178 156.05 35.3875 156.4 35.7597C156.748 36.1318 157.098 36.5088 157.356 36.791C157.614 37.0731 157.787 37.2629 157.787 37.2629C158.239 36.8421 158.499 36.3361 158.556 35.8302C158.608 35.3267 158.457 34.8184 158.087 34.4ZM157.29 44.3214L157.127 44.1098C157.127 44.1098 157.328 43.7571 157.628 43.222C157.775 42.9569 157.945 42.6431 158.132 42.3074C158.315 41.9742 158.509 41.6142 158.7 41.2543C158.892 40.8943 159.086 40.5343 159.264 40.1913C159.441 39.8533 159.607 39.5346 159.746 39.2622C160.028 38.7149 160.215 38.3477 160.215 38.3477C160.598 37.5693 160.601 37.3942 160.343 36.9637L160.527 36.808C160.527 36.808 160.972 37.3504 161.415 37.8953C161.848 38.445 162.281 39.0019 162.281 39.0019L162.094 39.1552C161.353 38.2577 161.041 38.3477 160.75 38.9022C160.75 38.9022 160.596 39.1941 160.364 39.6295C160.134 40.0649 159.824 40.6438 159.512 41.2202C159.197 41.7942 158.878 42.3658 158.639 42.7939C158.397 43.222 158.236 43.5041 158.236 43.5041L158.305 43.5941C158.305 43.5941 158.61 43.4944 159.065 43.3485C159.521 43.2025 160.13 43.0104 160.74 42.8207C161.351 42.6334 161.966 42.451 162.428 42.3147C162.889 42.181 163.199 42.091 163.199 42.091C163.857 41.9013 163.895 41.5899 163.313 40.7581L163.504 40.6073C163.504 40.6073 163.883 41.1181 164.262 41.6288C164.633 42.1445 165 42.6626 165 42.6626L164.806 42.8061C164.415 42.4315 164.096 42.4315 163.218 42.6528C163.218 42.6528 162.842 42.7501 162.283 42.8985C162.002 42.9715 161.675 43.059 161.327 43.1539C160.979 43.2512 160.608 43.3509 160.239 43.4555C159.867 43.5601 159.498 43.6671 159.152 43.7668C158.804 43.8666 158.483 43.9614 158.206 44.0441C157.657 44.2095 157.29 44.3214 157.29 44.3214Z" fill="#0D2B39" stroke="#0D2B39" stroke-width="0.384529" mask="url(#path-1-inside-1_1438_4254)"/>
</svg>
