<svg width="100" height="100" viewBox="0 0 100 100" fill="none" xmlns="http://www.w3.org/2000/svg">
<g clip-path="url(#clip0_1195_4342)">
<path d="M63.1209 29.7019L51.4081 14.5243L59.7987 12.8475L71.4689 28.0251L63.1209 29.7019ZM92.3815 23.8544L89.0593 7L72.3207 10.3537L83.9909 25.5743L92.3815 23.8544ZM50.5989 32.2387L38.9287 16.9751L30.5381 18.7379L42.2509 33.9155L50.5989 32.2387ZM8.81627 40.6229V83.6189C8.81627 85.8995 9.71373 88.0868 11.3112 89.6994C12.9087 91.3121 15.0754 92.2181 17.3346 92.2181H85.4816C90.2093 92.2181 94 88.3915 94 83.6189V40.6229H8.81627ZM18.0161 21.2747L13.8421 22.0916C11.6345 22.5484 9.69435 23.8654 8.44251 25.7569C7.19066 27.6485 6.72811 29.962 7.15518 32.1957L8.81627 40.6229L29.6863 36.4523L18.0161 21.2747Z" fill="white"/>
</g>
<defs>
<clipPath id="clip0_1195_4342">
<rect width="100" height="100" fill="white"/>
</clipPath>
</defs>
</svg>
