<svg width="100" height="100" viewBox="0 0 100 100" fill="none" xmlns="http://www.w3.org/2000/svg">
<g clip-path="url(#clip0_1195_4320)">
<path d="M50.0002 22.9167C42.371 16.1959 32.471 12.4876 22.221 12.5001C21.4516 12.5001 20.6877 12.5209 19.9293 12.5626C15.246 12.8084 12.9043 12.9334 10.621 15.3459C8.3335 17.7584 8.3335 20.7292 8.3335 26.6792V65.2626C8.3335 70.3959 8.3335 72.9584 9.25433 74.3959C9.67763 75.131 10.2869 75.7417 11.021 76.1667C12.4585 77.0834 15.7127 77.0834 22.221 77.0834C32.4403 77.0568 42.318 80.7608 50.0002 87.5001V22.9167ZM50.0002 22.9167C58.2767 15.653 69.077 11.9342 80.071 12.5626C84.7543 12.8126 87.096 12.9376 89.3793 15.3459C91.6668 17.7584 91.6668 20.7292 91.6668 26.6792V47.9167M90.371 62.2251L87.7752 59.6292C86.9446 58.799 85.8183 58.3326 84.6439 58.3326C83.4695 58.3326 82.3432 58.799 81.5127 59.6292L67.5585 73.5876C65.707 75.4425 64.4433 77.8018 63.9252 80.3709L62.5002 87.5001L69.6252 86.0751C72.1972 85.5585 74.5597 84.2946 76.4168 82.4417L90.371 68.4876C91.2012 67.657 91.6676 66.5307 91.6676 65.3563C91.6676 64.1819 91.2012 63.0556 90.371 62.2251Z" stroke="#0D2B39" stroke-width="6.90574" stroke-linecap="round" stroke-linejoin="round"/>
</g>
<defs>
<clipPath id="clip0_1195_4320">
<rect width="100" height="100" fill="white"/>
</clipPath>
</defs>
</svg>
