<svg width="100" height="100" viewBox="0 0 100 100" fill="none" xmlns="http://www.w3.org/2000/svg">
<g clip-path="url(#clip0_1195_4324)">
<path d="M77.3128 49.5575C75.3052 49.5575 73.3798 48.76 71.9602 47.3404C70.5406 45.9208 69.7431 43.9955 69.7431 41.9878C69.7431 39.9802 70.5406 38.0549 71.9602 36.6353C73.3798 35.2157 75.3052 34.4182 77.3128 34.4182C79.3204 34.4182 81.2458 35.2157 82.6654 36.6353C84.085 38.0549 84.8825 39.9802 84.8825 41.9878C84.8825 43.9955 84.085 45.9208 82.6654 47.3404C81.2458 48.76 79.3204 49.5575 77.3128 49.5575ZM62.1734 29.3717C60.1658 29.3717 58.2404 28.5742 56.8209 27.1546C55.4013 25.735 54.6037 23.8096 54.6037 21.802C54.6037 19.7944 55.4013 17.869 56.8209 16.4494C58.2404 15.0298 60.1658 14.2323 62.1734 14.2323C64.181 14.2323 66.1064 15.0298 67.526 16.4494C68.9456 17.869 69.7431 19.7944 69.7431 21.802C69.7431 23.8096 68.9456 25.735 67.526 27.1546C66.1064 28.5742 64.181 29.3717 62.1734 29.3717ZM36.9411 29.3717C34.9335 29.3717 33.0082 28.5742 31.5886 27.1546C30.169 25.735 29.3715 23.8096 29.3715 21.802C29.3715 19.7944 30.169 17.869 31.5886 16.4494C33.0082 15.0298 34.9335 14.2323 36.9411 14.2323C38.9487 14.2323 40.8741 15.0298 42.2937 16.4494C43.7133 17.869 44.5108 19.7944 44.5108 21.802C44.5108 23.8096 43.7133 25.735 42.2937 27.1546C40.8741 28.5742 38.9487 29.3717 36.9411 29.3717ZM21.8018 49.5575C19.7942 49.5575 17.8688 48.76 16.4492 47.3404C15.0296 45.9208 14.2321 43.9955 14.2321 41.9878C14.2321 39.9802 15.0296 38.0549 16.4492 36.6353C17.8688 35.2157 19.7942 34.4182 21.8018 34.4182C23.8094 34.4182 25.7348 35.2157 27.1543 36.6353C28.5739 38.0549 29.3715 39.9802 29.3715 41.9878C29.3715 43.9955 28.5739 45.9208 27.1543 47.3404C25.7348 48.76 23.8094 49.5575 21.8018 49.5575ZM49.5573 4.1394C37.5117 4.1394 25.9594 8.92451 17.4418 17.4421C8.92427 25.9596 4.13916 37.5119 4.13916 49.5575C4.13916 61.6032 8.92427 73.1554 17.4418 81.673C25.9594 90.1905 37.5117 94.9757 49.5573 94.9757C51.5649 94.9757 53.4903 94.1781 54.9099 92.7585C56.3295 91.339 57.127 89.4136 57.127 87.406C57.127 85.4379 56.37 83.6716 55.1589 82.3595C53.9982 80.997 53.2412 79.2307 53.2412 77.3131C53.2412 75.3054 54.0387 73.3801 55.4583 71.9605C56.8779 70.5409 58.8033 69.7434 60.8109 69.7434H69.7431C76.4351 69.7434 82.8531 67.085 87.585 62.353C92.317 57.621 94.9754 51.2031 94.9754 44.5111C94.9754 22.2057 74.6382 4.1394 49.5573 4.1394Z" fill="#0D2B39"/>
</g>
<defs>
<clipPath id="clip0_1195_4324">
<rect width="100" height="100" fill="white"/>
</clipPath>
</defs>
</svg>
