<svg width="100" height="100" viewBox="0 0 100 100" fill="none" xmlns="http://www.w3.org/2000/svg">
<g clip-path="url(#clip0_1195_4332)">
<path d="M45.5046 55.0512C46.857 55.0512 47.9915 54.593 48.9079 53.6765C49.8244 52.7601 50.281 51.6273 50.2778 50.2781C50.2746 48.9288 49.8164 47.796 48.9031 46.8796C47.9899 45.9631 46.857 45.5049 45.5046 45.5049C44.1522 45.5049 43.0194 45.9631 42.1062 46.8796C41.1929 47.796 40.7347 48.9288 40.7315 50.2781C40.7283 51.6273 41.1865 52.7617 42.1062 53.6813C43.0258 54.601 44.1586 55.0576 45.5046 55.0512ZM26.412 93.2365V83.6902L55.051 78.917V25.8156C55.051 24.6223 54.693 23.5483 53.977 22.5937C53.261 21.6391 52.3462 21.0822 51.2324 20.9231L26.412 16.8659V7.31958L52.6644 11.6154C56.1647 12.2518 59.0286 13.8827 61.2561 16.5079C63.4836 19.1332 64.5973 22.1959 64.5973 25.6963V86.7928L26.412 93.2365ZM7.31934 93.2365V83.6902H16.8657V16.8659C16.8657 14.1611 17.8012 11.8939 19.6723 10.0641C21.5434 8.23444 23.7899 7.31958 26.412 7.31958H74.1436C76.8484 7.31958 79.1157 8.23444 80.9454 10.0641C82.7751 11.8939 83.69 14.1611 83.69 16.8659V83.6902H93.2363V93.2365H7.31934ZM26.412 83.6902H74.1436V16.8659H26.412V83.6902Z" fill="#0D2B39"/>
</g>
<defs>
<clipPath id="clip0_1195_4332">
<rect width="100" height="100" fill="white"/>
</clipPath>
</defs>
</svg>
