<svg width="178" height="281" viewBox="0 0 178 281" fill="none" xmlns="http://www.w3.org/2000/svg">
<path d="M89.0007 91.5738V145.635C89.0007 145.635 35.4364 145.639 35.4359 145.635C32.5216 121.827 59.5432 88.5378 89.0007 91.5738Z" fill="#0D2B39"/>
<path d="M88.9996 0.170074V47.5921C88.9996 47.5921 42.0716 47.5956 42.0711 47.5921C39.5179 26.7076 63.1917 -2.49301 88.9996 0.170074Z" fill="#0D2B39"/>
<path d="M137.309 47.5935H89.0017C89.0017 47.5935 88.9982 95.6626 89.0017 95.663C110.276 98.2783 140.022 74.0289 137.309 47.5935Z" fill="#F0F4BB"/>
<path d="M137.309 232.257H89.0017C89.0017 232.257 88.9982 280.326 89.0017 280.326C110.276 282.941 140.022 258.692 137.309 232.257Z" fill="#C5E0B4"/>
<g clip-path="url(#clip0_1082_4246)">
<circle cx="88.8166" cy="145.454" r="67.6377" stroke="#C5E0B4" stroke-width="38.5509"/>
<g clip-path="url(#clip1_1082_4246)">
<circle cx="88.8173" cy="232.074" r="67.6377" transform="rotate(90 88.8173 232.074)" stroke="#E9BFD6" stroke-width="38.5509"/>
<path d="M67.3487 188.708C51.738 185.282 43.9486 167.529 42.1241 158.962C32.1295 164.198 15.2819 182.702 13.5677 188.708C13.0923 190.374 29.9842 214.647 42.3621 218.93C43.1926 219.218 52.8079 213.393 60.9219 207.012C70.3687 199.584 77.846 191.013 67.3487 188.708Z" fill="#0D2B39" stroke="#0D2B39" stroke-width="0.475937"/>
<path d="M67.5831 188.947C74.7223 192.753 84.7164 193.944 89.0005 193.944C89.6351 205.684 91.9 232.064 89.0005 232.257C78.2924 232.971 60.5373 230.812 42.3584 218.693C40.2173 217.265 65.6799 187.932 67.5831 188.947Z" fill="#F0F4BB" stroke="#F0F4BB" stroke-width="0.261765"/>
</g>
</g>
<g clip-path="url(#clip2_1082_4246)">
<g clip-path="url(#clip3_1082_4246)">
<circle cx="48.3623" cy="48.3623" r="67.6377" transform="matrix(0 1 1 0 40.8202 183.711)" stroke="#0D2B39" stroke-width="38.5509"/>
</g>
<circle cx="48.3623" cy="48.3623" r="67.6377" transform="matrix(-1 0 0 1 137.545 97.0913)" stroke="#0D2B39" stroke-width="38.5509"/>
<path d="M21.6549 232.02C21.6549 269.434 52.1092 299.603 89.4762 299.603C126.843 299.602 157.296 269.434 157.297 232.02C157.297 194.605 126.843 164.437 89.4762 164.437C52.1091 164.437 21.6549 194.605 21.6549 232.02Z" stroke="#C5E0B4" stroke-width="38.5509"/>
<g clip-path="url(#clip4_1082_4246)">
<path d="M59.6565 229.914C57.793 244.51 60.3675 259.052 66.9903 270.866C73.6116 282.678 85.1223 292.9 100.792 294.9C116.462 296.901 130.172 289.899 139.548 280.129C148.926 270.358 155.072 256.929 156.935 242.333C158.799 227.736 156.224 213.193 149.602 201.379C142.98 189.568 131.469 179.347 115.8 177.346C100.13 175.346 86.4204 182.347 77.044 192.116C67.6653 201.887 61.52 215.317 59.6565 229.914Z" stroke="#0D2B39" stroke-width="39.5027"/>
</g>
<circle cx="48.3623" cy="48.3623" r="67.6377" transform="matrix(-1 0 0 1 137.655 97.0913)" stroke="#F0F4BB" stroke-width="38.5509"/>
</g>
<path d="M132.055 69.9629C132.368 70.1471 115.424 93.5218 88.983 97.0913C88.983 97.0913 88.9411 58.5541 88.983 58.5404C89.7132 58.3025 111.845 58.0645 132.055 69.9629Z" fill="#E9BFD6"/>
<defs>
<clipPath id="clip0_1082_4246">
<rect width="89.0001" height="173.717" fill="white" transform="translate(0 58.54)"/>
</clipPath>
<clipPath id="clip1_1082_4246">
<rect width="89.0001" height="93.7595" fill="white" transform="matrix(0 1 -1 0 89 143.257)"/>
</clipPath>
<clipPath id="clip2_1082_4246">
<rect width="89.0001" height="173.717" fill="white" transform="matrix(-1 0 0 1 178 58.54)"/>
</clipPath>
<clipPath id="clip3_1082_4246">
<rect width="89.0001" height="49.4974" fill="white" transform="matrix(0 1 1 0 133.262 143.257)"/>
</clipPath>
<clipPath id="clip4_1082_4246">
<rect width="67.1071" height="49.4974" fill="white" transform="matrix(0 1 1 0 133.262 165.15)"/>
</clipPath>
</defs>
</svg>
