<svg width="50" height="50" viewBox="0 0 50 50" fill="none" xmlns="http://www.w3.org/2000/svg">
<g clip-path="url(#clip0_1340_17)">
<path d="M20 32.7143L32.975 25L20 17.2857V32.7143ZM48.9 12.58C49.225 13.7886 49.45 15.4086 49.6 17.4657C49.775 19.5229 49.85 21.2971 49.85 22.84L50 25C50 30.6314 49.6 34.7714 48.9 37.42C48.275 39.7343 46.825 41.2257 44.575 41.8686C43.4 42.2029 41.25 42.4343 37.95 42.5886C34.7 42.7686 31.725 42.8457 28.975 42.8457L25 43C14.525 43 8 42.5886 5.425 41.8686C3.175 41.2257 1.725 39.7343 1.1 37.42C0.775 36.2114 0.55 34.5914 0.4 32.5343C0.225 30.4771 0.15 28.7029 0.15 27.16L0 25C0 19.3686 0.4 15.2286 1.1 12.58C1.725 10.2657 3.175 8.77429 5.425 8.13143C6.6 7.79714 8.75 7.56571 12.05 7.41143C15.3 7.23143 18.275 7.15429 21.025 7.15429L25 7C35.475 7 42 7.41143 44.575 8.13143C46.825 8.77429 48.275 10.2657 48.9 12.58Z" fill="white"/>
</g>
<defs>
<clipPath id="clip0_1340_17">
<rect width="50" height="50" fill="white"/>
</clipPath>
</defs>
</svg>
